<mxfile host="app.diagrams.net" modified="2022-03-21T02:38:05.316Z" agent="5.0 (Macintosh; Intel Mac OS X 10_15_7) AppleWebKit/537.36 (KHTML, like Gecko) Chrome/99.0.4844.51 Safari/537.36" etag="f0FA6JENNLUDsix_eJ4w" version="17.1.3" type="github">
  <diagram id="yPxyJZ8AM_hMuL3Unpa9" name="simple gitflow">
    <mxGraphModel dx="1832" dy="947" grid="1" gridSize="10" guides="1" tooltips="1" connect="1" arrows="1" fold="1" page="1" pageScale="1" pageWidth="1100" pageHeight="850" math="0" shadow="0">
      <root>
        <mxCell id="0" />
        <mxCell id="1" parent="0" />
        <UserObject label="Resource Hub" link="https://nvie.com/posts/a-successful-git-branching-model/" id="9hBKPDzoitwpIBdzFDQ7-6">
          <mxCell style="text;whiteSpace=wrap;html=1;fontStyle=1;fontSize=17;" parent="1" vertex="1">
            <mxGeometry x="90" y="100" width="120" height="30" as="geometry" />
          </mxCell>
        </UserObject>
        <mxCell id="9hBKPDzoitwpIBdzFDQ7-23" value="" style="edgeStyle=orthogonalEdgeStyle;rounded=0;html=1;jettySize=auto;orthogonalLoop=1;plain-blue;endArrow=none;endFill=0;strokeWidth=4;strokeColor=#000000;" parent="1" source="9hBKPDzoitwpIBdzFDQ7-25" target="9hBKPDzoitwpIBdzFDQ7-26" edge="1">
          <mxGeometry x="304.5" y="180" as="geometry" />
        </mxCell>
        <mxCell id="9hBKPDzoitwpIBdzFDQ7-24" style="edgeStyle=orthogonalEdgeStyle;curved=1;rounded=0;html=1;exitX=1;exitY=0.5;exitPerimeter=0;entryX=0;entryY=0.5;entryPerimeter=0;endArrow=none;endFill=0;jettySize=auto;orthogonalLoop=1;strokeWidth=4;fontSize=15;" parent="1" source="9hBKPDzoitwpIBdzFDQ7-25" target="9hBKPDzoitwpIBdzFDQ7-30" edge="1">
          <mxGeometry relative="1" as="geometry" />
        </mxCell>
        <mxCell id="9hBKPDzoitwpIBdzFDQ7-25" value="" style="verticalLabelPosition=bottom;verticalAlign=top;html=1;strokeWidth=4;shape=mxgraph.flowchart.on-page_reference;plain-blue;gradientColor=none;fillColor=#B5E3Fe;strokeColor=#000000;" parent="1" vertex="1">
          <mxGeometry x="274.5" y="165" width="30" height="30" as="geometry" />
        </mxCell>
        <mxCell id="9hBKPDzoitwpIBdzFDQ7-41" value="" style="edgeStyle=orthogonalEdgeStyle;curved=1;rounded=0;orthogonalLoop=1;jettySize=auto;html=1;endArrow=none;endFill=0;strokeWidth=4;fontFamily=Courier New;fontSize=16;" parent="1" source="9hBKPDzoitwpIBdzFDQ7-26" target="9hBKPDzoitwpIBdzFDQ7-40" edge="1">
          <mxGeometry relative="1" as="geometry" />
        </mxCell>
        <mxCell id="sqnoS2JNhmN8ingZOf4Z-11" value="" style="edgeStyle=orthogonalEdgeStyle;rounded=0;orthogonalLoop=1;jettySize=auto;html=1;strokeWidth=3;" edge="1" parent="1" source="9hBKPDzoitwpIBdzFDQ7-26" target="sqnoS2JNhmN8ingZOf4Z-10">
          <mxGeometry relative="1" as="geometry" />
        </mxCell>
        <mxCell id="9hBKPDzoitwpIBdzFDQ7-26" value="" style="verticalLabelPosition=bottom;verticalAlign=top;html=1;strokeWidth=4;shape=mxgraph.flowchart.on-page_reference;plain-blue;gradientColor=none;strokeColor=#000000;" parent="1" vertex="1">
          <mxGeometry x="564.5" y="165" width="30" height="30" as="geometry" />
        </mxCell>
        <mxCell id="9hBKPDzoitwpIBdzFDQ7-43" value="" style="edgeStyle=orthogonalEdgeStyle;curved=1;rounded=0;orthogonalLoop=1;jettySize=auto;html=1;endArrow=none;endFill=0;strokeWidth=4;fontFamily=Courier New;fontSize=16;" parent="1" source="9hBKPDzoitwpIBdzFDQ7-40" edge="1">
          <mxGeometry relative="1" as="geometry">
            <mxPoint x="810" y="180" as="targetPoint" />
          </mxGeometry>
        </mxCell>
        <mxCell id="9hBKPDzoitwpIBdzFDQ7-52" value="" style="edgeStyle=orthogonalEdgeStyle;curved=1;rounded=0;orthogonalLoop=1;jettySize=auto;html=1;endArrow=none;endFill=0;strokeWidth=4;fontFamily=Courier New;fontSize=16;entryX=0;entryY=0.5;entryDx=0;entryDy=0;entryPerimeter=0;" parent="1" source="9hBKPDzoitwpIBdzFDQ7-40" target="9hBKPDzoitwpIBdzFDQ7-50" edge="1">
          <mxGeometry relative="1" as="geometry">
            <mxPoint x="689.5" y="275" as="targetPoint" />
          </mxGeometry>
        </mxCell>
        <mxCell id="sqnoS2JNhmN8ingZOf4Z-16" value="" style="edgeStyle=orthogonalEdgeStyle;rounded=0;orthogonalLoop=1;jettySize=auto;html=1;strokeWidth=3;" edge="1" parent="1" source="9hBKPDzoitwpIBdzFDQ7-40" target="sqnoS2JNhmN8ingZOf4Z-15">
          <mxGeometry relative="1" as="geometry" />
        </mxCell>
        <mxCell id="9hBKPDzoitwpIBdzFDQ7-40" value="" style="verticalLabelPosition=bottom;verticalAlign=top;html=1;strokeWidth=4;shape=mxgraph.flowchart.on-page_reference;plain-blue;gradientColor=none;strokeColor=#000000;" parent="1" vertex="1">
          <mxGeometry x="680" y="165" width="30" height="30" as="geometry" />
        </mxCell>
        <mxCell id="9hBKPDzoitwpIBdzFDQ7-56" value="" style="edgeStyle=orthogonalEdgeStyle;curved=1;rounded=0;orthogonalLoop=1;jettySize=auto;html=1;endArrow=none;endFill=0;strokeWidth=4;fontFamily=Courier New;fontSize=16;" parent="1" target="9hBKPDzoitwpIBdzFDQ7-55" edge="1">
          <mxGeometry relative="1" as="geometry">
            <mxPoint x="809" y="180" as="sourcePoint" />
          </mxGeometry>
        </mxCell>
        <mxCell id="9hBKPDzoitwpIBdzFDQ7-55" value="" style="verticalLabelPosition=bottom;verticalAlign=top;html=1;strokeWidth=4;shape=mxgraph.flowchart.on-page_reference;plain-blue;gradientColor=none;strokeColor=#000000;" parent="1" vertex="1">
          <mxGeometry x="871.25" y="165" width="30" height="30" as="geometry" />
        </mxCell>
        <mxCell id="9hBKPDzoitwpIBdzFDQ7-27" value="" style="edgeStyle=orthogonalEdgeStyle;rounded=0;html=1;jettySize=auto;orthogonalLoop=1;strokeWidth=4;endArrow=none;endFill=0;" parent="1" target="9hBKPDzoitwpIBdzFDQ7-25" edge="1">
          <mxGeometry x="204.5" y="180" as="geometry">
            <mxPoint x="160" y="180" as="sourcePoint" />
          </mxGeometry>
        </mxCell>
        <mxCell id="9hBKPDzoitwpIBdzFDQ7-28" value="main" style="text;html=1;strokeColor=none;fillColor=none;align=center;verticalAlign=middle;whiteSpace=wrap;overflow=hidden;fontSize=14;fontStyle=1;fontFamily=Courier New;" parent="1" vertex="1">
          <mxGeometry x="90" y="170" width="50" height="20" as="geometry" />
        </mxCell>
        <mxCell id="9hBKPDzoitwpIBdzFDQ7-29" style="edgeStyle=orthogonalEdgeStyle;curved=1;rounded=0;html=1;exitX=1;exitY=0.5;exitPerimeter=0;entryX=0;entryY=0.5;entryPerimeter=0;endArrow=none;endFill=0;jettySize=auto;orthogonalLoop=1;strokeWidth=4;fontSize=15;" parent="1" source="9hBKPDzoitwpIBdzFDQ7-30" target="9hBKPDzoitwpIBdzFDQ7-32" edge="1">
          <mxGeometry relative="1" as="geometry" />
        </mxCell>
        <mxCell id="9hBKPDzoitwpIBdzFDQ7-30" value="" style="verticalLabelPosition=bottom;verticalAlign=top;html=1;strokeWidth=4;shape=mxgraph.flowchart.on-page_reference;plain-purple;gradientColor=none;strokeColor=#000000;" parent="1" vertex="1">
          <mxGeometry x="347.5" y="245" width="30" height="30" as="geometry" />
        </mxCell>
        <mxCell id="9hBKPDzoitwpIBdzFDQ7-31" style="edgeStyle=orthogonalEdgeStyle;curved=1;rounded=0;html=1;exitX=1;exitY=0.5;exitPerimeter=0;entryX=0;entryY=0.5;entryPerimeter=0;endArrow=none;endFill=0;jettySize=auto;orthogonalLoop=1;strokeWidth=4;fontSize=15;" parent="1" source="9hBKPDzoitwpIBdzFDQ7-32" target="9hBKPDzoitwpIBdzFDQ7-34" edge="1">
          <mxGeometry relative="1" as="geometry" />
        </mxCell>
        <mxCell id="sqnoS2JNhmN8ingZOf4Z-27" value="" style="edgeStyle=orthogonalEdgeStyle;rounded=0;orthogonalLoop=1;jettySize=auto;html=1;strokeWidth=3;" edge="1" parent="1" source="9hBKPDzoitwpIBdzFDQ7-32" target="sqnoS2JNhmN8ingZOf4Z-18">
          <mxGeometry relative="1" as="geometry">
            <Array as="points">
              <mxPoint x="435" y="310" />
              <mxPoint x="435" y="310" />
            </Array>
          </mxGeometry>
        </mxCell>
        <mxCell id="9hBKPDzoitwpIBdzFDQ7-32" value="" style="verticalLabelPosition=bottom;verticalAlign=top;html=1;strokeWidth=4;shape=mxgraph.flowchart.on-page_reference;plain-purple;gradientColor=none;strokeColor=#000000;" parent="1" vertex="1">
          <mxGeometry x="419.5" y="245" width="30" height="30" as="geometry" />
        </mxCell>
        <mxCell id="9hBKPDzoitwpIBdzFDQ7-33" style="edgeStyle=orthogonalEdgeStyle;curved=1;rounded=0;html=1;exitX=1;exitY=0.5;exitPerimeter=0;entryX=0;entryY=0.5;entryPerimeter=0;endArrow=none;endFill=0;jettySize=auto;orthogonalLoop=1;strokeWidth=4;fontSize=15;" parent="1" source="9hBKPDzoitwpIBdzFDQ7-34" target="9hBKPDzoitwpIBdzFDQ7-26" edge="1">
          <mxGeometry relative="1" as="geometry" />
        </mxCell>
        <mxCell id="9hBKPDzoitwpIBdzFDQ7-34" value="" style="verticalLabelPosition=bottom;verticalAlign=top;html=1;strokeWidth=4;shape=mxgraph.flowchart.on-page_reference;plain-purple;gradientColor=none;strokeColor=#000000;" parent="1" vertex="1">
          <mxGeometry x="492.5" y="245" width="30" height="30" as="geometry" />
        </mxCell>
        <mxCell id="9hBKPDzoitwpIBdzFDQ7-35" value="feat/xxx-1" style="text;html=1;strokeColor=none;fillColor=none;align=left;verticalAlign=middle;whiteSpace=wrap;overflow=hidden;fontSize=14;fontStyle=1;fontFamily=Courier New;" parent="1" vertex="1">
          <mxGeometry x="97.5" y="250" width="240" height="20" as="geometry" />
        </mxCell>
        <mxCell id="9hBKPDzoitwpIBdzFDQ7-37" value="The main branch&lt;br&gt;" style="text;html=1;strokeColor=none;fillColor=none;align=left;verticalAlign=middle;whiteSpace=wrap;overflow=hidden;fontSize=14;fontStyle=0;fontColor=#009900;" parent="1" vertex="1">
          <mxGeometry x="95.25" y="190" width="132.25" height="20" as="geometry" />
        </mxCell>
        <mxCell id="9hBKPDzoitwpIBdzFDQ7-38" value="Your feature branch" style="text;html=1;strokeColor=none;fillColor=none;align=left;verticalAlign=middle;whiteSpace=wrap;overflow=hidden;fontSize=14;fontStyle=0;fontColor=#009900;" parent="1" vertex="1">
          <mxGeometry x="96.25" y="275" width="202.25" height="20" as="geometry" />
        </mxCell>
        <mxCell id="9hBKPDzoitwpIBdzFDQ7-39" value="Tag: 1.0.0" style="text;html=1;strokeColor=none;fillColor=none;align=center;verticalAlign=middle;whiteSpace=wrap;overflow=hidden;fontSize=14;" parent="1" vertex="1">
          <mxGeometry x="258.38" y="140" width="70" height="20" as="geometry" />
        </mxCell>
        <mxCell id="9hBKPDzoitwpIBdzFDQ7-44" value="Tag: 1.1.0" style="text;html=1;strokeColor=none;fillColor=none;align=center;verticalAlign=middle;whiteSpace=wrap;overflow=hidden;fontSize=14;" parent="1" vertex="1">
          <mxGeometry x="654.5" y="140" width="70" height="20" as="geometry" />
        </mxCell>
        <mxCell id="9hBKPDzoitwpIBdzFDQ7-54" value="" style="edgeStyle=orthogonalEdgeStyle;curved=1;rounded=0;orthogonalLoop=1;jettySize=auto;html=1;endArrow=none;endFill=0;strokeWidth=4;fontFamily=Courier New;fontSize=16;entryX=0;entryY=0.5;entryDx=0;entryDy=0;entryPerimeter=0;" parent="1" source="9hBKPDzoitwpIBdzFDQ7-50" target="9hBKPDzoitwpIBdzFDQ7-55" edge="1">
          <mxGeometry relative="1" as="geometry">
            <mxPoint x="902.25" y="260" as="targetPoint" />
          </mxGeometry>
        </mxCell>
        <mxCell id="9hBKPDzoitwpIBdzFDQ7-50" value="" style="verticalLabelPosition=bottom;verticalAlign=top;html=1;strokeWidth=4;shape=mxgraph.flowchart.on-page_reference;plain-blue;gradientColor=#EA6B66;strokeColor=#B85450;fillColor=#F8CECC;" parent="1" vertex="1">
          <mxGeometry x="779" y="245" width="30" height="30" as="geometry" />
        </mxCell>
        <mxCell id="9hBKPDzoitwpIBdzFDQ7-58" value="Hotfix Commit" style="text;html=1;strokeColor=none;fillColor=none;align=center;verticalAlign=middle;whiteSpace=wrap;overflow=hidden;" parent="1" vertex="1">
          <mxGeometry x="759.5" y="270" width="80" height="30" as="geometry" />
        </mxCell>
        <mxCell id="sqnoS2JNhmN8ingZOf4Z-13" value="" style="group" vertex="1" connectable="0" parent="1">
          <mxGeometry x="489.13" y="30" width="180.75" height="80" as="geometry" />
        </mxCell>
        <mxCell id="sqnoS2JNhmN8ingZOf4Z-10" value="Deployed into Staging env&lt;br&gt;Ready for Tag Release" style="whiteSpace=wrap;html=1;verticalAlign=top;fillColor=#DAE8FC;strokeColor=#000000;strokeWidth=4;gradientColor=none;" vertex="1" parent="sqnoS2JNhmN8ingZOf4Z-13">
          <mxGeometry width="180.75" height="80" as="geometry" />
        </mxCell>
        <mxCell id="sqnoS2JNhmN8ingZOf4Z-12" value="" style="shape=image;verticalLabelPosition=bottom;labelBackgroundColor=default;verticalAlign=top;aspect=fixed;imageAspect=0;image=data:image/png,iVBORw0KGgoAAAANSUhEUgAAAa4AAABeCAYAAAB7EPA3AAABQ2lDQ1BJQ0MgUHJvZmlsZQAAKJFjYGASSCwoyGFhYGDIzSspCnJ3UoiIjFJgf8bAzCDKwMlgwWCUmFxc4BgQ4ANUwgCjUcG3awyMIPqyLsgsJaXzsSx+Xr7//k1Wvls96RamehTAlZJanAyk/wBxUnJBUQkDA2MCkK1cXlIAYrcA2SJFQEcB2TNA7HQIew2InQRhHwCrCQlyBrKvANkCyRmJKUD2EyBbJwlJPB2JDbUXBDhCjSxcTS0NCDiVdFCSWlECop3zCyqLMtMzShQcgSGUquCZl6yno2BkYGTEwAAKb4jqz2LgcGQUO4UQy37EwGBpzcDA9BkhlhDKwLA1hoGBVxshpjWfgUEwk4HhMH9BYlEi3AGM31iK04yNIGyeIgYG1h///3+WZWBg38XA8Lfo///fc////7uEgYH5JgPDgUIAH/NdijnqR1EAAACKZVhJZk1NACoAAAAIAAQBGgAFAAAAAQAAAD4BGwAFAAAAAQAAAEYBKAADAAAAAQACAACHaQAEAAAAAQAAAE4AAAAAAAAAkAAAAAEAAACQAAAAAQADkoYABwAAABIAAAB4oAIABAAAAAEAAAGuoAMABAAAAAEAAABeAAAAAEFTQ0lJAAAAU2NyZWVuc2hvdCry2XwAAAAJcEhZcwAAFiUAABYlAUlSJPAAAAHVaVRYdFhNTDpjb20uYWRvYmUueG1wAAAAAAA8eDp4bXBtZXRhIHhtbG5zOng9ImFkb2JlOm5zOm1ldGEvIiB4OnhtcHRrPSJYTVAgQ29yZSA2LjAuMCI+CiAgIDxyZGY6UkRGIHhtbG5zOnJkZj0iaHR0cDovL3d3dy53My5vcmcvMTk5OS8wMi8yMi1yZGYtc3ludGF4LW5zIyI+CiAgICAgIDxyZGY6RGVzY3JpcHRpb24gcmRmOmFib3V0PSIiCiAgICAgICAgICAgIHhtbG5zOmV4aWY9Imh0dHA6Ly9ucy5hZG9iZS5jb20vZXhpZi8xLjAvIj4KICAgICAgICAgPGV4aWY6UGl4ZWxZRGltZW5zaW9uPjk0PC9leGlmOlBpeGVsWURpbWVuc2lvbj4KICAgICAgICAgPGV4aWY6UGl4ZWxYRGltZW5zaW9uPjQzMDwvZXhpZjpQaXhlbFhEaW1lbnNpb24+CiAgICAgICAgIDxleGlmOlVzZXJDb21tZW50PlNjcmVlbnNob3Q8L2V4aWY6VXNlckNvbW1lbnQ+CiAgICAgIDwvcmRmOkRlc2NyaXB0aW9uPgogICA8L3JkZjpSREY+CjwveDp4bXBtZXRhPgov4/hdAAAAHGlET1QAAAACAAAAAAAAAC8AAAAoAAAALwAAAC8AAApAQcbqhwAACgxJREFUeAHsnXtQVccdx7/3Ui8QQEQRRFBegi9UFKmkaUQcO5NUHCdNbaztxI79I046aSatoWlN20jaNNHaNraZSTpJp6mN1TGjbYxtkyZ0arARKEiiBuWtAiogj/CUx73dPXgO98HlQpL7OJfv/nN29+zZ/e1n99zv+Z1z7lmDRQQwkAAJkAAJkIBOCBgoXDoZKZpJAiRAAiSgEKBwcSKQAAmQAAnoigCFS1fDRWNJgARIgAQoXJwDJEACJEACuiJA4dLVcNFYEiABEiABChfnAAmQAAmQgK4IULh0NVw0lgRIgARIgMLFOUACJEACJKArAhQuXQ0XjSUBEiABEqBwcQ6QAAmQAAnoigCFS1fDRWNJgARIgAQoXJwDJEACJEACuiJA4dLVcNFYEiABEiABChfnAAmQAAmQgK4IULh0NVw0lgRIgARIgMLFOUACJEACJKArAhQuXQ0XjSUBEiABEqBwcQ6QAAmQAAnoigCFS1fDRWNJgARIgAQoXJwDJEACJEACuiJA4dLVcNFYEiABEiABjwlXa2836tqbcaPnY/QM3ILFYiF9EiABEiABHREwGAwIMQUiOmQ6EiOiEHlHqFes94hwlTTWoqat2SsdZKMkQAIkQALuIZA8MwqZsUnuqXycWt0uXP+uq8CN7k7FhISI2UiKiERUSPg4JnEXCZAACZCALxKQd8t6BvvFb3oXLjQ3KCZGh4YjJ3GxR811q3CpnlaIKQhr4hIpWB4dWjZGAiRAAu4j0C1ETDomPQP98LTn5Tbhks+03qk5r1Bbn7SYouW++cOaSYAESMArBJp7OlFQW6G0vSE5zWPPvNwmXKq3JW8PZsUlewUqGyUBEiABEnAvgTMNNahvb/Go1+U24Xqzshzdt/rx+bgk8Vwryr3kWDsJkAAJkIBXCKheV2hgEHJT0z1ig9uE68j5IuWV900LVyqvT3qkN2yEBEiABEjAowTkCxsnLp2FfFX+gbQ1HmnbbcJ1+NwZpQNbl2V5pCNshARIgARIwDsEPP17T+HyzjizVRIgARLwGwIULr8ZSnaEBEiABKYGAQrX1Bhn9pIESIAE/IYAhctvhpIdIQESIIGpQYDCNTXGmb0kARIgAb8hQOHym6FkR0iABEhgahCgcE2NcWYvSYAESMBvCFC4JjSUci0vw4RKshAJkAAJkIB7CVC4XPKlaLlExAIkQAIk4EECFC6nsEcFy9J1A5br5bD0jazzZTGPrKZsMI7thcn91vsmUt5iHkRA9BIYY1c5tcifdnSJ70qaxarU4UHB/tQtj/dl2GzGX25/NUY2Lj955utMW3o/RmF9JbLmLUBM2AyPM/PlBuXSHX+tKNVM3JKWicCAaVqakRECFK4xZ8KoaA03lCKg4wIQZAL6B8YsPaHM4WEgIACQWxlkXA0yLyQYg30BmLZsi5qrbZu6OpDzUr6WnkxkTXwq/rRl52QOcVtZ+Y2xJ946jENlp9HW0SbaseDLK7Jw8luPu61NVxVXtV5H7h/3jllsplgmPClyjvgKdTTuSV2BL8xfMGY5b2bKH7qwH2zTTCjN249VMQla2tcite3NSN6fB/R0AYHBKH30Zz5r76vl7+GZd447IJRCEjtjJuJnzsbiqDjsWLUWYeKDr59FqG67gZSnH9aqasp/heKu0RiNULhGWdyOjYqW+fJpGAevYrC9G6rXJAup3pS1Z6XG1a0sN5G4Ws4UEoghQzg+t3SzzLIJdeIT/kn5n0x8slKW4v2HP5no2RjxKRMDQpyX/moXqpuu2NTkbeH68PoVrHjuMRubxk4YcM/yTDy/aTtShZj5SvA14frvlWqcEov9LY6ai82LMxwwPVVwDHtOvKblP7RuI17cvENL+1Jk33snkXfsD65NCgnDk+ty8fSGr7ou66IEhcsFoNu7KVxOOA1Xv4sAtKC/pQNGY4CNWKmHWCxmGK08JylUMqjCppaz31oLmrpvWrDJr4Vr97+O4pm/Hx7prrg6zcvJRXpMIr4oPMJ54TNVDB7fOgiX8AJMJuFdizDQ2yM85CEbm2ZFRKI679eYEXSHTb63Er4mXKn7HkOVuDjJTb8TJ7bvcsBy9HwxvvbKc1r+gQd24pGsL2lpX4o4CJcQKJPRiIGhQaCv18HUH2/chvwN9zvkTyaDwjUxWhSuMTipojVwU9zOsApSkKToqIJlL1TW+6wO07w19XhrYVPrGM/jks+CWnttbZH17y88ib3/fF1rqnL3CwgPtv1Blbc1fOGZR/pvnsAHl6sUW/d+ZQcev3ujZrc3I/bC9fI3v4tvZ2QrJknuF1uu4cm3j+B4aaFm5v2r1+L1bzyqpb0Z8SXhkl51YN7XAfOwU+GSrPaeehMnL5YhZ0Eafppzn7I8hTcZOmvbXrga9ryM2OkRSnHJ/eiFInz/jYNoV257i2yDERU/PIBFs2OcVekyn8LlEpFSgMJlx8l8swbG9hLcau0UJ5TRbq9t0lqA1D1SiNR8Na6Kk1rGfiuFMDA02KnHZV9eTe8pOI6nTvxZTaL9Fwd9xhPQjLodMex+EJAejAjFu/YhMzbp9h7vbsYTLmvLsn+fj1MVH4xkmQJhfvY1n/jB9SXh+l9THTL3jXhZzjwua6a+Hh9PuFTb/1N/Eeue360m8eK27+ChzPVaerIRCtfEiFG47DgpL2P0V9ncInQlPGoVZnGlKRc3sxc8KUz2eeox6nY8j0stY7+djHBJz6HsWj3KG+sxJOxMj03ExoXpmBUcYl+tlpYP0t+qOodKcaxZ9CF51hxsXZ6FqJDpWhlXEXliS89l/W9/Ih/6KcVf3f497fZgbFiEwzOjhs42FIvluc9euyz+PWfAqrkJyBQrW6tXu/ZtHvrwffQPDiB9brz2oL/wciWOidtSS6Lj8ODKu2GyuqVrffxEheulkgLsPPSCdmjFj36nXFkX1H6kLCMeI67E701ZruyXL3wcLD8tFjQ1YXvGWswJCdeOk15JaWOd6Fs9qkW5FHF1niHGYmVMPKaJW9LjhSsdrXi37iOUXK1V+K1LXIJlc+Y5fTnjjUtlaO0e8dSz5qVgiXjuZB0qRfuFly8pWRFiHty3ZLX1bi1eL9otbqjF2aZ6TBe3eTPERceauGQbT/5mXw9+KZ4JPfuPI8pxd6ak4ef3btXqcBbJTlgEozhn7ENnfx+KG2tQJli1ihc5lgk+q+cmOvRBPU4dB8lDvSiSY/u3ijK09XZjqZgHG4SHlzAjUj3E5XYiwiUrsb4oe2T9ZhzYJC7S7IJkWHRV9KepFhFBoVgZm4Ds+IUImjZyW1otPlHhahO8i8Q5UnS1GkPDZqyImY/sxEXjnpvyTd6SxlqUi/OqsvWaslL8XcKGu+JT1OYdtq2C3dvV51DR3KicxxniXMyan4K5Tt4GtYhz/bwoe+Zqlbhb0YQEsRp9hhi3z/rFJk8L1/8BAAD//4CmPakAAB2fSURBVO1dBXgVR9s9lwR3hya4E7RocdeixaVFC4EWKS7FgifYB8WLhtBAcZfi7u5eNBTXAkn+9517d7K7uTcJ0fI/M8+TuzOzI7tnd+fMKzOxBFJAFIQ/zh4SrTbLXzJCrfvfPQ6n91fx4ckrBAT4I+DTJzjFjo1YTk4IDAj50rl8rFhOwfoPDAwQedyGP7VnsVjoL5Ysx+fjxo+DT84p4OxWT+aHFhm+YxWGrfOWxZ6NWYxk8RLINEeu/vMQ7VbMwr5LZwz5nEiYJBm8m3ZB/bxFDOc+0n10XDkXCw/+BVDcEOj+kiVOKrMKuWTCzo6DZdocsfRuCrppc7ZMNy1eEX80/0mkX3/4F93WLcL8fVsobcKa8HKvUBsTarZA/NhxZH2OOA9uA/83r5CY7uf5sLmoOMcDey6elmVejPVGkrjxZVofOfPwDgqO6ymz5rbqhvZFysu0Fll27gia/j5OS2J/z3EolTE7aswfhy1njoj88wOmwuf0AYzauFSW+6NdXzTNX0Kkt147hzZ//IYHT/zkeS2SMc1XWNS8K8pnzq1lGY4jdq7G0HVLCBbru2Q9aUGDIqWx6vg+WfZ43wn4On1mkc7t1QuX790S8bEN2qBfuToirv1MObgVPZbNEslMaV1wq///tFPi+OL9O7T5cyZW69qXBQjPmd+1Q6dilcQzm7pjjTz1OZFX43yQKE5cQ5WJ+zehF7/X/7435HOiQt7CWNi4MzImS2U4J58DvSf7e4zBuF1rsPbkAUMZxI6LWY074sdiFY35DlKeezeg78p58uzd4XPhkiS5THMkgIYzp34tgI8fRP6oet9jYIWgb5gxbLdiNlYe22Oox4n0qdJiflN3VM+eX5679vQRcnh0ken7I35H+sTJZJqHT34Xhm38I/h3Rc/Eq05L/FKqhhhjtEpcZ+KBzei9wQd491bLlscGRcpgAWFq/ka86P77bKJ+zHVoDPilSj2MrtYEcZ1iy3YuPr6Pxosn4fzfN2SeFvkmRz4sbOKOHKnSaVkROkbWeB/Wi7B8KcTld+0+dm05AafEqWB59w/KVP4ayZInFmRmJh7t5pmA9ISkz+c4n9NITItrx7iJ4uOTJWmkEte26+dQbeZI4NNH7VLoIogw9YOfc2xc6TfZ8EK1pQ9tgSAPazUe1D5QG/YG3PZla2Juww5B7ZtiNeaNxZbzJ4IToK2cRlwv/30HHmgf/PMoqAWeBPA8R3e9WdO74lxPTwN5acTFFduUqW64dtD9BXrSx+cghJW4+m1ZivGb/7S2Qhi+HbdEXIMcMOnM96WrYdH+bRQLIt1d3UcJMhKDwMr5hnN8beZnM6OZOzoXr2Ttx/brvmY+Zu5ar8uzwClhIkHWukwRjSzievjmBQpM7IfHTx8HdcHPIxa9P7r3aXPXYdh5/QLGbV4WVO4zYmbiqr3AExtPH9K1YKGZibOhT5rl4WSPUSiULpMsp38OfB70PlkD1dc9D37/T/b1MtSVjZgiYSEunzMH0XK+l6y5p/tolM2cS6T93rxEvol9DRimSJZSkN3zF09tdSzY/vNwVM7qJtKhEVelOSOx88JJ2R/fqytN2O7yd2P7TgbUbCpIRStUkers0tcRJ4y4NC9ZCT5Nu2pVsPTMIbSY7ynTiBsPLjRhvff0H9u3bME+miCUzpRDlOFJWfXZoySBc2aGNOnx96uXRHxvRJk4VP8+Te5Sxk8o0hH5UcRlQk+TuHb6/IUEeSqgROOWOLpyKV6f24FS1YrC/+NHOJtmiFoTGnHZO3IZM6lpJMYzongJ4ka6xMUSTM7xPfDg+VN0KlsdPUrVRI6UabH20gn0WLMQd/zui0uv93VprG79i4g/pZcs5cAfKE6DL33kB+jl/IYkCw7rr5xCnRkeIg4nZ1zuPwU5wzCDYgkuTp/mkrxWdOiPclnyiHbi0eDNM+52K+aQpLXZ2nbCxFhB0kft3IXoWwzEqosn0IIkFW3m16NKA0yq3cpaln71xCUy6SP7Ln9xJCHpM3HcuJjy7feyrDkSFuK6QDi50QCkDYZMntf7ThFNGQZMkWNBZbfCyEI4v3j3DnOI1J++e42sY7rTR/2vKMEz3MnfthZSw81nj+G+ep6U2kAf9YNBU5EuYVJRlmexecf2kNg1KV4Bsxt0QNJ48XGXBr+WvtMM0mVkEVfLZdPhwxI3h/gJsKRZFzTMUwTxSNrdd/sKft26DNlSppOTlif03nRdPR++R3aKKtXzF4N3M6skLTJsP4x35am/yiw9cRlIgN49j7qt8FPJqkISOHLvBpp7T8GtR/dE3cJZcuFEt9GyHfNzqF2oJAZXboj8aVzhc+YAuq9djHevXojy9Qn/Va16yrqOIiER1xv6tuYe340eLBnaBuYyuQtgb6ehsrkmPlOx/OgukS6QKTtJQ61RhQiKJ7488DZfMFE8Vx7gr9H7FIc0MiER16yjO9DZh74DCkwCsxu2RVO3EuKZCFyJOP55RsRC3+aFfpOQJ/VXouwkkrZ+WT4HOUk7MqJ6U9TKWRDP37+F5571CJKULTg/4H/IS5I/h8JT+uPUrasi3r1yfXjWaoHYNHF5/PYlph3cjsT0zfYuW1uc/+Dvj2zjuuPu4wci3ahYeQwl7POldRUk3X39IkzbsVac4/fXt/nPIh6RH0VcJvQ04lo5az1Kte6BdAWK4tHZ49i/aBJqNSxD43kgqQ1pBkhBIx5TEyEmNfLS6jJp8YscVapCfqk+kKrOrI4ZTaqUQWsWiWt1SZ0OdwdaPwg9OZXM4YaDXUYY7ienZ09cvX9H5F0fMgNZk6cxnHeUsPRqIgffbT+NQJVsbrIoqzNzjqaX2TZjXE7E1sitmDzPkTnHduLHJdOseYT//aGzpArFQFwJEuJij3HInTq9ob6jhJm4fiCpqYxtxvyYZsyn6V59j+/VqWUs2NhlCGrmKCCaNA6YFni3+QUtC5YydNdoyRSssKmK8rhmwYVeQTN0LsjvQIbRXXHPJm22K1sDvzfsKNpo7PM//Hl0t4hnJsn3pkmd94rUaUn6txTn+ScyiEuQJROt7XksadsbLQp8I/twFGnz5yws3L9VnP620DdY90PvYEVPPLiFIuN7yXw9caXx6Cylk06kFp5Zr50sx5Ebz/yQzaOrvC6ftn3QvEBJUUb/HPQTMa2BDqT6/n3vJpHUTzy08/aOZuJKnSI1nOlbfU1qwVcvmQRpcmcLTAq73YfKCceph7dReBzfp7WMXhLT6rTw/Q1LD+0Qyb9+9kClrHkdEhe/IwmHtpfkO7h2c3hUaaQ1JY6/E5F28Laqe/uT1DWGVHla4ImFWdIRas7BbYC3r0UxvZrcMogme2/fiHx71661y0erNmGeNStBIrweOhsJdZN7vvZMY3/G335EbPTt+pMGJBbhGJGgiMuEnkZcuzYexMVTd1GiWm0c3roBeQq5olwpN3z44E+CSCxTrdCTGkHZKxkYEIB4CeNFusRlry8t7+SD2/h6vFXKYskqYMIyQaCCREbR4EChePa8ONzVJmHZKuYg4rrGxEWzr3dkO+IZeFhCSMS14ORetF00WTTDdrdXZKdiMtcHJuC4A1pLqWVN50Gom+trUURPXEO+bYnhNNsLazATV8j1LOhdrSE8yc6mBf2AWS5PQez+cYh2Sh4zjflZSrdejTqgV+ma8pwWGUgSzJhNviLJs/PTRL4c9HWH122NIRXri3zth6XqxGxjsYXIIC79JIHthi/sPA+tP/0xIsTFqsn0g4OI6ixJ8zxjN4dS04fi4NVzIvvnSvXwvzo0wFLQP4cO5WpiDkml+rCcbJRNNBslqdcC6d0NLZiJy155lnz6lK1F9sNvSbqPJ4tMPbQN3XxnijRPDH1bktRsCn+eO4zJ21eJ3An0XvxC74UjiUv/XfL3urbTIKSIl9DQ4p0XT6R6jyXO9T/0MZy3lxCq/LNHxane1b6T73aeCb1w6e4tkc/qzZFEhK0Kljbco9ZeA+9J0g7KE5b+OhufVmbA5qXYe+m0SJ4jyc4tjYt2KlxHRVwm2DTieu/3DIeOXcLTv58gRYaUKFk0t7WkbkA1D66mpgxJjbi0I5/U4tFBXDzA7b51Ccfv3cTDV89x66kfNp0+LK/x04TlcLIRsuuoLnL2P4IGS/cSVfAp0B9euzdgwrYVog4bWw90GS7rhxYJibh6b/SR7RYknfmpHmPtNpdh9E9SHeFBRvDBtg9ET1x6Zwi7jZgyw0ZcFiLxPJhavy2Ku2Q1tBDagGlWk67t/Cvq5CpkaIMT82i23N42W2bVXODoxVbDf59mUtrTSxhaA1FBXD03eMsB1ayS0/q1d4wIcW25dhY1fhtma9aCf718herM3I9ehVnZ7Wts7zBIFAntOWy6ega1ptve11DsnlqfZuKqRP050zdy8PY1kriei2JM7HvchwSzmXVcNRdz91glPK29kI5dK9bBtLptHBKX79nDaDZvfEhNGM7ly5gNZ3sGL8/S9K6bF3GTHITYBrfl0ik8tDkLdatcT6rVZx7ZAfelVi2MbJhwq56nEHqWq21wKMnl9Quu3Lsti4UWWdVxYDCHsNDqmM8r4jIhIojr+Xm8ffYS8cjTLxZ5FAaQXYslLREcEBeTEKsRSVSQLTKxiXyZw6eD53G9qJK4eGAeuMUXG87QrMrsIai7Lj1xHb9/C+VneeCN7ePUFRPRpEmTi48iQ9IU5lMO0yERV+vlM+B9YLuo60hq4ZP5JvaRHkv62XZkEhcbqUtkzAF+iqkTJkEesj/kTpneoWQZ2oBpliT2ESlrBm1xw7afVReOoeGcMbaUBe+9luLVv/8i9aAfZLGtPw1H1Wz5ZJojUUFcrZbNwBKyY3BgL76QvEZFIdtPRIhLL3Wz91/gePKAsxO6rF2AGTvXiTN6yTS05xAZxKV5FbJtMYMnaSvIk5UD26iu9J5oeEf0WPD3kisE1TWrzYZUbSTUz44kLm/yVm29YILoD6TlKE5SeUihnltR6d3IKkFW503YvR5+emcbUwN64uJTkw9sQc8NS6TKUF+cHZEWNuoksrKSfevmw7sizursNCSFOgoJSIW4qEkXfM7YYa8tRVwmVPwfnIHTmwtgiYtDAKmo2I1dBB0pWTOMv+w6L8rqyzGZcdDnWXOCfqOIuDbTLLPmHJJebE4B6VOmQeVcBcionhZxSNWn2bj4QvTExWk5Y2RPMiY80k1npPoNC5QQhlez2z3XCSmERFwjyd72q83exraCyzQI2AupRnTCEzY+U/iNvO+6kCTIITKJS6/nF42H8hPagMnVLQNJxWlzKXYkEU47vB0//zFD9JYqeSo8HjJLxC0scdm8+Ba36UXqGqP9LCqIy4PcrYeQMwOHHF9lxJU+k0Q8tB/9YP25Nq6j5HxR3CtIteVoCUNDUktp7v8Ni5bDipbdxWWF9hwik7i4Q4OETOkfy9fGrPpBqk693ad0rvzY13kYVws1OCKus4/uosBY670ysfuTV2tY7ERMWlXmjgryRCSpqSyZAIqRROaSJAV8TuzD8RuXxHWZiYsz35M9j51mlp0+iC3smahb2rKsfT80zlcctRaMl9qbQbWaYySRcFQHRVxmhAM+4eP5VYhteYf3L8k4qREOE5AW5zrmtJbHRy6nneejlmeNWX/1+RSPCokr/Uh3qQZgld+vOvvIdVIVZvdwl1ekJy5pbyHSukL6aFeSrOLSCx+WD0U2aIqERFzrLp9C3Zke1hr0UT4bMTfYerR7L5/BddiPhGuAKLeXvB3LZMop4v914io0uT9O37Z6aJk9IjWYvl8+E4sPbBPJsrkLYk8nq63MlZ02Hj8U+f1qNMFY8grTh5CIq9i0wTh2/aIo7k6qqOmkitIHR+u41lw8jvqzR1uL0nP3Gz4bqRMk0Ve1G48IcfEAGb9fS/l815P6rTZ5v5lD5rHdcNvmWfhr7RYYUeU7USS6iYs7ZUL4i5d6iGB0axfu4b8NtZ4iT9FXw+YEc5CyVTQcHBGXP9nBnXkSY9Oa7Oo2EuVtnrmGBkwJvSciS4b73IcZ1sB9R45D2hoze8Slb44lzUqzPaRzlvZO9dnkA6+tK0TRUkTS+8NI0vq2PzeuiMsOYoEf3+PTpXVB5MVlNDLSx+3l2WlPEp6JrPRFI5u4/iFPoSA1kwXPxiwykIGQxjSdP12Inrj0Ni52ba2U3Q2pEiRGMrK9pEuUjFzg0xoWHurvw1E8JOLiNVxfkf1KU032JHf3iTp3d25T7y6fhry77gycKq/hv05c+oXiTuTqf7vvJMNCVuEtxy7vZIfkMLlJJ3T/ppqI6w3f7NV2o98UOQCyGrrTmnmYs3ujKMs/eueMZkunSfd0s0ciu3M39J6IrWePibr6BcjsKp2cJzU2bzO9l6PW0YE71/CGvhO96lLvuefIBnrigWOvQv16I3YM2ksDILuIa8HgLk+TqtN9vFAgXUZxOiaIS6gMSU2mSdPpSCNxte9k8XzeERFnJKcc4Z5OV2hvvSOTkfeZ/SiSPot0RHFEXHyT+jVu+WmJyuGfPAzrGbnM9uvn8d7/I77NabWj6icT5mvg/kvNGIoj1y5wVeiJi9+tt3QPeu9ALjOAnIjG2pyItImDeKaeJC3bJpX2bLG8zMaXlgA0oQ0izN6N3O7nBkVcwRBjCYkkJpK8Pl3cAOfAF1bJK1i5sGcY1I0OqsWJ44SA+GkjbQEyv3ixBrSSuw/w7GgwSVxPaDBaef4ohvHLp1tIqieuqr+PxvZzxx1cKWWTV1OpnG4YR951mtTjuLD1TEjExSUMNg5Ks6qpJq3jYvlq/flj2GLzfOKyKzsOQIO8RTkqwn+duNhBIzcZsG88sNoB2ObxU+kayEl2j0t+9+BJbtqfXr8U98ID0mmyg2mOP2xvLOrZm85ZJfds6TPg+2IV8JJUj1tIUj1357oVBNuvnrgWntqLNgsny/NsE2pdpBw557zAH6f2S0mOC+iJi9Pa2h+Oc6heoDga0Q4gzkQkm8k7zJdd9Gnitq3LULm0YezudRiweoEoz16n3emde0nu+rzmTFt3FxJxiUGb3fBt7yVj0ZLWXLGt8eCdq5i7j1ztbRKHNtu3dha6V2Fkqwq1fqeTirerTcXLea1LVcUi2oWCA39n380NcjTi5SUNCcNUiRLjAtmEvGmZBTtG8GTmWm8vZKbdQEIiLkGUY7rJ9YQuNIFsX7IKsqakidyzJ1h15jBO3rpCPVvoG+kvvpFhO1ZiOO+4QoHfuzVtepNHnysO3b2GIbRo/OTNy+Ic/+iJSyx0vnIOncpUQwfaaSRj0pTgtXTfk8PGM1oXyn3socX12mJr4yJ5C5oUL48K2fJSKQuO/H0d84/vEQTPzj5MuLwmLCJBEZdd9GzkRYOF/7UdtAXUPQS8fx/koGG3juNMJi4O0lZmp2hkS1zchd7Ibu6SXXRZ9SfWVtBJPXEJ11t2lbfZxsx1ZZoMrRfog9MWOsp8O5HQiIurWA3v6ylmHaSDNUOE2adqQ4yv2dxw6r9OXHyxTED1aFcITe1nuAFbIks6V6xr2zeYq/APtD5qkW19lLle3cKlcI4ccDRS1BMXly0wqR/OknRkL1TNVxTbzgWXuLgsT3zqL54YfNskXUO8dGFXp8Eo+lUWkSskx9E0sOomRNbiFuzqTqot2s4qJOLismIC40v2PbnzhbUF/W+VfEWwqnUvKXnyuZiQuLRrKjNzGPZfPmtLWrDOfbCUeHptWoKJ21ZLaUSroz+6ZciKbR0HiXWJIREX1+EBu/nS6XLRs74dLe6cKAl2dhggJpVXaI1kLoffsnWxvKbu1IhL2NO4jm2SoLWrP5qlcFZZ11noaWeHDn0tgHfKWULbzGkezMazYU8p4nKIlUZeZI8kh40A/vvwBrGdLQ5rhPfEx0+B4C2f/OO5wCl75TA3o1dBcSXzXoWsDupEuzIs4UWONjGeXa07Fq8AzxotsOT0fnSlFfVscNWIiwfYGnPHCBVHHRoUR5FNhRfivqQ91x7RWht2p5/DOyrY1Fpj6rdB//J1Qr3msBAXN7KbXHX7kCfT0fu3pQoGtKi4pEtmTKQdMLRdPPQdfgnExdfL6qO+tJ5l1dkjtNzAz/pMiIxdaebcpPA3tGC0mUE1pr/HoX+txKQ9G6xu2FQnO+3e0Z62hmLsxd5+K+aJ9szExQuUWV208tRBK6FQ3WzpXNC/Un10KFoB2roos8Sl9T332C6M2r4St3jxqO0d4rVLrUgiHlm1sVwErpXnPR3bLZ8l1b68rVWLYuUwvkZzoR4Njbi4nTvP/0EX2uZqH0kDL148szZN7eSm6+5doa7dvSRjkrhYEmpP+4Fqalde98QqXZY0Oewn+2bPdQtx9O4tHSFbkDW9CzrRziDdSC2srYcMjbi4Pbb3dqHv+i/aaktTr3M+99uEnsuQSg0Mz4U3Fei8fLZc4sLSUr6MWTG2dkuSlvMi74TeYuKjERe3xdLVsG1/YtOFU7oJrAUuqdLg12qN8GPRilIrwOW1wGsAx+9ci2uP7gc5cpBjV7HMOdCHnh07c0RGUMQVIopB5MWqw8A3T0IsHdGTloQpSSxzjmgzweqz4fvSkwfCJpSdPApDEtOl1xYNcM9GLzTYxbSGxSxy60qRNDt9aGUi43iLBrBY1JB5Q9XIaDum22ASEw4yKdLIQSss13STtohKET+RHBTDUofLsD2D1/BkInWUfqFsWOvzJOjKk4dITo4GrNIKKbC0dp12ufjkHyC2BIuIUw/v+OD3+gVypUofIeegkK43Os/xM2fbEbuDf65nrr3r5LVYTGRpEyXFV7rNeO2VZYLl5Rms9ktD6tewBF74f502/n1PUnRO2uLLbPNy1Aarxy/TFlDOpBLMTISqEbOj8p+br4grTIjpCCxM5b/cQnoPuNU/DkQ92p9OH3ggKTN9iFxVf6zPBBT5KrO+iIorBBQCCoEoRUARV5jhdWB3CXP9sBaMfFVkWHvmcsbdAizI7ZqJjL/pEId26H5IM7tDN8n4a7Nh9Kr6Hbxo800VFAIKAYVAdCKgiCs60f5C+hq0bTlG8x5qNjuW+bLZ+DucdozW/98hcxmVVggoBBQCUYWAIq6oQvYLb5fXVnmTy/Rlsovcef5EeJnxP4HLQ5tj8loM827zX/jtqstXCCgEviAEFHF9QQ9LXapCQCGgEFAIWJcFMA4R/Y/3YcXyP/8fkMN6I6qcQkAhoBBQCMQMAkriihncVa8KAYWAQkAhEE4EFHGFEzhVTSGgEFAIKARiBgFFXDGDu+pVIaAQUAgoBMKJwP8b4vKlf4PNK/br5Coc5tXd4cRMVVMIKAQUAgqBGESAiYs3om6ar0S0XEWUOWfwflyvaV+2Slnz0HYmSaPlZlQnCgGFgEJAIRC9CPBmzkfu3kCiuPHkZsZRfQVRRlz8H1R5H7DMyVOjpGu2qL4P1b5CQCGgEFAIxAACO25cAO/RmI32+SzmkjVariDKiIv/ceL26+fETSipK1qepepEIaAQUAhEKwJ+tEnwjhvW/+pdJVs++ge3iaKl/ygjLr56TepKGCceSrhmUSrDaHmkqhOFgEJAIRD1CFhJ6xJ1FBit0hbfWZQSF3ewk/6f0yP6Nwgc+D99pqX/NqpsXgIO9aMQUAgoBL4oBPjf6bz5+J7G9Fc472f9D+L8L1wqZskTrfcR5cTFd6NJXtF6Z6ozhYBCQCGgEIhSBKLTrqW/kWghLu6QbV43yfvkERnxmLXZVV4FhYBCQCGgEPhyEGCXd/7nlWnpH19mSZ4m2mxaZoSijbjMHau0QkAhoBBQCCgEwoOAIq7woKbqKAQUAgoBhUCMIaCIK8agVx0rBBQCCgGFQHgQUMQVHtRUHYWAQkAhoBCIMQQUccUY9KpjhYBCQCGgEAgPAoq4woOaqqMQUAgoBBQCMYaAIq4Yg151rBBQCCgEFALhQUARV3hQU3UUAgoBhYBCIMYQUMQVY9CrjhUCCgGFgEIgPAgo4goPaqqOQkAhoBBQCMQYAoq4Ygx61bFCQCGgEFAIhAcBRVzhQU3VUQgoBBQCCoEYQ0ARV4xBrzpWCCgEFAIKgfAgoIgrPKipOgoBhYBCQCEQYwgo4oox6FXHCgGFgEJAIRAeBBRxhQc1VUchoBBQCCgEYgyB/wNvmE8EZmfGzwAAAABJRU5ErkJggg==;" vertex="1" parent="sqnoS2JNhmN8ingZOf4Z-13">
          <mxGeometry x="12.610000000000014" y="40" width="155.53" height="34" as="geometry" />
        </mxCell>
        <mxCell id="sqnoS2JNhmN8ingZOf4Z-17" value="" style="group" vertex="1" connectable="0" parent="1">
          <mxGeometry x="587.5" y="320" width="215" height="90" as="geometry" />
        </mxCell>
        <mxCell id="sqnoS2JNhmN8ingZOf4Z-15" value="Tagged Release&lt;br&gt;Ready for prod" style="whiteSpace=wrap;html=1;verticalAlign=top;fillColor=#DAE8FC;strokeColor=#000000;strokeWidth=4;gradientColor=none;" vertex="1" parent="sqnoS2JNhmN8ingZOf4Z-17">
          <mxGeometry width="215" height="90" as="geometry" />
        </mxCell>
        <mxCell id="sqnoS2JNhmN8ingZOf4Z-14" value="" style="shape=image;verticalLabelPosition=bottom;labelBackgroundColor=default;verticalAlign=top;aspect=fixed;imageAspect=0;image=data:image/png,iVBORw0KGgoAAAANSUhEUgAAAdgAAABeCAYAAACARwXoAAABQ2lDQ1BJQ0MgUHJvZmlsZQAAKJFjYGASSCwoyGFhYGDIzSspCnJ3UoiIjFJgf8bAzCDKwMlgwWCUmFxc4BgQ4ANUwgCjUcG3awyMIPqyLsgsJaXzsSx+Xr7//k1Wvls96RamehTAlZJanAyk/wBxUnJBUQkDA2MCkK1cXlIAYrcA2SJFQEcB2TNA7HQIew2InQRhHwCrCQlyBrKvANkCyRmJKUD2EyBbJwlJPB2JDbUXBDhCjSxcTS0NCDiVdFCSWlECop3zCyqLMtMzShQcgSGUquCZl6yno2BkYGTEwAAKb4jqz2LgcGQUO4UQy37EwGBpzcDA9BkhlhDKwLA1hoGBVxshpjWfgUEwk4HhMH9BYlEi3AGM31iK04yNIGyeIgYG1h///3+WZWBg38XA8Lfo///fc////7uEgYH5JgPDgUIAH/NdijnqR1EAAACKZVhJZk1NACoAAAAIAAQBGgAFAAAAAQAAAD4BGwAFAAAAAQAAAEYBKAADAAAAAQACAACHaQAEAAAAAQAAAE4AAAAAAAAAkAAAAAEAAACQAAAAAQADkoYABwAAABIAAAB4oAIABAAAAAEAAAHYoAMABAAAAAEAAABeAAAAAEFTQ0lJAAAAU2NyZWVuc2hvdNKzeL8AAAAJcEhZcwAAFiUAABYlAUlSJPAAAAHVaVRYdFhNTDpjb20uYWRvYmUueG1wAAAAAAA8eDp4bXBtZXRhIHhtbG5zOng9ImFkb2JlOm5zOm1ldGEvIiB4OnhtcHRrPSJYTVAgQ29yZSA2LjAuMCI+CiAgIDxyZGY6UkRGIHhtbG5zOnJkZj0iaHR0cDovL3d3dy53My5vcmcvMTk5OS8wMi8yMi1yZGYtc3ludGF4LW5zIyI+CiAgICAgIDxyZGY6RGVzY3JpcHRpb24gcmRmOmFib3V0PSIiCiAgICAgICAgICAgIHhtbG5zOmV4aWY9Imh0dHA6Ly9ucy5hZG9iZS5jb20vZXhpZi8xLjAvIj4KICAgICAgICAgPGV4aWY6UGl4ZWxZRGltZW5zaW9uPjk0PC9leGlmOlBpeGVsWURpbWVuc2lvbj4KICAgICAgICAgPGV4aWY6UGl4ZWxYRGltZW5zaW9uPjQ3MjwvZXhpZjpQaXhlbFhEaW1lbnNpb24+CiAgICAgICAgIDxleGlmOlVzZXJDb21tZW50PlNjcmVlbnNob3Q8L2V4aWY6VXNlckNvbW1lbnQ+CiAgICAgIDwvcmRmOkRlc2NyaXB0aW9uPgogICA8L3JkZjpSREY+CjwveDp4bXBtZXRhPgpm74IqAAAAHGlET1QAAAACAAAAAAAAAC8AAAAoAAAALwAAAC8AABeu+RhJ5AAAF3pJREFUeAHsXQd8VEUe/rYl2eymJ5BQA0hHEBGxIIjY8A5OxX6giJUiUhTPAqKioIiKoCjK2UWxgxUPTkRAadJ7ICQkpGzK7mazSbbdf2azL7tLGimXIP/3+yVv5k3db+bNN//y3lPZ7XYP+GAEGAFGgBFgBBiBBkVAxQTboHhyZYwAI8AIMAKMgESACZYnAiPACDACjAAj0AgIMME2AqhcJSPACDACjAAjwATLc4ARYAQYAUaAEWgEBJhgGwFUrpIRYAQYAUaAEWCC5TnACDACjAAjwAg0AgJMsI0AKlfJCDACjAAjwAgwwfIcYAQYAUaAEWAEGgEBJthGAJWrZAQYAUaAEWAEmGB5DjACjAAjwAgwAo2AABNsI4DKVTICjAAjwAgwAkywPAcYAUaAEWAEGIFGQIAJthFA5SoZAUaAEWAEGAEmWJ4DjAAjwAgwAoxAIyDQ6ATr8fDX8Bph3LhKRoARYAQYgToioFKp6ljy1Io1CsEyqZ7aIHBuRoARYAQYgaZBoDHJtkEJ1p9Y/cNuN0uxTTN1uFVGgBFgBBgBfwTU6grp1Z9c/cP++esTbjCC9RGq7+zOt8KdYYIqvwgeeynAquL6jBOXZQQYAUaAEagvAqQaVulD4Yk1Qt06HurYCFmjj1x95/o24yvfIATrI1VxFtKqe08qcNzka4PPjAAjwAgwAoxA80OgDZFsz2QIqdZHrr5zQ3S23gQbTK6eLQfgybPKvqlF59skQB0X2RB95ToYAUaAEWAEGIE6IyC0qZ7iUrjzLHAfypD1qOIioDqva6OQbL0I9iRy3XMUnuN5JIKHQNOnExNrnacBF2QEGAFGgBFoTAQE2To37iUTZhlUbeKg6tmhwUm23gTrUwt78s3wbD4k8dBe0J3JtTFnBtfNCDACjAAjUG8EhCTr/H2frEfVvzNUsVEKyTaEqrjOBOsvvbpcLrK7HoMqI49UwvHQkvTKByPACDACjAAj0NwRcO5IgZt8hjyt48ge2x4ajabB7LH1Ilif9Op2u4D1ewHSbWt6d4SmbUJzx5T7xwgwAowAI8AISHuslGLDQ4GLe5AEq2kwKbbeBCulV7cbqtU75KM4usvOkW7QPG6MACPACDACjEBzR0DYYh1rtoPEVniG9iFyVStSbH3VxHUi2GD1sCBZtSBYOkL+NqC548n9YwQYAUaAEWAEFATKvvtDht1EsEJF3FBq4noRrMvlpudeyf5KEiwTrDJWHGAEGAFGgBE4jRDwJ1ghwQo1sUajlr+gPlJsgxCskGA1a3bKzrAEexrNKu4qI8AIMAKMAHwE67qst5RemWB5UjACjAAjwAgwAg2AABNsA4AobMf1EfcboAtcBSPACDACjEAzQ4AJth4DEkysNpsdBUU2+iuD2e6AGxoYtR6c06W19CCrR1NclBFgBBgBRuA0Q4AJtg4DJolVlCv/uG56Sgr2p5/AsZBWOGaPQL65CGptKFontYDp8CEklqbjoTFX1qElLsIIMAKMACNwuiLABHuKI+cvtaabC3H8yDGYQwwothQhMyMTawtikaVuiV6tI9CtTQx2/rYVaQe24+eX7z3Fljg7I8AIMAKMwOmMABNsLUdPfNpdJb49S1JrobMMmcu/RMGGTSjOykULXSi2DB0Mk9GAUPJ8zozug4RuPZAU4sCKr37DiZR9WLeACbaWUHM2RoARYAT+EggwwdZiGP2l1rT04zj+zBwcJmL9sbgIW46m4ILMfMw9vz++mXAfOnajr/2UFSM2uQVULbpi6rPfIro4C18/M7oWLXEWRoARYAQYgb8KAkywNYykP7nuPHQQ6teX4uvjGdiUmITDW/5AdkY67CV2bA6Nh/Wp6dCP/AciioqQGFmCb446MG3JdtzRMxxzxo2ooaXTO7ls1VZ4Ssrkj9D26wxN6/jT+wdx7xmBpkLA6Ubp9943AIkuhAyh18RG6JuqN7Vq151vhXPLQWj7ngV1QlStypwJmZhgqxllH7mKN0pt3rsXxv0pWDHvRfzUuSvSN/+Owvw82O02RGq02DbsbyiacA/iB16MGBVgsVmw6P3lmP1dBpY/ciOGX3J2NS0BRbM+QNlvuyrPo9NA27EVtN3aQdcrmSZxJ6iijZXnbaKrpn7j4TqYL1uPfncCQkde0kQ9adxmXWk5sExaBHdBkWwodsUzUEUZ6tWo2JhYp74JB333WByRT46G7rK+1dbpzs5H8eLv4KAvdjh2pUKbEAkdfRAjhN7ZHXrzpdWWrTLR4UTxG9/C+cd+lO6kvpBJRNc7GSH00Wj9uOFQhYVUWbQ5JbiOZcN81/xKu6SJNkDdviU07Vog5JLe0J57VqX5mvKix1aKnMQ7lC7E//48NPQ1luZ6uNJzkX/Vo3CnF0HVMgxx3zzVrPv7/8SRCbYKtH3kKpI3/PorPMndUfrSi1jyyxqsLHNAa8pBmd27yN7rMuCNfn2wb8UHSAzXkxdxPnbs2YsN69Zh3c5srFy6EFFR1e9ALWNfhP2zLVX0JvCymMSRj9+CsDFXKZ7MgTn+/7EzgWCdmw+i4M55cB+zKgAnpC6p1zeK3TmFKBw9F44NqUqd0e8/gNDrLlbiwQHZj7vnw33EHJwk4/pRFyHi5ftPiRDd2QUQc7D015RK69QNaIeod6dDQ5+NPJXDue0wHFsOQNspCbqh555K0TrndR1Ih+m8h2sur1FBf30/GGeOgjo5seb8/6cczY1gaxrD4oVfw/rYJwo6hilXw/j0GCV+JgeYYCsZfY/TBZVWI1PWrluPMo8Kf+TY0fXLZdCtWYfp2hJkWa2Ihgu3lbnxIuKQ+s4caG8cAUvqEaSkZWDfvoPYsWMnOnfshCceebSSVgIvnUSwBu/7KmUuhwfUicACFAu5rAuiFoxvFovDX51gS79YB/OUJfAUOALGoT4E66JvHRfcPpck/4KAOqsjWOfWQ8gfMQseC33KkQ5VQih0fTrAk1sIx+5swOWdJyGXd0PMV7Nknpr+eWwlyLtkClyHyvtBc0/Xpx2gVsG5Iw0eq7ctdfsIxK2df0obivyhD8OxKR3htw5AxJIpNXWlQdKDCVZsSFV6r/Ttybcp2Pka03SJRdx/50EVWT9NhK+++p6bG8HWNIZlP25GwY0VGoOo1+9B2Oih9YXhL1H+zCZY4RXsdNIq5SUzsTSpPG5Ap4OTCPT7F+ZDM3k2tq36CfacFOQcy8KIdauRuPsocmHG2dAiGYk4svQxqEb+HdYjh5F2IgepacdxcN8BHDhwCK+9/Ao6duhQ42TxJ1hNzwTE/76wogzZZFwHj8NJ7dqW/hAg7WjPbYW4/7xAfdZW5G+C0F+ZYItfXA7r7K8U8vKHt64EK2zWheMWwpNT4l+dDFdHsIW3PovSb72mBG2/1oj5/Emo4yNluZJPfoF50puA3UuysSsehW5In5PqD75Q/OpXsD7+qbysTtQj5uNHoe3fRcZdu44i/5bn4E7zSu3G6cNhmPHP4Coqj5PKOaf9HZKgm5Jgo98Zj9AbBnn76PaQ5H8CRS99AfsH65V+68cMROTCiUq8KQPNimBrOYb2t75H6Zo/EXJRT4RP/Eez0aw15TiKts9cgiW7Kr1eqVL87Zu34LtRdyLltvtQPGI8dm36E0jbgLgwB3ThkWibeQTt3U6073IWIoZfiei4aBQcPoCM3Hwcz8xCRlo6du/Zj4EDLsKUSRO9XwWqoi1fB6olWF8mcSaytc1dhqLnVypXjY9fC8O/blHiTRH4KxKsh0wB1gcXw/7hBgXSsGE9UfLDHiVeF4K1L/kOlic+VIhQd35buLILFdVzVQTr2nkEposfq2h7G0mTnVsrcRGwPvwm2VH/K6+FDOmMGLIRV3cI+6+pP83RVIvMFvXqGITdeXVAkdIvf0PhHYvkNSENJmx9rVZ2ZxdtCE0XerU3zYZg/X6Z/2ZFaAJapLzbLIihORFsU42h3zCd1sEzk2BJBQxSAbuOHEHZsk/gadceToq7zWYU/7oex75aheXJbWCZsxxZxzJxwmxFKUmrnUoPY0j3BLTq2Qttk2KRFBcBbYEJWcfTkJ1fgKzsPGRkZCDl0BGY6W1On77/LsLCwshXpOZ3FdeaYMunm/mmZ5SFXhWhQdyaudB0a3vSZPSUOuDanQrnzhS5iGtpQdaRl29lNifn7/vhysiFtksbaM72St3uPAucG/fBse0QNG3joR3YC9rObU5qp1YES7thJ6lFnXuPwZWaDU2HltD1TIamRzKNR8VmRzgSOTcfkG2ojHqEXNFPqitPapQuOFZvg7vQJpNCru4PlSEsIJuTnIBchzPlNeEkVpWziMdiQ9l/d9AGhr5BHGOUTkbCMzJvyENeWyfZ6yJmjETYyIHIPXuy0kZdCNZ/7PTX90XE65NJRTtZUdFWRbDWh4g83/SSp25gB8T+MEfphy8gVMh5l87wRRG39UU5nsqFoIBQfReOeU1eVcXokLDrjZPIU2w0TL3ug/tEscwX+cod0N81LKimwKjA0/72D7A++blMCLu6BwwP3aRk0pCzXvBYCcct5/YjcO5LI6KjKUFzQ0vzUN0yRilXm0CwijhAgvWrQEr897yhXEnY8QrUHRPhuw/U8VHQDe4t04XjVOnX60nVHIrQ6y9RtAYysZbzWmnIL+DOzINj415yVDsKDa0pugHdoaH7qyonJwdJiT4HO10feiTwrFZ+tYE2Sllw0BwQhyoiHCFX0r0TfJAU7zycAbFhcx7MILt6ArTCefLs5ABNmKewCHbSmFlnfSFrCB7D4Gp9cW3/rpXerx6rHc5d1CatR+I3aGm9Evd/8G/w1VP27e8Q65duYE+aA7HS6c6xbre06Xvok6airG5Qb6iMgfe8r3xzOJ95BFsuuZYWkVv5sOsQtyWFxkHY1UiihQfZdGf/G0X44qrbEXbpzcjMzoFbFwI9Sa6h4QYM0e/D4I56JLU7G+FaJ7JycpCXb0aOqQCZmZk4np5BquHDePbJJzGIPIqd1J62BulVTIRTJVjX3jSYLnlEsc1GzLoB4dNuEFUphyCfwilvwn3UrFyTgRAVDPcOheGJUQGLnGXsPHK02gqQDS7u1xfg+GUHLDM/AmwCm/JDr0LkrNugHz/cd0WeayJYx/rdME97E649uQHlRER7ThKiXhqnqCWF44+p7wTFVlaZVCXK+ZODrndLxP72ykkSSNn3m1Bw80siO1SxIUjYufgkAhFplnELSFLdKIIwTLsGxlm3y7Bj4x4UPbcMhvuGI+TvA4hss5Dbp34EK36fdcKr0J7fjUjnRtlnU9/7aSNQKNusimDNNzyFkp/2yTzGJ66D4ZGbZTj4X26Pu6VHp7ge8+lUhFxzfnAWJV48/zNlAQ25vCvZbZ9S0vwDFnLusn9Oc4MOw6QrYXx2rH9yQNj29IcomvdtwLXgSNwvz0A8ziUOIbHZZn8A25LVynxW8tN8M4wfJjU0tfViri3Blv1AtsOb5itNxa2dLb2KlfuAUhL+fAklKzfCOvMzJZ8/pqcyr5UKygPFi1bA+vQyRZMhLwvHq9suClBf+3sR518+HY4/aANCR+T80dDf+zcZ9v0reW8VzBP/LaPavkl0H7/sS5JnN202C8cvIFI/FnBdRMQ9FPnqRDkutRnDkyoov9Ai6z1aV0IDkkve+RGW2STMVGISCR3RG5Hz7oO6VVxAmdye90jThKZzDGKXz0Ah3TP+zoAis6Z7PKLJtq89p1NA2eYSObMItvxNTAJ864jrkPAzSSySXJ3krgScIILdTeeFYTrsGjIK6NIfZUSQRoMRsVGRSG6ThA4JEbhavxzdE+OwNTUCuSTh5RdakZWVhZzsXBxOScU1V1yJqbVUDVNz8jhVghWFTOdPhGufSZYPu6k/opZOk2HxT3r2zSC7WrnTiyBNbdckuI7mKI46Ykca9dlMpYz/wiJIz7n9hDeNCDnYySpqMTkyjKpwZKiOYMUu2DLt/Yq+UK2qWB08+WJjU37QQhpFb7sKu3WIvGCZsBD29702MmFrjPulYiH0FSm4bhbK/rNfRitbbGQCqdRN59EjRCle8opaOJa8r6/0VSHPYmed2/NeLy60wCVsJdVrp0DJwFegIQjWV5f/uTYEm3/hJHJkypHFqtp0iMS8wVPh3OaV2qvEpbxx65TFKH57rYyF3TIAUW9NKU8JPFmnv0WPBREB0qEfeS4iyaO4qkParJ/6sqpked1HsJ6iEhRcQaRR/rtkos/Bz29jJ+ZA7I9zauUZXVuCtc1bjqKny/tJ869FGhEDPYrkfx+EjxuK4qVrAuZ/3Jqn5WawLvPaB0rRk+/B9tIPvih5LKqgTjQqtu6KBJA/RsVjOvUhWCH9FYx6ge67MqV6sen0lJIfSjnWwgYfv3URhBnDWsMYKpUEBYIJ1kwe7yWfbq7IRfeYKlKrrEMiQbQbu/LpAC2cj2BFujBNeLJLRFBi5b8eSSe1jQugCtF505vR/zOMYN00Ump4HhgP/Ser6OFTscCXSnK1ELnugxObKLa4ZQdYB/0TrsT2MIaGIj4mGp1atcBZZ7WFxmCA48Am9HN8DKurA47mauh52Gzk5xWQc1MGOnfqjEXzXzjlIa4LwfqrGnV9Er0SHLXsTsmEadDDXgmQJnPks7ci9JZLpfenx2yD5R7alZfbEaPfvl95btJ/YRE/IHR4bxgnj5TP3boO0c6XpDzntgz523S9WiB2/QJFFVQVwbqOm0j9ORUek/em1o++GMYnbpO7VZFmm/mOV2qmWtVJ4YjbQGo6ctoRzjWmiyq8r+NWzYT2wh6ybfFPqMJyzyEyoA2EtAtuJ9VmFaoi27Mfo2juClm2Mruk/66/Ju/bpiTYnHajlUUpZtlkkqgvUPDwDxRcTxuPn70bD8ODV8E4+07/5ICw/xwyTLwcxjl3B6T7Iv5kJB7ZiRWOddUcQr1om/U+OeX9KnPpb6DHYebfr5RQC49dMgsUPfo2bIv+I6+r2xoRRY8XSccs8tNy/LwNZno+2KeaNv5rBAyP36bUUVWgNgQrJLm8YY/DnWWX1fhv4oLvA0F++mv6QE3PzrqL7IiYPZbMSbY6zWvRmLg/cy9+SCE1w9hBMNAYiZdJCDW5ZfJixZFN5G8QgqWNZt5l0+D807tpFs6RUQsmQEvPToNUxuLFFrbFK2AYOwyhNw4SzaKmMZSZ6J+b1Mx5V8zyReFPsELNW3AraZbEQRunyJm30sb8MrpXw6W62DzpNWUzGHxv+hOsKGucdi3CbhpM0rEeJR+vJq3CcmXT3lw9l88cgnUSmWp1UH3yLkLfeR4lJS6E2WjRJ5Ito41Rqt2Fg/SZuZUqDVb2GAzjpSOhCwtHQkwUurRugVadkqE/9Ccu+HgxXut7BU7QaxJbWP9EQqQRhZZScm7KRFJCS3ywdImcS7Wxu8qM5f/qQrDWqW+g+K1fvDXQBGx54iOpbhQP2Zcs9+4Yw67phahPn/BvCsLuk3sOeUySt2nYVd0RRZ6o4vBfWGS5jx6Ti6CvcLB9L/bbxxQbVVUEa3mAdsPv/iar0F3YHrGrnvdV5z2TViH/ogcVCcbwwBUwPneXTCu4dibKVh+UYf2oCxG5+EGlrO2Zj1D0wkoZr44YRAZh0zX1pbLiUSfacMTvXCBfNOCrrGDEDLK/HpLRml6S0VQEK+zBue3v8XUZsT/NgI48Nis7/OdSdVKpKJs3mBbd8k2TcQapnadXrnYW9lTLlPdkc+oOUaRqJ2/lGg7rIyT1vu6VeitzchJ2TVN/UreXez3HfP4QQq46L6DW0uVrUXjXYnlNFalB/PbXa3xTUDDBho8fKl+WISpx51tI65OG4i82EIGQ5CYOItDYL8njutze6n8fiPkS/cEk2mxe6M1b/r8+81q8qMT+jveekE8BrPWaMHwNiMemchLH+KINQrAlH66Gedxbsk5VtBbxWxbWyrZd0xiKCsXjZqYLHlH660+wpv4T4NqfJ9Mqez5WvKTC1G9SxRxYNkWaYkQBf4KNeu1uhN1+udKGCPgeHxLh8AmXI2Ju5ZtDkd5UR2MR7P8AAAD//zUorm0AABrGSURBVO1dB3wUxRr/317J5S69UaSDgCBdRHoRgYeKKJanoCAqSpEiAo8igvQmjyIiFhBRnk99PlGaCqKCggIC0lFQQFp6uSTX9t43s7ll73KXhARCeJnNL7vTZ/Y/s/Of75tvb3U5OTkeXOHh8ShZ3G4ZsuyG2+2GfusBXorp7lZXWFr+5PKpP2BZ+DBgygEynYDdBU+WDHuOG/uzXTiR4sTbiWacvqMv6rTrgnBLKGpWiEVYpBkpOzZh+MxX8U3D6ljWsRfsGTakJaciPvs4LJIDN1WujpXLl8Jg0FPbZUiSlL8BBYRkDJyPnI928xT6hvGI27mkgNRKVEa/2cj5bJ+Sp24M4vYs4+6kFoPhPp7K3eEzH4WpTQMlg+acOmAe5D8yINWMRPyBN3hMxsB51IY93G0d3g1hMwZqcijOpOZU9gml7MjFA2B+sgePSGoxhOpM4e6oVUMR0qc9dye3HwXXvvPcHbFoAEIHKul5QN4pe8HHyJzyMfcZ29dGzIYZ3O34YhdSH13I3boIPeIOvA4pNgKQPeDt+D0N0OsQv3sBpDqV80oLfEl/eBpyNx7ikeFT+sAy+iHudv95EUlNRgJuD6SqYYjb9zp0JmPgQihUPnkBiSx93hH/xwqlTd6AYl6Tmj0H9290P3RErX4eIfe39S2J7vli5b6ATebh0R+NhqlHS980eT7tvVqG3InwOc8ETMcCU+9/GY6vj/F468geCJs2gLv9T9kLP0Hm5I94sKH5TYj9doF/knz+zHFvInvZFh5uebQVwleM8klj/892pPVfysP4ONy/HNDpfNLA6cKlugPhSXLw8JjPxsHYpZlvGj+f+9gZJN02xi80iNekQ9jY3rCOe0RNoH0OQu5phKi1E9U4r6Mk41qbN3zWY7AM6+Utll89NjsuVeyvhsXtnAM9zTvsSOk6Fs5dp7k7YsHjCB10N3d7T7nvfon0Ye9wr6FZJcR+pzw/WSOXwfb2dzzc/EhLRL412pulwGthfcgyuw/9iaQ7xqnlJFx4FzprCOSkDCTWHKSGx+6dD8PNVVS/15H+0CvI3XSYe8PG3APr5H7cndjwGcinM7k7+sMXYOp5uzcLv2a9tAq2f27i7pD7miBqzXif+LLgcazfxZvh7tIYer2eeEFPV4UbdP5j/QoarCuLBGtcNRh64z4gjcg1lyYqIlhkO5GW0ACGPhOxb8dOTH7vB1hbdEPdxs0RTvOsPSsJh9e/jzHfb8eJ6ASMv60brFmZcNntSKX8mckX8HyPRpg7dTKHpzjkyjIWh2BT2o2Ec/8FXq93gHkyc3Cp8pM8rKinhOT3OKloJ5ZgBJvyt/Fwbj/Fi9Y+DAEJ1iXjYhV6WPJIIWbdeBg7N8nXLPsn3yNtwGs8XKpkQfxxZYLgRHrH83AfSeJx4dMfhmXEA3Bs3o3UB+fzsJC7aQL8V/4J0L8S+7ofkdZ3EQ82NqmImO3/5G7bnA+RNf1T7raO6I6w6QVjd90IllqYdNtQuI8l87ZGvvY0zE905W7/U8qdY+D86QwPDp/5d1ie7+2fRPVnDF2CnNU7uD+0X2tEvD5CjdM6sia+A9viL3lQyL2NEfXBBG10QHdhk7Nt9r+QNeO/SpkdaiNq/YyA5aS0HQHngYs8LmJOX4QOuTdgOm9gkQiWiNXUsR4ipjwBfeNa3qz8WuhzUJJxTQulS9UfhyeN5h46oteOgukeX+HhWhBs6r2T4Nj2G68zbPx9sE54lLsLOxXWhyx/MIJ1fn8QKT2nK1UQ3hUuvAcYDfmqzBy9HNkrtvHw0N5NEfHeP7i7MIK1zVyLrFmf8bTmnrci8sNJ3F2WTuWHYH/5BGbjYgX7VCJYF62U7TJcfzrgHrANSz7YiHVrViDDGIUeA8cgVA+cPbwbxz9ehcczMlCry1144LQNVoOBuFmHFIcLsfZMTB39NJ7q052XW1xyZZmvlGDlS2lIajoUnkw3rzts3L2wTuoLOSUTidUvSyymTnUCDmqeiU76KnGIWDyMewudWChVau/JcGw5ztNbh3VF2KynuTsQweZbwW6bBkOLm3l67cnx5R6k9pmnBJFEmnBptSpF5iz7HBnj3udx+gZxXLLP6D8XOZ/+wsOiPxkDU7cW2uICu2lSTCQpkUnt7Ij9djoMzesgqdUwuA8rBB5sha0t8HoSbOp9hP1WBfvwqQ/C8sKD2qap7sQmz5Kknc79UWuGI+S+Nmqcv8NnkvpbQ0T++yX/JNyfOWghstcqq3HLYJKK514eYwEzUGBhk3PmmDeQvfwbnj2YpMgiU3rQom5H/kUdzxjg5E+wlmc6wdiESFQnQYoJh560HVLNitCFGAPkZs9iwZqckoxrT1auz/MZs/klGNs09GnHtSBY7WKcabUsz9/nU2cwT2F9yPIFI1ithkIXZ0LCqdUBq8mashq2BRt4nFaDJQg2IFw8sMxJsNLJd2CsdB4yakMmcpRcNkj2dDgsd8IT1QJ/69oCR6U6yD75K+rUb4oakWFI+Xoj6mSkYpq5GtrUvxmndCH0jEqIzLGhS/IZzFi5GDU6d4DsckNHYn9JRP4rJdisEaTyeec7tQdiNkyCsf2t3J/YaNBlItn6Cgwt66rpCnIUNrGwvCmth8N58BIvJmJ+P4Q+ew93ByJYFpFI6j35fDZPE0jNwyJy12xB+uA3eRp9vVjE7VakWRbAJPLEpoPhuZTL46PeHYa0Icu4VGy8NQExP5BUWkRVS9aU9+hBXs/LYdKquVcbJN/5MvebOt+M6HXTuLug0/Uk2IwhJG2+t4M3L5gUydvXfBRXebOE3oVEsHvSYi9VtiLu1+Xq4kbNQ1s3XHrO2wIoTCr25itsctYunoytqiHm67nerD5X7diKfGMQzI918Yn39/gTbNTKIQh5sIN/sqD+ojwHJRnXl6qRBMsW+XREvT8CIb1a+7TlWhCsdjspmHbKpxF5nsL6kCULRrDuX08hqc1ltW3C+VXQhZnzVaMd16FPtEXEa8/zNIJg80GlBpQ5glVb5udwnD+CCNd87E604eFJHtSJDceZI78g8hCFQ4+ZiMLH8dGYa4lEq1wbmmdl4UlbJpoO6gvXovlwOhwwmkx+pV6590oI1vHFTqT2J2JxeHhFof3akGpvuFqpdl+tIElHzZDnKGxiYSv3pMZEdnlSs1Z61E6C2j3YtLsnwv7d77yGsH/0gnXiY/7VInPMCpJktvLwQCrfrAlvw7bkKx7P9urkU4p0piX4fIUGCNCSj7FRBZi6t4Rt/hc8ZeSbz8H8904BcvkGXU+C9ZH0rRLtnS+DlBDl00CtRGpsXAEx35MqXPLb19TkkJOpT28bpu5xBprwnd8eQMo9M5VcVG/cT/+EvlqCppTAzsImZ+c3+5HSaxbPzCSc+P20/x1h9SlMvphKe95D1W2G2CBaEG2m0iDYkozrlDak8v5VUXmHv/wALC8+rG0+CiJY7bNtHd0TYaTi1h5B92CnrlHHurFNDcRsnq3NFtRdWB+yjMEI1mN34lJVal+eOU7M5xNg7NQ4X13JHchO4xfFTsO7DcQSCYLNB5UaUAYJlpERqVO5IRVddWZ4ts9AaM1jQK2qFKXD4b2XsHJdJA6u3QDjybMYWM2Khk0jMWddGpogF60goT6Rron+7Xu2IqTBLWT1ItMEJqk3XlxHoQRLezeu3/9C7mvrVGMFVpdUPZwMGV7lqi9v3TnvbELGiFXcK1UMRcwWMpLwmxAZUTj3HFeMkfImYC3Bhj7QDBGrxvpIh1qjAqlGBFfXMmMGdgQj2OwlnyFzwlqlLdWorVvnQqoQzf3s5D6TiOSOL8KTaOdhkUsHwty/mxrPHPIfZFjUgqSyvAUFC9MlmBHPDJLCQ5m3yEfqA1Pg+OooT8+MydyHEsH2feMOkORmLnyhVFSClS+mwDbn30QMubCM6gN9fRpjBRyFGjnl5dUaufA+YsYqeftarj0nyChslqoxiFzxLMyPdlZrtX+4DXYyujC0rEeGNaQizJP8syathG3RZp6OaQWiPp0CqWIM9zMCTn/wFTh2n+X+0CfbqVsKasFBHNp9W3OPBoj8aLJPSqYuTSKy8S6YAu0NZo1/C7alX/N8+lviELt9YX4J26dUGlN+Rk7XQoItybjOGLwYOWt+UO6pfixit73KjYJ4AM1P/DnL6w8WpjVy0horGZpXJg3FqzwbO3ly7MgcvAg5n+zlYVojJ+ePh5DS7bKGJtDeL9svNJAxlVSjolpmYX3IEgYjWBaX1ncm7OsOMCdMd9VHNNsn1ezDcmHhUVoEsoMt3r6luaqe8qwUm2DJMM5GhpPuI3/C/EhnH+MoT66DP5fyqXMI7d/dxyaEjUfb7LWQzyUh9JmeMLb2Vd0rjbyyc/nZg+W4MJJVVvPykY2wZM0H2nYkHWUc7cmS2jPchJd6rMHOr85hRF0retx+O473vh+ePqMQBwP9ARZ44CCp1vjXLiI1IgpG2EVUURbUNVqC1UVRXQ2qXE5OKmjXbxfhSXFcDiMXk+ailgyFsaPfqpDalNJzgmqMpKtghrX/XVRmNXjI+tm+4xByv9jDpQKtoZKWYFlFbFIMua8tdJYQ2L/aq04KLM7fgjEYwYL2PpO7joFrz18sG/S1o2ChtuhrVSKr2XOwrdwM+U/FUtDYvhZimKFLADwzHieL6f/u42WwU1H3AdUMeQ6tQZU3zjK0K8JnK3vJ3jDtNXf11/A4FZUeI5ysaZ+q0eEzHqHJUVF7mYi4vAYzaf1mwf7Zfp6O7x3vUqxlvRmZoZb7bKLXi6w5H6nEaH2qA/SNaip5q8STpH2bmk5rWc0CTS2r0NZAI7A9+dzNe9WFCrdE374IMCiLP9e+35HcfqJajlZiZ4uBpJYjVLUl66OQu5pRP0iwb9mrWqSzCTB+x3xItSur5RTkyFmxHhmjybCFDl24HtYhPUk6yyE1oUXVZGj36Vg6Zm1s7NSEW4o7qO6cj2mc5h1ajYk3LNC1NAi2JOPafZCsbtuRIQ9ZrrPDdFsVWuh2oDcasmH/dr/63HrvTUuw9k93IO2JJd4o6vvaCO3TDnJiOhHZj6pkzBJoCZb5tfvorC+tz3SDqVV9yBlULxka5n55BPqboxHz5RxIcREsC4rShwURrPv0JRp3o2nuUp4f9oyH9m7LLe+de0+QsECLpzwjSH+JvLgEm710HTLHf8Dbz0l710Loq1fgfq2GRxdtpDcvlkKKj+RxWk0ZX8CTVXsglbZScNHO5YdgPSRp0oSBi9vgyg6Bac84mrhooghrRORaia4OvPnUB/hm5QE8/lg8uvZqifTuK7Fl+mR0X7CSSFUiyZU4mAjWbo4FTv4AKZrUc9eAYAvtOjIEsvZvD+sr/aGLtAZM7jpxFukDF6ivyARMRA9Z5FySGPOsUX0Ilqz+tBKjNj8382fWppqVaFCCpYxsQkkf9KrPw68tj7nZqx/Rb70A6eab/KO438cike4/9ud5AU3+A2bWBHocTjIOGwz5TJYaGrdrLvS0+Ah2XKo9QN0DDpaGhWvVW8kdR8O1V1lUMHJJOE1Ek0d2LK12Zc/8wY5AKnOmBsyY8C4tlkgTE+Bg+5mRK8dAXzVejdVaUbPAsEn3+7ya4vr5OFKfXqAaR6kZ8xwSaR+ilo9Q9/n94wP5uXai3Qvq5KqmobEVu2mqahvAjVyWbAw63tgkGfYCWb6OfUQtoiBHqRAsNaAk4zpzLL3C9PqWgLfBrLmdR06ri1ItwbIMfPH8/cnAeUnzlPOfX3icP8EydXta31nqaz6BCjB1rEOvu/wDuqgwHl2UPiyIYFkhbBGVMe5tyBdyAlXJw0Lvb4bw10deluQptLgEq1Vrs8JjNpF9SlvFPkWrPWBxcTtmqoti7T41jzu4SCVm5i/OUY4IVpE03eePQtpIVsK1k4DbqxNBkqQY3RNH1+3ErN7zMWhiTbQd2QXHk0dgywtDcNeG3SS9yiT3ukmC1dM/vaNLPt3Rn4DqLL9SbnHA1+bRSrDacO6mCcZQryIMdavCSKpGE0kshtvr5UvmH8DIJHveR8j5/Ed6d5XuN0/FylSi5k6NYBn+APS30j3kHVqCtTzXBbpQE7Lf36aQC5Ga8dYKpHLpFPC1j4IIlhXvVc04Nv8M52+kLWD7MnRfxtrxCLn7DljHPORD2N42ea/ObbRfd+8s7jUXYO3qTV/QVavq5lLzhpkFJUdxCDZ37Vakj3pL0RIE2HsuCcGyxrp2HYVt3odw7P9DmbhY/zRIgIn2uKyTH8+n7mb7eqm9JvHXd/R1ohD92Sv5tw1Iks2cuJK2Dk6o7+RKtSIR0qIOrFMH+BB2gYBpIh0bf0b6uLdUNTCTGkIfasvJUrtV4PrpGDJnrYXr0GlVkmdGV6ZG1cg6vh8MTWtrSi3YWVoEy1pRknGdvfhTkuA2KYuaUHpt6NabyA6gM3+3NXflJsLtXf6c+BOsh7YdGEHnfv6TonVgeRveBMuQXgh5qAO875X6EyxHjalPZ39I2qAd6nvrLJzZJIQ+cRfMA7vnU8EX1oeFESwrXz6XjMyXV8P58zG42fvrdOhijDSnVYb12bsDGqEVl2DdB08h5eEZfBFt6kpqabY14dXk0DhL7TubPzP81Ub2SlCexsy57QBSn5zP7REKemWNN76Ip/JHsKd/g/nwU9C3pdW9TKq9yDpASF1MbzoD3Z6MwO3PtaDd1qVI+34xKk5dAPcOF7LghJEkWKZcDiUJNqdPT+hW0eRJPypxoxxsgpXpRxVAe5bs1RzvoNK2X0uwWktDpuaRIizqqlabpzhuNim5z1yiCb5C0Fcl/MtN7zOVq7BYePTHL/qoTf3TlhU/e2UKtMjx7mdek3bRAk8+eR66uMig2gy1XtrHl09fhK5ybL5JVE2T55AvpHA1rURpS3xQG5kkpKPtAqkGqeoKMLpidbn/SqLhqcNVqbvEjS96AcUZ1/x+zyZBIk3UldoTMDW1i/YS9ZXj1G2KoreWupfGp+dCKnQVogr/sZQr7MOC2uFJy4KHtlqkmqQ5LGQsFFROQXGsL5jEzm1P/Lac+FyYnJ5vgcnKY/uwckpGwLiC6gsWV34I1ovAvL4wM8OmdqQSjEoggq2MLYt/QmxUKpreWxlZ6S/CUKkVTKfegfTiNGRvyGWmUXS4ST2sQ/bwpyHNoX1Cdlwl6VUp7PqfgxHs9W6Zdv+Q7y3+SO8z+z0017uNon6BgEBAIOCPQDkiWFJJMhn0371hrkrq0kpkJZlLP5WYTqvrODIqstuQaV4OY626HCPdhfUIGTsCNiLYEBupWinUuHAadM8NUoiVpfo/m+TLKsFq1ecRsx9D6NBevI/ESSAgEBAIlGUEyhHBkgyamAjzV/TKhDmX9CMyWQuQ+jeZLCY7NoejynOkFiByddvJ1DUE0rn/wjRjLLA+C9lmUmutpN/BbX0HbX6RPHsDqYavZPCVRYKVfz+HxNaj+V4Uf51m95J870peyT2KtAIBgYBAoLQQKFcE6/l1C6Td4yBbLdCT1bi72Qw4o+PJIMQMY3QNkkyJPJnaVyJzpoMLYHzjTeRU6wPPyCmQjEaAvarBrv+nh/OHQ2QYoLw6wt5FuxLDkmsFiev4Wbh/+Y0Xr29Wh4wiyChNHAIBgYBA4AZAoFwRrPPwTiJPI3RVb4HOKEFvUt5f5KRKxkv8NR52ZVbCf/0A2a6HrlYrpRv/jyXXG2CciiYKBAQCAoEbDoFyRbA3XO+IBgsEBAICAYHADYuAINgbtutEwwUCAgGBgECgLCMgCLYs945om0BAICAQEAjcsAgIgr1hu040XCAgEBAICATKMgJln2C/+ZVb9hq7NKWf7lO+3FKWARVtEwgIBAQCAgGBAEOAEyz9XoK7cyPo9Xr68JqersoHOEry/fCr9rk66cej0OU4YLjjlsJ/zkv0qUBAICAQEAgIBMoAAuznQd0HTsJDv+kut6YPnZY1gpXZj0EcPg3pfCok+v1cQ5Oi/+B3GcBXNEEgIBAQCAgEyikCrp2HISdnQq5EnzWlr3VJ9N3wMiHBetgPS7vd/J810LDvJO8iIcWW05EqblsgIBAQCNxACLDvRrt2HuEtdjWtRdrXcC7BMinWqxr2XotzW8VSEbOKGLl6CZZJsC76gQfp6Fno2VcfSNTWkxQrxSofAy5Ow0QegYBAQCAgEBAIXCsEtOTqrhgNuX4VGOjndZkE6yXYkpAra3eJCVZmn9aSFSmWSbP6A39An2rjmLCPcjOSFUR7rYaIKFcgIBAQCAgEioqAJ8cOTzZ9EpQkV/nEXzybO9oKd+MaquTK1MMSfZ6Pket1JVjWOn8plpGt4Rh9+/Ci8rHeot64SCcQEAgIBAQCAoHSRMBN39h11avM91z9pVfWjutGsKxyr5rYK8UyVbHbLXOJFmk2Iln6WG6GDTr63BwlZlnEIRAQCAgEBAICgeuDAEmlHrMB7giSWitE0rfGrapBk9e46WpJr+wGi60iZpkZwXqv/iTr8TCilX3S8MTiJBAQCAgEBAICgeuAgFciZVdGqDod229lVsOK5bCXXFnTvGlL0swSESyrOBDJsjBGrox0GdFq03GPOAkEBAICAYGAQKCUEfCSJiNWRqYKybLr5X1X1iRvupI2r8QEyxrgT7KMVFmY91+bpqQNFvkFAgIBgYBAQCBQHAS8xMmul/8VstXGFafsQHmuCsGygrUky/xCemUoiEMgIBAQCAgEyhICl4lUIVbWtsthuqva1KtGsKxVXpL1dzOyFYdAQCAgEBAICASuNwJMNew9vMTK/Fq3N76k16tKsN7GaInWGyauAgGBgEBAICAQKGsIXAti9d7jNSFYb+HsKshWi4ZwCwQEAgIBgcD1RuBakqr23q45wWorE26BgEBAICAQEAiUFwQEwZaXnhb3KRAQCAgEBAKlioAg2FKFW1QmEBAICAQEAuUFAUGw5aWnxX0KBAQCAgGBQKkiIAi2VOEWlQkEBAICAYFAeUFAEGx56WlxnwIBgYBAQCBQqggIgi1VuEVlAgGBgEBAIFBeEBAEW156WtynQEAgIBAQCJQqAoJgSxVuUZlAQCAgEBAIlBcEBMGWl54W9ykQEAgIBAQCpYqAINhShVtUJhAQCAgEBALlBQFBsOWlp8V9CgQEAgIBgUCpIiAItlThFpUJBAQCAgGBQHlB4H+oXRidxG8rgAAAAABJRU5ErkJggg==;" vertex="1" parent="sqnoS2JNhmN8ingZOf4Z-17">
          <mxGeometry x="9.580000000000041" y="40" width="195.83" height="39" as="geometry" />
        </mxCell>
        <mxCell id="sqnoS2JNhmN8ingZOf4Z-20" value="Ready for deploy to UAT for testing" style="whiteSpace=wrap;html=1;verticalAlign=top;fillColor=#DAE8FC;strokeColor=#000000;strokeWidth=4;gradientColor=none;" vertex="1" parent="1">
          <mxGeometry x="327" y="320" width="215" height="90" as="geometry" />
        </mxCell>
        <mxCell id="sqnoS2JNhmN8ingZOf4Z-18" value="" style="shape=image;verticalLabelPosition=bottom;labelBackgroundColor=default;verticalAlign=top;aspect=fixed;imageAspect=0;image=data:image/png,iVBORw0KGgoAAAANSUhEUgAAAPoAAABeCAYAAAAKYQnFAAABQ2lDQ1BJQ0MgUHJvZmlsZQAAKJFjYGASSCwoyGFhYGDIzSspCnJ3UoiIjFJgf8bAzCDKwMlgwWCUmFxc4BgQ4ANUwgCjUcG3awyMIPqyLsgsJaXzsSx+Xr7//k1Wvls96RamehTAlZJanAyk/wBxUnJBUQkDA2MCkK1cXlIAYrcA2SJFQEcB2TNA7HQIew2InQRhHwCrCQlyBrKvANkCyRmJKUD2EyBbJwlJPB2JDbUXBDhCjSxcTS0NCDiVdFCSWlECop3zCyqLMtMzShQcgSGUquCZl6yno2BkYGTEwAAKb4jqz2LgcGQUO4UQy37EwGBpzcDA9BkhlhDKwLA1hoGBVxshpjWfgUEwk4HhMH9BYlEi3AGM31iK04yNIGyeIgYG1h///3+WZWBg38XA8Lfo///fc////7uEgYH5JgPDgUIAH/NdijnqR1EAAACKZVhJZk1NACoAAAAIAAQBGgAFAAAAAQAAAD4BGwAFAAAAAQAAAEYBKAADAAAAAQACAACHaQAEAAAAAQAAAE4AAAAAAAAAkAAAAAEAAACQAAAAAQADkoYABwAAABIAAAB4oAIABAAAAAEAAAD6oAMABAAAAAEAAABeAAAAAEFTQ0lJAAAAU2NyZWVuc2hvdJx6DW0AAAAJcEhZcwAAFiUAABYlAUlSJPAAAAHVaVRYdFhNTDpjb20uYWRvYmUueG1wAAAAAAA8eDp4bXBtZXRhIHhtbG5zOng9ImFkb2JlOm5zOm1ldGEvIiB4OnhtcHRrPSJYTVAgQ29yZSA2LjAuMCI+CiAgIDxyZGY6UkRGIHhtbG5zOnJkZj0iaHR0cDovL3d3dy53My5vcmcvMTk5OS8wMi8yMi1yZGYtc3ludGF4LW5zIyI+CiAgICAgIDxyZGY6RGVzY3JpcHRpb24gcmRmOmFib3V0PSIiCiAgICAgICAgICAgIHhtbG5zOmV4aWY9Imh0dHA6Ly9ucy5hZG9iZS5jb20vZXhpZi8xLjAvIj4KICAgICAgICAgPGV4aWY6UGl4ZWxZRGltZW5zaW9uPjk0PC9leGlmOlBpeGVsWURpbWVuc2lvbj4KICAgICAgICAgPGV4aWY6UGl4ZWxYRGltZW5zaW9uPjI1MDwvZXhpZjpQaXhlbFhEaW1lbnNpb24+CiAgICAgICAgIDxleGlmOlVzZXJDb21tZW50PlNjcmVlbnNob3Q8L2V4aWY6VXNlckNvbW1lbnQ+CiAgICAgIDwvcmRmOkRlc2NyaXB0aW9uPgogICA8L3JkZjpSREY+CjwveDp4bXBtZXRhPgr5EdJWAAAAHGlET1QAAAACAAAAAAAAAC8AAAAoAAAALwAAAC8AAAtIVgZT9AAACxRJREFUeAHsnAlcU0cex39BEFBQBAUiCIgC3lqt2nprd60Uj67WumLrWrteVbtWV1q6fqxn0WpXra7aumo/ump1W+97PfHYKnihQtEEwpGQhCMCgXC7814gJMilfViW95/PJ8nMvHnzZr4zv8z/zZs3EoPB8BTkiAARaNAEJCT0Bt2+VDkiwBMgoVNHIAIiIEBCF0EjUxWJAAmd+gAREAEBEroIGpmqSARI6NQHiIAICJDQRdDIVEUiQEKnPkAERECAhC6CRqYqEgESOvUBIiACAiR0ETQyVZEIkNCpDxABERAgoYugkamKRICETn2ACIiAAAldBI1MVSQCJHTqA0RABARI6CJoZKoiESChUx8gAiIgQEIXQSNTFYlAnQk9zZCNBF06tLlZyCnIx9OntDUddTciUJGARCJB08a2cG3SDN4tXNDS3rFiEkHCdSL0WyoF4nRaQQpImRABMRHwbeGKXq19BK+y4EIPT4iFRp/JF9TXxQ3t2cfN0UnwglOGRKAhEOCsXX2+AarsJ3iQkshXyc2hOQZ5BwhaPUGFXjaSO9jao5+3Hwlc0KaizBo6gez8PJx7fJ8XvtAju2BC5+7JL8bF8G0x3L8bibyh90qqX50Q0LCR/eyjKD7vob4dBbtnF0zoZaM5Z6739xHW7KgTopQpEainBK4pYhGXroGQo7pgQj8li2ImRx76tQ1AO2e3eoqQikUE6j+BslHdwdYOge27CVJgwYT+Y3QE/whtbNe+/OMCQUpHmRABERLgJugO3r8B7tHbO516C0JAMKH/++FNvkDv9xokSMEoEyIgZgK7b4Xz1R/fuY8gGEjogmCkTIiAsARI6MLypNyIQL0kQEKvl81ChSICwhIgof8Kntx6e26CgxwRqO8ESOgv0EIVBZ6ba0BaZjbSs/KRmVeIElihmQ3Qs4MXrKysXuAKdAoREJYACf05ePIC59KXjuKKR4/wUJEMhY0UilwHZGTqYWVtCw+pK9Jkj+FRpELotKDnuAIlJQJ1Q4CEXkuu5qO4QpeBhMdx0DWyQ26WHiqlCpd1zlBbuaGLhyM6eLZA1NVbSGJLD8M3z6nlFSgZEag7AiT0Gthyb71LuHff2SiuYwsPEvbuR/rVn5GrToWrjS0i3xiMNIemsC0uhsqpO1p16ARp40IcPXQVmvhY3NhCQq8BMR1+CQRI6NVANh/F4xUKxC9eDhkT+OlcPSLj5XhNlYFVfXrjyOwZ8O3QDlYFuXD2cYXENQDzVx6Hc54WJ1d/WM0V6BAReDkESOhVcDYX+e3oaJRs/BaHk5W46S6FLPIGNMokGPIMiLBtieylIbAfNwaOej3cm+XhSHwhFnx3Fx92b4Y1c8dWcYWGEX0oOhI5hQV8ZQZ4+8PHqWXDqFgDqwUJvZIGLRN5SUkJrt29iybRj3F0zVqc8QtAUsTPeJKRDoMhB80aWeN2YBD0s6eh5YD+aMGetGXlZGHTrgNYcUKJQ4uC8faQHpVcoTxqztHv8Z/S1wjLY42+xix/f1cPdJN6oadHW/Tz8oOLfdOKyX7TcMtlM5CuS+PLsGPyX/DBK/VryXK8LhUjtoeZGIUFTsTYzlWv99az27Ne34Sa0s8fPBIzeg8zhSt6ZBkaBO1YbYruw/ZN2D1+lilc5gk5tQ9HHkaUBZ/rd0/wXLzauu1znVMxMQm9ApEykXPRl86dQ7FXAPL/vhbfXbqAYwWFsE7TosCg58+aXtwUW3t1R8zR3XBvYs9m3TNw72E0rl+5gqtRWpzdsw3Nm9tVuIJlMHDnapyOMq7rtzxSSYhtwPH1qEn4pN+IevP8vr4LPVqrQuewuSaYW4NnVyvcTGalOYW+Z0r/BeO9ZFjVVtm847ux4fxhU3pIrJD0xbfwbO5cHsd84/d+gx8jLlvE1TZwfu5yDPPtVNvklaYjoZtheVpUDIl1Iz7m3MVLMBSW4IbWgICD+2Bz4QpCrPOgzs6GE4oRXFCCtXCBYmcYrMePRpYiDvJEJWJiHuHevSh08PPH0kWLzXKv3PuM0FlHMTl+A8xnN8HsyV7d3Rf8MfxbupuS/lYeMQu9mFl8LsumIzNTZ4E/NHACvhz+rkUcCd0CR3mgTt9e4wRUVMRm0o2iMs6slwA2NihiQj68IgySj5fh9tkzMGjl0CaoMfrKebg/iEcqMtEV1vCBO+K2fw7JuJHIjpMhMUULRWIyHsXEIjb2Mf65eQva+fqWV6gKn7nQpS6uUC3aYkrJdaQoTRIilXFYH34S0UlxpmM+bh6IXbgOjRsZ/5hMB16yR8xCP/DgJiZsN5rtjR2boyDbuLehO9eOf9tsYXVx2zoZioxzGeZN5LZsJsBuFzgX/PobWBdUbk2UpWvBbtdsrH5dO4tvRGfiYcvVyhha/ObejMChdydBNnE6ckd/hPs37wCJ1+FiVwgbtn1uG1UcvEuK4O3fHo6jhsPJxQk6WSyUqRlIVqmhTEzCg4e/YHC/gQhZ8Am4e/yaVsZVJ3TzwhWWFGPhyb0WZuKC34/D2reCzZO9dL+YhT5s2wpcjGZ9hDluFF9/9TQMpWI/Pmsxgvy719geks8mAexPgHNTB47A9rHTajznRRKIS+jMNAczzYvkcuT9aw/g5YNCG2sUP9FBf+kK4n86jQM+nsgKOwB1ggopbFlrPhu92+XLMLRjK7Tu3AVtpM6QujjCmk1AqZMTocnQQa1Jh1KphJwtosnKysHh/ftgZ2fHb5xR01r42gq9rHH7b12C67H3jUH2L39n4Rr0cPcuO2z6zWMz4ZEqBW4my6FipmVnqSf6t/Gv1Ny/EBcNBZu06ureBr09jFaIlk0qnpdH478Jj+Dj3ArD23dFFzdPU/5lntoIvYCtMbiljMedFAVkaWr4tZKiF5tcfEXqbTFSyTO0uBxv3CfQya4J3u70KqyqeJfgSMwtpLPHnJwb36UvHNnuKZW5urpHT2LzMV5LZwBP2cDBXMznm7A6/Bi+v3qGDwf1eA3H/7SQ91f3RUIXeuOJ0pE8X5+NnGGBcI6QM/6F7MM11FNoIMEO6PHTm5NhN2QCVBotSmwaw56N5LZNmmKofQwG+9pD6tUVTayLoNZqkZ6RCW2aDiqVCslJSmayy/DVypUYOmggOLO7URWWg3nDP6/Q76QkoOdXC/gyc/lUdj/IiWDSD5uRk/XE/FLML8EHA97EhpHvWwhjBJsQPMNNCLJbmahP1+HEL3cQyiYYwawIk2PHlo9+D4uGjDFFcZ6ahH5W9gBTfvgHUtK1FudxAS/X1tg1cTYG+3Tgj3FbFHtw4ilmt1XMff3OnzG/fyDvN//aeSccU3dt4KM82Z9GYuhGCzPZPG1dCT307AGsOrWfv1Q37/a4N281riU8xoD1nxkvz56YaJdtQyvWf6pzJHQhhV66so0Dnj4iCC5nOHOLE3kRm1YDUpjQH7DfjXY2uD+U3SP590YBE6pDUwc4N28GH08p2rZyxAj7A+jo7oJbCkekpmch40k21Go1tJpUyOQKjA58CyHz59XKZGeX493zCp07yW35TGgzUo3nd++Lk1NCeD/3teTCQSw9tpf5uJkH5tio39ZVivg0DasuV2fgdb8uuP7RUt7PfZmEzvyc+BLZTLXRSdhPaT6lMRv/OAtz+v6uNFS90NdeOYGFB3da5mHN3vYpLQefCfsD2cLynNlnGB8ct2cDDkaG835fZoXIQ4yC5iNKv/psWoQIuXHkX/WHKfh00Cjzwxb+uhA692TGfcUsUxusGTsVfx1ofKfBK2wOkrQpfBmWj5n8zB+jReFY4P9V6P8DAAD//7dSjuMAABG5SURBVO1cB1xUx/b+dpdeBKQJKogiKlhjFxOeqMSGGmue7Sn2rjEasaJPwF6jJoolxhKjL8Zu7E9jiSVWbCgoIipIkd75n5ktWXBBIeuT/zrDjzt97p1v7jfnzJnZK0lPT8+HFtyu0Eu8lf4NP/v7reXnARIpskcMhf62w0BKNrWZiVy6JiEfd5GDSxRba++C5M/6IreCM8wMDWFjZYlqjnZwda0Mmakpsu9fQsPs7UjOdUFErAyJ8S8RH5eAx5HPUKN6DaxbtbzEz9p+0wIcuSnvq4O1HaJnrH1rG57fBeD8/Vu8XGU7B0T6f8vDd2Oj4b5gIpCbQ3EJ5nbuh+FNvGFnWg7x6anw/WGRqt73fcZgWONWvF47eobfFM/AErxq1cectj3Q3MkNoTFR6L5lKSJeRPGyDjb2iJq2GlKJhMdt5g5HXMIrHt44YDwGNZCPV0RCLKoGjweyM3neFw1bYnmn/nCytAHLG/nrxr/uaWyK59NXoYKpBS4/C0eTxZN5HXY5PnYuWlf1UMUfvHqBGoFjKE6vmaExXs9Zj3LkF+XuxETDI3isKvu7PqMxvLG3Kl448DojHZb+/VTJs337IsC7myrOAgceXIfv2n/L02R6iJ27ATYmZjw+7ejPCD68k4er2FdExNSV8nJFXCVT+9KrmMFz/T5thw3dhhZR8u8l/3j1DG+gp0eTv9eQorakzBE9h0itp4+8bSGQrgtERkYujFKzONmzCN/H6bl4kJKF/RIZ9rt7wewf3aFvZAJbKwu4VbSDY7UqMA67hmbb12J1g7Z4npYCu+RrsC1nhsSkTERFR6OivQN2/riZQ5Cfnw+JggTvgmhpiN5n52rsuHhS3jxNYHlLfub37LB5IQ7f+IOnt6xZF2eHzy7wCJGJr+A8dyRxJA/Nqnvgwqi5PF+d6Kze6aEzIZNKVXXPPQlDy+VTVfFDo2ajffW6PF4U0XtsW4H/XJG/XLUqueDOpMWq+izAcKocNBrPXr3k6eoveaNV03E1/B5P79ygBfYOmMTD7DL+wBasPLGXxwe1bIeN3YsnxvsgujrObWs3wtHB/qrn4xMcw5hNROROj5sHL5daPKzpIoiuRYmeGx4B2fwugEE6kEzEz8xBfkoeMonkN9JyEBafjQ2xRohs1heuLb1hbmIMF3trmFkYIf7cEYwLWopTHs5Y49UZmUmpSCQpbpv2ACbSLFSml3j7pnWQyWTIy8uDVI0gmga2cFppiN46JBAnQ//kTVlb2eDVrO/l4TnDEJ8Yx8MBvv3QplrtwreD94ZgZCW/hmk5S6TM2cDz1Yk+5LP2WP/FkDfqlZ8zFAmJ8Tx9SY8h+MqzPQ8XRXRnkqKRJE2ZW0zlJynK8wTFRV361XV2xY0JC3jOjpsX0WfTInkpkpgvSWozrSSPJgf2HK9fJ1CeBKH+K+Fu56hoTbOnbaLHpCbBfjZNLlxrArYPmox/1m1W4OaNv52BK4/u8rQejb2wq8+4AvnqEUF0LRI9f/1g0tyJGIlE8gxS44noSMtGUoXaMP5yNq6ePY9pG8/AtKEP3Op+AnN9KpLyCncObsPks78jzMoO/o18YJqSjJzMTCRQ/eS4F5jQsT6WBclVuNKQnA14aYjuFDwGT2Oe8/ellXsDnBw6A4VVTvWXqahwxuKfYCjTx7sQvc6yKbgd+Yg3Nda7C1b6DuBhTUTPzsuFweR/AuQzt2/ETPjWqM/D6peNV/+LwVsVqq2xCfKDfuTZjNAO80YiJj6Wx2d27IO5bbpjd+hl9AyZz9M+rVkPZ4bPUm9OYzg8IQbVuISVZ6/sPQJjm7XVWJYlxqYlwW76IFV+cNeBmOrlq4rPObkHAfu3yuOGRng4ZRkMaDJSdyFXTmPugW3yJH1DJJJqb2FkrF5EFRZE1xLRc6/ugixfoTYmENFzaG2ZmYecJ1nQG3ERy7ccwC+bVyNJ3xLt/CbDWAZE3bmCB7s3o39SEqp6t0W3yFSY6unRHCFBfFYOrDOTEfTNCAzr3ZEPWGlJziqXlOjRyYmoGDBMRaLxrbvyte8rWlLYTv+X6gVqUMUN+vTMRTknK1uVpHkXoqur0+oqsyaiv0h9DYcZfqpb/z5hPjydq6viysAewrnb+mBFVIKMxTv4xMMS5p3ei5l7t/C8Csx2MX0NfDYG4/jtqzztl6H++MK9EQ8Xd2FLBOk3fchWQMs1cuNad8GKTvJJSlO9s4/v47MV01RZhScp9UlWVegtAXUNqHBRQXQtET3/wTpIKpAKKXUFiKTITiWpngiU+xywaoRWLT1wj/LSwm/BtWZ9VLEwQ/zxw3BNSsC/jZzQomZ1REgMSSOQwoIMWt5xT7Fo23eo2vofJLByeXpJ1uSFB7qkRO+9YxV+vnRa1cyR0QH43LUOjxvO8uNqOYucHh8Iryo1VeWKC7wL0SsFjlKtp4O6/gv+tIxhThPRWbpkWn8gPY0F8ZPfFPSu05SH1S/f/nEcY3+SGx9taAkSq1iCsDJcQwkYQpMyGVLIbRowAYO2ruITXEUyCD4lg+C74u6+5GvcjYrg7TSqVguXx8zjYU2XIJpgpismGJYfNScEFctZ8aInwkPRZtXbtYjC7WqyUSjLCKJriehKQAv7mdF3YJgejCsvk9FrRj5crc3x9O41WITeRTnIEARL7La1wkITCzTNSMUnKSkYlJqMhiMHQLJmBQmILOgbGBRutsTxkhB9+80L6LtpCd1DbujpSpbsPf3Iyq5w6mvDaR2+RGDbnsqsYv23EZ1L6FlDVVqEujQtiuj1yXh3g4x4zE1o8wWWdfzLkq18mAG7vsOP54/xqCZVfPAv67Hx7BGez2wKqUk0QZNTn2h4wlsuA3d/jx/OHVWVUn9+VSIFEjPSYBs4GjkpSTxZ3f7BErptXYY9V3/neWyHZFrb7jys6fKIdgeWH9+jyrr09SI0rlhVFVcGBNG1RnRGClorkgrHfYkRck7PgV7lUKBqZUqS4M6fMdi0zwK3dxyCfngU/JxM4VHfAgv2JaIeMtAUUtQk8hvQP26fg5GHO730eaQlSJXjVWr/bURn69U7Mc8w7+Sv2HnplOo+emblEO2/ArYm5VRpS84dxte7Q+Rx2nJ6OGUpqpW3U+WzwL3Y5/j9yX34NfRSbZGpE51ZkX/zm1pAWg6nrbB1/z3I2zEwt0AcbQGaGRjyeFFEV1/LykzN8YTWskrJyCrytfP8CaRlybfflvcajvHNfXibykuBrTRlIq2LEwNCilzzKoup+89pueMYTAYx0si4o12YhZ37Y0ST1jCn9nJpLE9G3MGgn9aotBZWbuvASehbrwWvwiYBq5m0HGG7OOT82/dGkE8vHtZ0YW2ak0aSToZP5gZ4+uCHHsPfKCqIrjWiM2wZyeX7vjmhB6AXT+tCTy9S4W1o4GIAcwPMbLcVF49FY7ybKTo2a4aHPXoiy3c0bKBHfwCZipANK5jFXYe0PKlybOIowTYaewpNTp3okOnB3dFJVSybLLthsS9U60tlBpNuu/qNV21xKdPZerTu8m9URjO2zzyupQ/qOThzaXUi7DYO3brMJbO6QU2d6Kyt5tVro0/DTzmZ94Zewa8KKcbyChuniiI6M8jVXPwVwp9HsWqwsLDCGM92cLN1wD2auBadPaySnHWcmMV9foHJhVeiSxvaYTih2GFgaUURRlm+KH/lhaMY/7N8d+KvMhJYW1kjjpFRQWBlnrfHJzgxZLoySs97EFN+2aiIS/Bo1hpUJSNtcW7onhCEnDksL0LGxjTa5TDWL6gFCqJri+iKwzJ5z08gJ80IkosToe/jCJjRujbHgfwsrB+8Hac23UT/Prbw6doU6b7bcGS2P9osDEEWSXM2NOZE9CxTaxhG/QmppeX7IXpxbw3Pk6BXEy+s7eqH8nTIRJO7/TIKHTcuUG1taSpDhgWs6DkU4xQStCDR2YTIJsY3XYd6zbCn/1dkZSbNRuGKIjrLvhr9GF02L8IzNlkV4VwqVML+QVPgYVdRY4nfHt5Cu9UBijwJbk1djtr2lTSWfVsiJztbf2emF1NUgr7NW2NNl4EFDuK4LZqIsOhIXu9t63xl44UP/2g6rCOIrjWiyyVvTvRd5O2bAAMXkuBNnOldppfFqgPu7btIUmoxhk13geekNnjy+mscGTMErQ9eJmmeR3pALkl0Gf3n8ZhR+A1IXKr8b4gulaGKbQV4OFRGXZLKn1evU+zhC+ULlpmbjalHdmLntXN4Hse2qBTEJanSqUY9BNCpt4aO1AeFUyd6/xZtYUK2h+8vnFAYwiSobFcBfk293zghxqoXR3SWn07W7ilHdmDPrUukFhP2iom3EhnUejVojmCfLwtMHKyOulM/hdaiRh2cGxGgnl3iMDs0NOnQdlyOfIgnbAJSbAFaWZZHHcLZv1VXtFMcBlI2fp7Kei77Rh6lCXb/wK/Qya2+MrtYv/OWJdh/7QKVyUcDlxr4c1xQgfKC6Nom+uMwSK73g8zTlgbXiHRJVzpC6YZ59QPhM6gcmoykrRrD9Xh1ailsZi5A7rkcpJCyrk8Snck4Yxqo7F6+dIT2Bzpp95dEKzBqZTCSQmvgMNrzZ/u4Lpa2GtVjdaKrH5h5SEd8rYzNYF2E9lDS7jLSP4qPgSvZDYwKqbBFtdVs9Sz88ZDsKeR2DZmKHh6Niypa4vQs2jW5F/sMlSysi9SQStxoGa2g+0dgFcBnB/aAvjMdq2xJa2BLWltZOOLEykuwtkxA/c6OyE6fBn3H5kDYOjITz0baoQx+Fp4Z8MyJ6pkTh8Nw6UJ5a1pan5eVd6Ioon/o57tAkrSFQpIyK/cz2kt/1y21D/3sZe3+HwHRmdoqQfbWDtCvSKqjQ3kywtER2Nf5yLUhQ1tmKjItNsGwWg0+NvnR+yCZMAqpRHTD1GykUarJqmDojRklV9dZKS0Y4fjNysilrBJd3VA5l6zkM0mtFq50CHwERGeG9RjIDnaCxJAOX7BtsfgcpMZbwqRVY+Q6j4FeFSJ5Hm3zSA2RH/UfSGZPBA6mIN24Agy2hpC6T1ssObRF9/9IZS/J61AWic5/icd+/cbW9GRbSKDDNJb0YyPhSofAR0H03OvHkHNhIvLNTCGjbVBpkwXIKW8PiZERDMq70Muk2GeX6iH/+gJIVq9Flksv6E0OhFRfn7a3qBLzddQde3QbEYpz5XXsK9PPU8l+8YHdLdo9uBAZxp+iuVN11Cmlpf0Dd6PM3P6jIHpW6HlStw0gdXaHRF8KmQEZ45hja21mkabtJu6Tip//9CxyM0mld6X1OnM6LMnlHRTXjwGBj4LoH8NAij4KBIpDQBC9OHREnkBARxAQRNeRgRTdEAgUh4AgenHoiDyBgI4gUGaJvvvOZf5dsW70O2ZTxS+ldARz0Q2BwP8cAUZ0dtioh7t2ThZq7eOQhx/eRAp9dMDHrS7szelHJMIJBAQCpULgER1lPh9xn75sbIT2rnVL1UbhSlojOvvlE/vNclVre3iyAy3CCQQEAqVC4FjYLbygLyaxn9Wq/5ipVI0pKmmN6K/Sk3Eq/C5vVkj1vzMkou7HjMBL+ujG0Qc3OQStqtaCjbG5VuDQGtHZ0yiluhl9QKEFfVxQqPBaGSPRyEeCACP5MfrYSD4dI9amNGfwaZXorMEz9Nmjlyn0BRBytR2c4EjrdUF4Doe4CATeQCCVfpacQh/WYF8Lvv1c/qEMezMLfOas3eWv1onOeqKU7G/0SiQIBAQCxSKgbUmuvNl7ITprnK3ZnyTEIYY+sM9mLfZ9NOEEAgKBggiwLTS2HW1HHw11pu/haWtNXvAu70F1L3wDERcICAQ+PALvTaJ/+K6JJxAICASUCAiiK5EQvkBAhxEQRNfhwRVdEwgoERBEVyIhfIGADiMgiK7Dgyu6JhBQIiCIrkRC+AIBHUZAEF2HB1d0TSCgREAQXYmE8AUCOoyAILoOD67omkBAiYAguhIJ4QsEdBgBQXQdHlzRNYGAEgFBdCUSwhcI6DACgug6PLiiawIBJQKC6EokhC8Q0GEEBNF1eHBF1wQCSgQE0ZVICF8goMMICKLr8OCKrgkElAj8H8kgXtqsMfHmAAAAAElFTkSuQmCC;" vertex="1" parent="1">
          <mxGeometry x="384.64" y="360" width="99.73" height="37.5" as="geometry" />
        </mxCell>
        <mxCell id="sqnoS2JNhmN8ingZOf4Z-29" value="" style="edgeStyle=orthogonalEdgeStyle;curved=1;rounded=0;orthogonalLoop=1;jettySize=auto;html=1;endArrow=none;endFill=0;strokeWidth=4;fontFamily=Courier New;fontSize=16;startArrow=none;" edge="1" parent="1" source="sqnoS2JNhmN8ingZOf4Z-30">
          <mxGeometry relative="1" as="geometry">
            <mxPoint x="901.25" y="179.5" as="sourcePoint" />
            <mxPoint x="930" y="180" as="targetPoint" />
          </mxGeometry>
        </mxCell>
        <mxCell id="sqnoS2JNhmN8ingZOf4Z-31" value="Tag: 1.1.1" style="text;html=1;strokeColor=none;fillColor=none;align=center;verticalAlign=middle;whiteSpace=wrap;overflow=hidden;fontSize=14;" vertex="1" parent="1">
          <mxGeometry x="920" y="140" width="70" height="20" as="geometry" />
        </mxCell>
        <mxCell id="sqnoS2JNhmN8ingZOf4Z-30" value="" style="verticalLabelPosition=bottom;verticalAlign=top;html=1;strokeWidth=4;shape=mxgraph.flowchart.on-page_reference;plain-blue;gradientColor=none;strokeColor=#000000;" vertex="1" parent="1">
          <mxGeometry x="940" y="165" width="30" height="30" as="geometry" />
        </mxCell>
        <mxCell id="sqnoS2JNhmN8ingZOf4Z-32" value="" style="edgeStyle=orthogonalEdgeStyle;curved=1;rounded=0;orthogonalLoop=1;jettySize=auto;html=1;endArrow=none;endFill=0;strokeWidth=4;fontFamily=Courier New;fontSize=16;" edge="1" parent="1" target="sqnoS2JNhmN8ingZOf4Z-30">
          <mxGeometry relative="1" as="geometry">
            <mxPoint x="901.25" y="179.5" as="sourcePoint" />
            <mxPoint x="1001.25" y="179.5" as="targetPoint" />
          </mxGeometry>
        </mxCell>
        <UserObject label="api-data / nxt" link="https://nvie.com/posts/a-successful-git-branching-model/" id="sqnoS2JNhmN8ingZOf4Z-33">
          <mxCell style="text;whiteSpace=wrap;html=1;fontStyle=1;fontSize=17;" vertex="1" parent="1">
            <mxGeometry x="80" y="520" width="120" height="30" as="geometry" />
          </mxCell>
        </UserObject>
        <mxCell id="sqnoS2JNhmN8ingZOf4Z-34" value="" style="edgeStyle=orthogonalEdgeStyle;rounded=0;html=1;jettySize=auto;orthogonalLoop=1;plain-blue;endArrow=none;endFill=0;strokeWidth=4;strokeColor=#000000;entryX=0;entryY=0.5;entryDx=0;entryDy=0;entryPerimeter=0;" edge="1" parent="1" source="sqnoS2JNhmN8ingZOf4Z-36" target="sqnoS2JNhmN8ingZOf4Z-73">
          <mxGeometry x="294.5" y="600" as="geometry">
            <mxPoint x="554.5" y="600" as="targetPoint" />
          </mxGeometry>
        </mxCell>
        <mxCell id="sqnoS2JNhmN8ingZOf4Z-36" value="" style="verticalLabelPosition=bottom;verticalAlign=top;html=1;strokeWidth=4;shape=mxgraph.flowchart.on-page_reference;plain-blue;gradientColor=none;fillColor=#B5E3Fe;strokeColor=#000000;" vertex="1" parent="1">
          <mxGeometry x="264.5" y="585" width="30" height="30" as="geometry" />
        </mxCell>
        <mxCell id="sqnoS2JNhmN8ingZOf4Z-46" value="" style="edgeStyle=orthogonalEdgeStyle;rounded=0;html=1;jettySize=auto;orthogonalLoop=1;strokeWidth=4;endArrow=none;endFill=0;" edge="1" parent="1" target="sqnoS2JNhmN8ingZOf4Z-36">
          <mxGeometry x="194.5" y="600" as="geometry">
            <mxPoint x="150" y="600" as="sourcePoint" />
          </mxGeometry>
        </mxCell>
        <mxCell id="sqnoS2JNhmN8ingZOf4Z-47" value="main" style="text;html=1;strokeColor=none;fillColor=none;align=center;verticalAlign=middle;whiteSpace=wrap;overflow=hidden;fontSize=14;fontStyle=1;fontFamily=Courier New;" vertex="1" parent="1">
          <mxGeometry x="80" y="590" width="50" height="20" as="geometry" />
        </mxCell>
        <mxCell id="sqnoS2JNhmN8ingZOf4Z-48" style="edgeStyle=orthogonalEdgeStyle;curved=1;rounded=0;html=1;exitX=1;exitY=0.5;exitPerimeter=0;entryX=0;entryY=0.5;entryPerimeter=0;endArrow=none;endFill=0;jettySize=auto;orthogonalLoop=1;strokeWidth=4;fontSize=15;" edge="1" parent="1" source="sqnoS2JNhmN8ingZOf4Z-49" target="sqnoS2JNhmN8ingZOf4Z-52">
          <mxGeometry relative="1" as="geometry" />
        </mxCell>
        <mxCell id="sqnoS2JNhmN8ingZOf4Z-49" value="" style="verticalLabelPosition=bottom;verticalAlign=top;html=1;strokeWidth=4;shape=mxgraph.flowchart.on-page_reference;plain-purple;gradientColor=none;strokeColor=#000000;" vertex="1" parent="1">
          <mxGeometry x="331.25" y="900" width="30" height="30" as="geometry" />
        </mxCell>
        <mxCell id="sqnoS2JNhmN8ingZOf4Z-50" style="edgeStyle=orthogonalEdgeStyle;curved=1;rounded=0;html=1;exitX=1;exitY=0.5;exitPerimeter=0;entryX=0;entryY=0.5;entryPerimeter=0;endArrow=none;endFill=0;jettySize=auto;orthogonalLoop=1;strokeWidth=4;fontSize=15;" edge="1" parent="1" source="sqnoS2JNhmN8ingZOf4Z-52" target="sqnoS2JNhmN8ingZOf4Z-54">
          <mxGeometry relative="1" as="geometry" />
        </mxCell>
        <mxCell id="sqnoS2JNhmN8ingZOf4Z-52" value="" style="verticalLabelPosition=bottom;verticalAlign=top;html=1;strokeWidth=4;shape=mxgraph.flowchart.on-page_reference;plain-purple;gradientColor=none;strokeColor=#000000;" vertex="1" parent="1">
          <mxGeometry x="403.25" y="900" width="30" height="30" as="geometry" />
        </mxCell>
        <mxCell id="sqnoS2JNhmN8ingZOf4Z-54" value="" style="verticalLabelPosition=bottom;verticalAlign=top;html=1;strokeWidth=4;shape=mxgraph.flowchart.on-page_reference;plain-purple;gradientColor=none;strokeColor=#000000;" vertex="1" parent="1">
          <mxGeometry x="476.25" y="900" width="30" height="30" as="geometry" />
        </mxCell>
        <mxCell id="sqnoS2JNhmN8ingZOf4Z-55" value="feat/xxx-1" style="text;html=1;strokeColor=none;fillColor=none;align=left;verticalAlign=middle;whiteSpace=wrap;overflow=hidden;fontSize=14;fontStyle=1;fontFamily=Courier New;" vertex="1" parent="1">
          <mxGeometry x="81.25" y="905" width="240" height="20" as="geometry" />
        </mxCell>
        <mxCell id="sqnoS2JNhmN8ingZOf4Z-56" value="The main branch&lt;br&gt;" style="text;html=1;strokeColor=none;fillColor=none;align=left;verticalAlign=middle;whiteSpace=wrap;overflow=hidden;fontSize=14;fontStyle=0;fontColor=#009900;" vertex="1" parent="1">
          <mxGeometry x="85.25" y="610" width="132.25" height="20" as="geometry" />
        </mxCell>
        <mxCell id="sqnoS2JNhmN8ingZOf4Z-57" value="Your feature branch 1" style="text;html=1;strokeColor=none;fillColor=none;align=left;verticalAlign=middle;whiteSpace=wrap;overflow=hidden;fontSize=14;fontStyle=0;fontColor=#009900;" vertex="1" parent="1">
          <mxGeometry x="80" y="930" width="202.25" height="20" as="geometry" />
        </mxCell>
        <mxCell id="sqnoS2JNhmN8ingZOf4Z-58" value="Tag: 1.0.0" style="text;html=1;strokeColor=none;fillColor=none;align=center;verticalAlign=middle;whiteSpace=wrap;overflow=hidden;fontSize=14;" vertex="1" parent="1">
          <mxGeometry x="248.38" y="560" width="70" height="20" as="geometry" />
        </mxCell>
        <mxCell id="sqnoS2JNhmN8ingZOf4Z-72" value="Tag: 1.1.0" style="text;html=1;strokeColor=none;fillColor=none;align=center;verticalAlign=middle;whiteSpace=wrap;overflow=hidden;fontSize=14;" vertex="1" parent="1">
          <mxGeometry x="1000" y="560" width="70" height="20" as="geometry" />
        </mxCell>
        <mxCell id="sqnoS2JNhmN8ingZOf4Z-167" value="" style="edgeStyle=orthogonalEdgeStyle;rounded=0;orthogonalLoop=1;jettySize=auto;html=1;fontSize=14;endArrow=none;endFill=0;strokeWidth=4;" edge="1" parent="1" source="sqnoS2JNhmN8ingZOf4Z-73" target="sqnoS2JNhmN8ingZOf4Z-166">
          <mxGeometry relative="1" as="geometry" />
        </mxCell>
        <mxCell id="sqnoS2JNhmN8ingZOf4Z-73" value="" style="verticalLabelPosition=bottom;verticalAlign=top;html=1;strokeWidth=4;shape=mxgraph.flowchart.on-page_reference;plain-blue;gradientColor=none;strokeColor=#000000;" vertex="1" parent="1">
          <mxGeometry x="1030" y="585" width="30" height="30" as="geometry" />
        </mxCell>
        <mxCell id="sqnoS2JNhmN8ingZOf4Z-92" value="" style="edgeStyle=orthogonalEdgeStyle;rounded=0;html=1;jettySize=auto;orthogonalLoop=1;plain-blue;endArrow=none;endFill=0;strokeWidth=4;strokeColor=#000000;" edge="1" parent="1" source="sqnoS2JNhmN8ingZOf4Z-93" target="sqnoS2JNhmN8ingZOf4Z-95">
          <mxGeometry x="294.5" y="820" as="geometry" />
        </mxCell>
        <mxCell id="sqnoS2JNhmN8ingZOf4Z-93" value="" style="verticalLabelPosition=bottom;verticalAlign=top;html=1;strokeWidth=4;shape=mxgraph.flowchart.on-page_reference;plain-blue;gradientColor=none;fillColor=#B5E3Fe;strokeColor=#000000;" vertex="1" parent="1">
          <mxGeometry x="264.5" y="805" width="30" height="30" as="geometry" />
        </mxCell>
        <mxCell id="sqnoS2JNhmN8ingZOf4Z-94" value="" style="edgeStyle=orthogonalEdgeStyle;curved=1;rounded=0;orthogonalLoop=1;jettySize=auto;html=1;endArrow=none;endFill=0;strokeWidth=4;fontFamily=Courier New;fontSize=16;" edge="1" parent="1" source="sqnoS2JNhmN8ingZOf4Z-95" target="sqnoS2JNhmN8ingZOf4Z-97">
          <mxGeometry relative="1" as="geometry" />
        </mxCell>
        <mxCell id="sqnoS2JNhmN8ingZOf4Z-95" value="" style="verticalLabelPosition=bottom;verticalAlign=top;html=1;strokeWidth=4;shape=mxgraph.flowchart.on-page_reference;plain-blue;gradientColor=none;strokeColor=#000000;" vertex="1" parent="1">
          <mxGeometry x="554.5" y="805" width="30" height="30" as="geometry" />
        </mxCell>
        <mxCell id="sqnoS2JNhmN8ingZOf4Z-96" value="" style="edgeStyle=orthogonalEdgeStyle;curved=1;rounded=0;orthogonalLoop=1;jettySize=auto;html=1;endArrow=none;endFill=0;strokeWidth=4;fontFamily=Courier New;fontSize=16;" edge="1" parent="1" source="sqnoS2JNhmN8ingZOf4Z-97">
          <mxGeometry relative="1" as="geometry">
            <mxPoint x="800" y="820" as="targetPoint" />
          </mxGeometry>
        </mxCell>
        <mxCell id="sqnoS2JNhmN8ingZOf4Z-97" value="" style="verticalLabelPosition=bottom;verticalAlign=top;html=1;strokeWidth=4;shape=mxgraph.flowchart.on-page_reference;plain-blue;gradientColor=none;strokeColor=#000000;" vertex="1" parent="1">
          <mxGeometry x="740" y="805" width="30" height="30" as="geometry" />
        </mxCell>
        <mxCell id="sqnoS2JNhmN8ingZOf4Z-98" value="" style="edgeStyle=orthogonalEdgeStyle;curved=1;rounded=0;orthogonalLoop=1;jettySize=auto;html=1;endArrow=none;endFill=0;strokeWidth=4;fontFamily=Courier New;fontSize=16;entryX=0;entryY=0.5;entryDx=0;entryDy=0;entryPerimeter=0;" edge="1" parent="1" target="sqnoS2JNhmN8ingZOf4Z-107">
          <mxGeometry relative="1" as="geometry">
            <mxPoint x="799" y="820" as="sourcePoint" />
            <mxPoint x="861.25" y="820" as="targetPoint" />
          </mxGeometry>
        </mxCell>
        <mxCell id="sqnoS2JNhmN8ingZOf4Z-100" value="" style="edgeStyle=orthogonalEdgeStyle;rounded=0;html=1;jettySize=auto;orthogonalLoop=1;strokeWidth=4;endArrow=none;endFill=0;" edge="1" parent="1" target="sqnoS2JNhmN8ingZOf4Z-93">
          <mxGeometry x="194.5" y="820" as="geometry">
            <mxPoint x="150" y="820" as="sourcePoint" />
          </mxGeometry>
        </mxCell>
        <mxCell id="sqnoS2JNhmN8ingZOf4Z-101" value="develop" style="text;html=1;strokeColor=none;fillColor=none;align=center;verticalAlign=middle;whiteSpace=wrap;overflow=hidden;fontSize=14;fontStyle=1;fontFamily=Courier New;" vertex="1" parent="1">
          <mxGeometry x="80" y="810" width="60" height="20" as="geometry" />
        </mxCell>
        <mxCell id="sqnoS2JNhmN8ingZOf4Z-102" value="The develop branch" style="text;html=1;strokeColor=none;fillColor=none;align=left;verticalAlign=middle;whiteSpace=wrap;overflow=hidden;fontSize=14;fontStyle=0;fontColor=#009900;" vertex="1" parent="1">
          <mxGeometry x="85.25" y="830" width="132.25" height="20" as="geometry" />
        </mxCell>
        <mxCell id="sqnoS2JNhmN8ingZOf4Z-107" value="" style="verticalLabelPosition=bottom;verticalAlign=top;html=1;strokeWidth=4;shape=mxgraph.flowchart.on-page_reference;plain-blue;gradientColor=none;strokeColor=#000000;" vertex="1" parent="1">
          <mxGeometry x="1020" y="805" width="30" height="30" as="geometry" />
        </mxCell>
        <mxCell id="sqnoS2JNhmN8ingZOf4Z-112" style="edgeStyle=orthogonalEdgeStyle;curved=1;rounded=0;html=1;exitX=1;exitY=0.5;exitPerimeter=0;entryX=0;entryY=0.5;entryPerimeter=0;endArrow=none;endFill=0;jettySize=auto;orthogonalLoop=1;strokeWidth=4;fontSize=15;exitDx=0;exitDy=0;entryDx=0;entryDy=0;" edge="1" parent="1" source="sqnoS2JNhmN8ingZOf4Z-93" target="sqnoS2JNhmN8ingZOf4Z-49">
          <mxGeometry relative="1" as="geometry">
            <mxPoint x="227.5" y="860" as="sourcePoint" />
            <mxPoint x="270.5" y="940" as="targetPoint" />
            <Array as="points">
              <mxPoint x="311" y="820" />
              <mxPoint x="311" y="915" />
            </Array>
          </mxGeometry>
        </mxCell>
        <mxCell id="sqnoS2JNhmN8ingZOf4Z-113" style="edgeStyle=orthogonalEdgeStyle;curved=1;rounded=0;html=1;exitX=0;exitY=0.5;exitPerimeter=0;entryX=1;entryY=0.5;entryPerimeter=0;endArrow=none;endFill=0;jettySize=auto;orthogonalLoop=1;strokeWidth=4;fontSize=15;exitDx=0;exitDy=0;entryDx=0;entryDy=0;" edge="1" parent="1" source="sqnoS2JNhmN8ingZOf4Z-95" target="sqnoS2JNhmN8ingZOf4Z-54">
          <mxGeometry relative="1" as="geometry">
            <mxPoint x="522.5" y="870" as="sourcePoint" />
            <mxPoint x="565.5" y="950" as="targetPoint" />
          </mxGeometry>
        </mxCell>
        <mxCell id="sqnoS2JNhmN8ingZOf4Z-114" style="edgeStyle=orthogonalEdgeStyle;curved=1;rounded=0;html=1;exitX=1;exitY=0.5;exitPerimeter=0;entryX=0;entryY=0.5;entryPerimeter=0;endArrow=none;endFill=0;jettySize=auto;orthogonalLoop=1;strokeWidth=4;fontSize=15;" edge="1" parent="1" source="sqnoS2JNhmN8ingZOf4Z-115" target="sqnoS2JNhmN8ingZOf4Z-117">
          <mxGeometry relative="1" as="geometry" />
        </mxCell>
        <mxCell id="sqnoS2JNhmN8ingZOf4Z-115" value="" style="verticalLabelPosition=bottom;verticalAlign=top;html=1;strokeWidth=4;shape=mxgraph.flowchart.on-page_reference;plain-purple;gradientColor=none;strokeColor=#000000;" vertex="1" parent="1">
          <mxGeometry x="331.25" y="990" width="30" height="30" as="geometry" />
        </mxCell>
        <mxCell id="sqnoS2JNhmN8ingZOf4Z-116" style="edgeStyle=orthogonalEdgeStyle;curved=1;rounded=0;html=1;exitX=1;exitY=0.5;exitPerimeter=0;entryX=0;entryY=0.5;entryPerimeter=0;endArrow=none;endFill=0;jettySize=auto;orthogonalLoop=1;strokeWidth=4;fontSize=15;" edge="1" parent="1" source="sqnoS2JNhmN8ingZOf4Z-117" target="sqnoS2JNhmN8ingZOf4Z-118">
          <mxGeometry relative="1" as="geometry" />
        </mxCell>
        <mxCell id="sqnoS2JNhmN8ingZOf4Z-117" value="" style="verticalLabelPosition=bottom;verticalAlign=top;html=1;strokeWidth=4;shape=mxgraph.flowchart.on-page_reference;plain-purple;gradientColor=none;strokeColor=#000000;" vertex="1" parent="1">
          <mxGeometry x="403.25" y="990" width="30" height="30" as="geometry" />
        </mxCell>
        <mxCell id="sqnoS2JNhmN8ingZOf4Z-118" value="" style="verticalLabelPosition=bottom;verticalAlign=top;html=1;strokeWidth=4;shape=mxgraph.flowchart.on-page_reference;plain-purple;gradientColor=none;strokeColor=#000000;" vertex="1" parent="1">
          <mxGeometry x="476.25" y="990" width="30" height="30" as="geometry" />
        </mxCell>
        <mxCell id="sqnoS2JNhmN8ingZOf4Z-119" value="fix/xxx-2" style="text;html=1;strokeColor=none;fillColor=none;align=left;verticalAlign=middle;whiteSpace=wrap;overflow=hidden;fontSize=14;fontStyle=1;fontFamily=Courier New;" vertex="1" parent="1">
          <mxGeometry x="82.5" y="985" width="240" height="20" as="geometry" />
        </mxCell>
        <mxCell id="sqnoS2JNhmN8ingZOf4Z-120" value="Your bug fix branch 2" style="text;html=1;strokeColor=none;fillColor=none;align=left;verticalAlign=middle;whiteSpace=wrap;overflow=hidden;fontSize=14;fontStyle=0;fontColor=#009900;" vertex="1" parent="1">
          <mxGeometry x="81.25" y="1010" width="202.25" height="20" as="geometry" />
        </mxCell>
        <mxCell id="sqnoS2JNhmN8ingZOf4Z-123" style="edgeStyle=orthogonalEdgeStyle;curved=1;rounded=0;html=1;entryX=1;entryY=0.5;entryPerimeter=0;endArrow=none;endFill=0;jettySize=auto;orthogonalLoop=1;strokeWidth=4;fontSize=15;entryDx=0;entryDy=0;exitX=0;exitY=0.5;exitDx=0;exitDy=0;exitPerimeter=0;" edge="1" parent="1" source="sqnoS2JNhmN8ingZOf4Z-97" target="sqnoS2JNhmN8ingZOf4Z-118">
          <mxGeometry relative="1" as="geometry">
            <mxPoint x="550" y="820" as="sourcePoint" />
            <mxPoint x="546.25" y="1005" as="targetPoint" />
            <Array as="points">
              <mxPoint x="680" y="820" />
              <mxPoint x="680" y="1005" />
            </Array>
          </mxGeometry>
        </mxCell>
        <mxCell id="sqnoS2JNhmN8ingZOf4Z-124" style="edgeStyle=orthogonalEdgeStyle;curved=1;rounded=0;html=1;entryX=0;entryY=0.5;entryPerimeter=0;endArrow=none;endFill=0;jettySize=auto;orthogonalLoop=1;strokeWidth=4;fontSize=15;entryDx=0;entryDy=0;exitX=1;exitY=0.5;exitDx=0;exitDy=0;exitPerimeter=0;" edge="1" parent="1" source="sqnoS2JNhmN8ingZOf4Z-93" target="sqnoS2JNhmN8ingZOf4Z-115">
          <mxGeometry relative="1" as="geometry">
            <mxPoint x="250" y="890" as="sourcePoint" />
            <mxPoint x="321.25" y="1035" as="targetPoint" />
            <Array as="points">
              <mxPoint x="300" y="820" />
              <mxPoint x="300" y="1005" />
            </Array>
          </mxGeometry>
        </mxCell>
        <mxCell id="sqnoS2JNhmN8ingZOf4Z-127" value="" style="edgeStyle=orthogonalEdgeStyle;curved=1;rounded=0;orthogonalLoop=1;jettySize=auto;html=1;endArrow=none;endFill=0;strokeWidth=4;fontFamily=Courier New;fontSize=16;" edge="1" parent="1" source="sqnoS2JNhmN8ingZOf4Z-128" target="sqnoS2JNhmN8ingZOf4Z-130">
          <mxGeometry relative="1" as="geometry" />
        </mxCell>
        <mxCell id="sqnoS2JNhmN8ingZOf4Z-128" value="" style="verticalLabelPosition=bottom;verticalAlign=top;html=1;strokeWidth=4;shape=mxgraph.flowchart.on-page_reference;strokeColor=#d79b00;fillColor=#ffe6cc;" vertex="1" parent="1">
          <mxGeometry x="630" y="690" width="30" height="30" as="geometry" />
        </mxCell>
        <mxCell id="sqnoS2JNhmN8ingZOf4Z-129" value="" style="edgeStyle=orthogonalEdgeStyle;curved=1;rounded=0;orthogonalLoop=1;jettySize=auto;html=1;endArrow=none;endFill=0;strokeWidth=4;fontFamily=Courier New;fontSize=16;" edge="1" parent="1" source="sqnoS2JNhmN8ingZOf4Z-130">
          <mxGeometry relative="1" as="geometry">
            <mxPoint x="836" y="705" as="targetPoint" />
          </mxGeometry>
        </mxCell>
        <mxCell id="sqnoS2JNhmN8ingZOf4Z-134" value="release/xxx" style="text;html=1;strokeColor=none;fillColor=none;align=center;verticalAlign=middle;whiteSpace=wrap;overflow=hidden;fontSize=14;fontStyle=1;fontFamily=Courier New;" vertex="1" parent="1">
          <mxGeometry x="470" y="683.75" width="94.75" height="20" as="geometry" />
        </mxCell>
        <mxCell id="sqnoS2JNhmN8ingZOf4Z-135" value="The release branch" style="text;html=1;strokeColor=none;fillColor=none;align=left;verticalAlign=middle;whiteSpace=wrap;overflow=hidden;fontSize=14;fontStyle=0;fontColor=#009900;" vertex="1" parent="1">
          <mxGeometry x="470.75" y="703.75" width="135.5" height="22.5" as="geometry" />
        </mxCell>
        <mxCell id="sqnoS2JNhmN8ingZOf4Z-146" style="edgeStyle=orthogonalEdgeStyle;curved=1;rounded=0;html=1;exitX=0;exitY=0.5;exitPerimeter=0;entryX=1;entryY=0.5;entryPerimeter=0;endArrow=none;endFill=0;jettySize=auto;orthogonalLoop=1;strokeWidth=4;fontSize=15;exitDx=0;exitDy=0;entryDx=0;entryDy=0;" edge="1" parent="1" source="sqnoS2JNhmN8ingZOf4Z-128" target="sqnoS2JNhmN8ingZOf4Z-95">
          <mxGeometry relative="1" as="geometry">
            <mxPoint x="554.5" y="710" as="sourcePoint" />
            <mxPoint x="506.25" y="805" as="targetPoint" />
            <Array as="points">
              <mxPoint x="605" y="705" />
              <mxPoint x="605" y="820" />
            </Array>
          </mxGeometry>
        </mxCell>
        <mxCell id="sqnoS2JNhmN8ingZOf4Z-152" value="Auto created release branch&amp;nbsp;" style="edgeLabel;html=1;align=center;verticalAlign=middle;resizable=0;points=[];fontSize=14;" vertex="1" connectable="0" parent="sqnoS2JNhmN8ingZOf4Z-146">
          <mxGeometry x="-0.0359" y="1" relative="1" as="geometry">
            <mxPoint as="offset" />
          </mxGeometry>
        </mxCell>
        <mxCell id="sqnoS2JNhmN8ingZOf4Z-156" value="" style="edgeStyle=orthogonalEdgeStyle;orthogonalLoop=1;jettySize=auto;html=1;strokeWidth=4;rounded=0;endArrow=none;endFill=0;" edge="1" parent="1" source="sqnoS2JNhmN8ingZOf4Z-130" target="sqnoS2JNhmN8ingZOf4Z-153">
          <mxGeometry relative="1" as="geometry" />
        </mxCell>
        <mxCell id="sqnoS2JNhmN8ingZOf4Z-130" value="" style="verticalLabelPosition=bottom;verticalAlign=top;html=1;strokeWidth=4;shape=mxgraph.flowchart.on-page_reference;strokeColor=#d79b00;fillColor=#ffe6cc;" vertex="1" parent="1">
          <mxGeometry x="850" y="690" width="30" height="30" as="geometry" />
        </mxCell>
        <mxCell id="sqnoS2JNhmN8ingZOf4Z-147" value="" style="edgeStyle=orthogonalEdgeStyle;curved=1;rounded=0;orthogonalLoop=1;jettySize=auto;html=1;endArrow=none;endFill=0;strokeWidth=4;fontFamily=Courier New;fontSize=16;" edge="1" parent="1" target="sqnoS2JNhmN8ingZOf4Z-130">
          <mxGeometry relative="1" as="geometry">
            <mxPoint x="835" y="705" as="sourcePoint" />
            <mxPoint x="897.25" y="705" as="targetPoint" />
          </mxGeometry>
        </mxCell>
        <mxCell id="sqnoS2JNhmN8ingZOf4Z-149" style="edgeStyle=orthogonalEdgeStyle;curved=1;rounded=0;html=1;exitX=0;exitY=0.5;exitPerimeter=0;entryX=1;entryY=0.5;entryPerimeter=0;endArrow=none;endFill=0;jettySize=auto;orthogonalLoop=1;strokeWidth=4;fontSize=15;exitDx=0;exitDy=0;entryDx=0;entryDy=0;" edge="1" parent="1" source="sqnoS2JNhmN8ingZOf4Z-130" target="sqnoS2JNhmN8ingZOf4Z-97">
          <mxGeometry relative="1" as="geometry">
            <mxPoint x="848" y="720" as="sourcePoint" />
            <mxPoint x="802.5" y="835" as="targetPoint" />
            <Array as="points">
              <mxPoint x="800" y="705" />
              <mxPoint x="800" y="820" />
            </Array>
          </mxGeometry>
        </mxCell>
        <mxCell id="sqnoS2JNhmN8ingZOf4Z-151" value="Catchup Release&lt;br style=&quot;font-size: 14px;&quot;&gt;(PR merge develop into release)" style="edgeLabel;html=1;align=center;verticalAlign=middle;resizable=0;points=[];fontSize=14;" vertex="1" connectable="0" parent="sqnoS2JNhmN8ingZOf4Z-149">
          <mxGeometry x="0.0686" y="2" relative="1" as="geometry">
            <mxPoint as="offset" />
          </mxGeometry>
        </mxCell>
        <mxCell id="sqnoS2JNhmN8ingZOf4Z-153" value="" style="verticalLabelPosition=bottom;verticalAlign=top;html=1;strokeWidth=4;shape=mxgraph.flowchart.on-page_reference;strokeColor=#d79b00;fillColor=#ffe6cc;" vertex="1" parent="1">
          <mxGeometry x="920" y="690" width="30" height="30" as="geometry" />
        </mxCell>
        <mxCell id="sqnoS2JNhmN8ingZOf4Z-157" style="edgeStyle=orthogonalEdgeStyle;curved=1;rounded=0;html=1;entryX=1;entryY=0.5;entryPerimeter=0;endArrow=none;endFill=0;jettySize=auto;orthogonalLoop=1;strokeWidth=4;fontSize=15;entryDx=0;entryDy=0;exitX=0;exitY=0.5;exitDx=0;exitDy=0;exitPerimeter=0;" edge="1" parent="1" source="sqnoS2JNhmN8ingZOf4Z-73" target="sqnoS2JNhmN8ingZOf4Z-153">
          <mxGeometry relative="1" as="geometry">
            <mxPoint x="1083.75" y="687.5" as="sourcePoint" />
            <mxPoint x="850" y="872.5" as="targetPoint" />
            <Array as="points">
              <mxPoint x="980" y="600" />
              <mxPoint x="980" y="705" />
            </Array>
          </mxGeometry>
        </mxCell>
        <mxCell id="sqnoS2JNhmN8ingZOf4Z-158" value="Issue PR and auto tag release" style="edgeLabel;html=1;align=center;verticalAlign=middle;resizable=0;points=[];fontSize=14;" vertex="1" connectable="0" parent="sqnoS2JNhmN8ingZOf4Z-157">
          <mxGeometry x="-0.0211" y="-4" relative="1" as="geometry">
            <mxPoint x="14" y="-11" as="offset" />
          </mxGeometry>
        </mxCell>
        <mxCell id="sqnoS2JNhmN8ingZOf4Z-159" value="" style="shape=image;verticalLabelPosition=bottom;labelBackgroundColor=default;verticalAlign=top;aspect=fixed;imageAspect=0;image=data:image/png,iVBORw0KGgoAAAANSUhEUgAAAeYAAADKCAYAAABwiuM2AAABQ2lDQ1BJQ0MgUHJvZmlsZQAAKJFjYGASSCwoyGFhYGDIzSspCnJ3UoiIjFJgf8bAzCDKwMlgwWCUmFxc4BgQ4ANUwgCjUcG3awyMIPqyLsgsJaXzsSx+Xr7//k1Wvls96RamehTAlZJanAyk/wBxUnJBUQkDA2MCkK1cXlIAYrcA2SJFQEcB2TNA7HQIew2InQRhHwCrCQlyBrKvANkCyRmJKUD2EyBbJwlJPB2JDbUXBDhCjSxcTS0NCDiVdFCSWlECop3zCyqLMtMzShQcgSGUquCZl6yno2BkYGTEwAAKb4jqz2LgcGQUO4UQy37EwGBpzcDA9BkhlhDKwLA1hoGBVxshpjWfgUEwk4HhMH9BYlEi3AGM31iK04yNIGyeIgYG1h///3+WZWBg38XA8Lfo///fc////7uEgYH5JgPDgUIAH/NdijnqR1EAAACKZVhJZk1NACoAAAAIAAQBGgAFAAAAAQAAAD4BGwAFAAAAAQAAAEYBKAADAAAAAQACAACHaQAEAAAAAQAAAE4AAAAAAAAAkAAAAAEAAACQAAAAAQADkoYABwAAABIAAAB4oAIABAAAAAEAAAHmoAMABAAAAAEAAADKAAAAAEFTQ0lJAAAAU2NyZWVuc2hvdA6VeqsAAAAJcEhZcwAAFiUAABYlAUlSJPAAAAHWaVRYdFhNTDpjb20uYWRvYmUueG1wAAAAAAA8eDp4bXBtZXRhIHhtbG5zOng9ImFkb2JlOm5zOm1ldGEvIiB4OnhtcHRrPSJYTVAgQ29yZSA2LjAuMCI+CiAgIDxyZGY6UkRGIHhtbG5zOnJkZj0iaHR0cDovL3d3dy53My5vcmcvMTk5OS8wMi8yMi1yZGYtc3ludGF4LW5zIyI+CiAgICAgIDxyZGY6RGVzY3JpcHRpb24gcmRmOmFib3V0PSIiCiAgICAgICAgICAgIHhtbG5zOmV4aWY9Imh0dHA6Ly9ucy5hZG9iZS5jb20vZXhpZi8xLjAvIj4KICAgICAgICAgPGV4aWY6UGl4ZWxZRGltZW5zaW9uPjIwMjwvZXhpZjpQaXhlbFlEaW1lbnNpb24+CiAgICAgICAgIDxleGlmOlBpeGVsWERpbWVuc2lvbj40ODY8L2V4aWY6UGl4ZWxYRGltZW5zaW9uPgogICAgICAgICA8ZXhpZjpVc2VyQ29tbWVudD5TY3JlZW5zaG90PC9leGlmOlVzZXJDb21tZW50PgogICAgICA8L3JkZjpEZXNjcmlwdGlvbj4KICAgPC9yZGY6UkRGPgo8L3g6eG1wbWV0YT4K9HUsagAAABxpRE9UAAAAAgAAAAAAAABlAAAAKAAAAGUAAABlAAAeD7+eEg8AAB3bSURBVHgB7J0HWBVHF4aPCiJo7MYSu1Es2MUSe+xi7Irtt2I39oq9xhp7RVRUjKiJMbF3JfbYjTX2mqixIagU/zmLu+7eu/deQJTF+02euLuzM7Oz79yHb2fmzJkEb0UgBBAAARAAARAAAUMQSABhNkQ7oBIgAAIgAAIgIBGAMOOHAAIgAAIgAAIGIgBhNlBjoCogAAIgAAIgAGHGbwAEQAAEQAAEDEQAwmygxkBVQAAEQAAEQADCjN8ACIAACIAACBiIAITZQI2BqoAACIAACIAAhBm/ARAAARAAARAwEAEIs4EaA1UBARAAARAAAQgzfgMgAAIgAAIgYCACEGYDNQaqAgIgAAIgAAIQZvwGQAAEQAAEQMBABCDMBmoMVAUEQAAEQAAEIMz4DYAACIAACICAgQhAmA3UGKgKCIAACIAACECY8RsAARAAARAAAQMRgDAbqDFQFRAAARAAARCAMOM3AAIgAAIgAAIGIgBhNlBjoCogAAIgAAIgAGHGbwAEQAAEQAAEDEQAwmygxkBVQAAEQAAEQADCjN8ACIAACIAACBiIAITZQI2BqoAACIAACIAAhBm/ARAAARAAARAwEAEIs4EaA1X5tARCw8MpLDSMwsIiKCIinCLevpX+/7S1sP20hAkSkPR/wkTk4JCQHBwdyDFRItsZkQIEQCBeEoAwx8tmQ6VjSiAiIoJCXodSaOgbCo94G9Ni4jxfooQJyNExMTk7OVLChAnjvD6oAAiAQOwRgDDHHkuUZGACb0VvOOTVayHKbwxcy5hVzdlJCHQSJ0ogetYIIAAC8Z8AhDn+tyHewAaB12/eUHDIa0MOU9uoepRv81C3i7MTOSVOHOU8SAgCIGBMAhDmaLRLUNBLevs2QsqRIEFCSpYsaTRyI2lcEAgOefVZ9pItseTes4tzEku3EQ8CIBAPCECYo9hIN27cpMrVa2lSHzmwj75Ml04ThwvjEHgRFEJvwkKNU6FPVJPEDo70RTLnT/Q0PAYEQCC2CRhOmIeNGkubNm2x+Z7cW82QIQO5uRWguh61qGiRwjbzfEiCa9evU5UaHpoiDgXuoQzp02vicGEMAvYqyjJ9iLNMAkcQiH8EDCfMPXr3pU2bt0abZMXy5WnyxHEfrQcLYY52k8RZBnsbvrYEGsPalsggHgSMTeCzEWbGnPmrr+j3X9dRyhQpYp06hDnWkX6UAtnQKyj41UcpOz4WmswlCQzC4mPDoc52TcDwwuzs7EJlSrkrjcROIB4/fkx/X71OISHBSrx8UrNGdZo/e4Z8GWtHCHOsofxoBfGSqKfPgz5r6+vowmNr7ZTJk2EpVXTBIT0IxCEBwwtzSXd3CvD3M0MULrw2+S5dTj9MnmJ279B+MfebIXbnfiHMZpgNF4EhbP0mwZC2PhfEgoBRCcRbYZaBTps+i+bMXyBfSsfJP4ynJo0aaOLkiytXr9GG3zbSrdu36f79B5TUxYUyfZWJihYuRN8JI7IkSfSXmkRXmF+/fk2btmyj4ydP0d07d+llcLD0sZA1c2aqW6c2ubrmkatk9Xjr9h06deYsXb58hS7//Tc9e/qMcuXKSfld81K+fK5U0C0/JY7C2tWzf52nixcv0V/nL9ClS1coaVJnUQdXypvXlQoJA7psWbNYrQff5B7pgYOHaPfeQLpz7y49fviY0qRLQ19lzEgVK5SniuXLRqlndvvOHTp99hxdOH+Rzl+8KLxwhVHu3F9T3jy5qUC+vJJBn83KmCRgj15PRG/5QwO326VLl6V6vRWewVxdc5Nr7jyU1MrSuKfPntG/D/61+egUKb6g9MJg0VLgcvbvC5R+m2FhYdJvJL/gkS1bNktZohyfSvSa4SEsyriQEATilEC8F+Z//v2XSperpIHYu2cP6tWjmybu0aPH1HfAEAo88IcmXn3Bw+bDvAdRC88m6mjpPDrCvHbdLzRh0lR6+uypWTlyRJnSpWnGtEkWjdVCQ0Np1pz5Zh8dcn75mD9fPlriM5/Sf/mlHKU5Pnv2nPoNHEy79uzVxJte9Ondk3p06WTxj/ep02eod7+BdPPWLdOsyjXP8c/8cQoVK1pEiVOfhIdH0MzZc2n2vPnqaLNzno6YNH4sJU/+hdk9SxEvhQORV0JUYxoiRN3minr5rVihW0Tdut/RkIEDyFHnI2ix71JasHChbj51ZPly5Wj6j1PVUcq5j48vLfTxUa7VJ5UrVaRRI0ZY/ThQp9c7T+LkREmFAxIEEAAB4xOI98LMPaVced00pDt2aE/eg/orcSyqrdp40f0H95U4ayde7dvR0MEDNEmiKsyTpvxIC3wWa/JaukibJi0FrPKjnDlyaJIEh4RQ/UbN6MrfVzTxli64HL8li4h7V+rAvey2Xl2i/N6lS5ailX6+lCiR1vfyth07qUv3nuqirZ7Pnz2TataopkkTLEYM2nXsSkePHdPEW7rImCGjxCaLGGGISnj6/EWMfV+HCoOxfgMG0cFDh6w+Kl/evLTYZyE5CZFThylTf6SANWvUUbrnloR56rTptDogQDePHJkxYyZasXxpjA0b2bd2ymh86MjPxREEQODTE4j3wnzz5i2qVK2mhtzIYd7UtnUrKY7nohs0aUZnz/2lScMXBcUQ7qNH/+kK18J5s6l61SpKnqgI8/adu6hzt++VPPJJyhQpKasYKj5z9qwcpRy5DuvXrhZi+H63oOUrV9HIMeOUNPIJ90g53Ll7V45SjlUqV6LFC+cp13zSvFU7Onz0iCauWJGiVFgM2/NQ9B9/HDQzoPNdtIC+rVRBycPD/VVq1jFLxwm4rAuXLpnd45GHXVs3UsaM74dtZ86dTzNmzlbK5RN+n4oVK9CrV6/o4MHDZu2g94GkKeDdBe8S9fzFS71bUYrbtWs3DRriLaVNkTwFjRg+lEq4l5Cujxw+QiNGjRF1DJGuf5w6lSpUKKcpd4j3MNqxc6eYBnGmcWNGae6pL9KmS0tuBQqoo+j48ePUuWt3Ja5//35UX/TOHYWTkJOnTtHosePFlMs96X6HDh2oa+eOStroniT/Iil2pYouNKQHgTggEO+Fue/AIbT+1w0adCuX+VLZb8pIcX4r/GmU+OOmDg3q16PRw73piy8ih0p5TrFZq7aaoWfuhR45sFcZ2rUlzPwBUKJ0eU0ZLFB+vgupRPFi0twrC9D0WXNp0WJfdXVo/NjRyvA5jwBUrFJDI74lihcnnwVzlN4Sf4xMnTGLNm7arJTDzzp74qjS230uepCFS5RS7vNJrx7dqXfP9yLAw+WNPFtoPlpMBb5Lj960bft2TTljRo6gZk0bid2NHMV2iRG0ddsO6t6rjyZNHY/aNHv6+2HbWt81oItCxOVQvmw58U6zNb3PUWMniKHklXIS8b4p6c/DgZqPFuWm6oQ3pwgW/8c09OnbnwL/iJziWOG3TMzda0cefhM2CWPGRX4oNWhQn4YOGax5VOcu3en4ieP09de5afWqFZp7ti7atfcS/M9Jydq2bk09TKZgbt68SY2aeEr3Wfh37dwW4+VPLmKjC97sAgEEQMDYBOKlML8RQ4/Xrt+Q5l9NnZFwL2zfrm2KoNZt2EQjPJHDtYvN/tifET3qeiKtOvj7LaVvykSKmy1h3r1vP3Xo2EWdXYiyD1UoX1YTxwZU3Xr2EWL2XuxYeNf+FPkHXZ5b5mVhHHi5i1f7tpQiRXJNOey3u2Axd03chl/WSoZcHHlBGHrVrqs1gNu5dRPlyqkdNr9z7x5t3rxNKYfndZs1bSxd64l7965dqH8f82HtZctX0uhxE5Ry+OSv08eF3+ZI15D5C5fQ9KzHjhxJrVpGCo6cid99hf9PYn/kcCmKd0tq2bwpuQgDPWvhQ718TZw0hYJevpQ+fPr3035g8HNPi/n1Dh07SVWoXr0aTRg3VlOdps1a0LVr16h0qdI0JxpL9R7/9x/VqFlbKit16jS0Yf06cn7HS/2Ah/8+pDeCDfPIlCmj+la0zuENLFq4kBgE4oyA4YWZyXBvUB301i/L99UW2Q8e/ENlKlSWb0nHFUsXU7my32ji5IsWrdvTocOH5UvyatdW9I4GSte2hHnQ0BG0Zu06JW8R4SJ0/ZqflGv1yZ8nTlKTZi3VUXTm+BGlB6+5YeWiqPs3mh66em6X53QLFIkcjpWL4F7qpAljNEPM8j29468bfqc+Yu5VHS6cOaFruc6GXV/n0871+8yfS1WrRPI3/UDiD6hZokcdG65Unwlr7DDRc/9YYc6cebRs+XKpeO/Bg6lhw/qaR1WpWoOePX9GdTw8aNTI4fTg/n26fOUqOTg6SO+nJ7ZcwJat22j4iJFSWc08PYk/CkKEfcFVIfI3b9ymLFkzCyv1fJTIIZHmeTG9cBD7NqcQ1tkIIAACxiYQL4Q5KghZvEcMHaz09jjPkWN/UrOWrTXZG4qhyDSpU2vi5Asf3yXyqXRUOyuxJcyeLduYGTaxEZpe4N7ZT6u1xj7bNm6gPGK5kF7g5UW8zOu5WCr1/MULIQIvKCgoyGxIXC3MXI5HvUZ0/sIFsyILFSwoenclpSVi7iVKUJo0qczScMQMMew+c85czT1L78SJTPmNHjGMWrdqIeUfP3EKLV6yVFMWX7BAlytXVsxXFyZ3MeSfPXs2szS2Ip48exFrTkV4RCNM9E7DhdBfF6My27bvoJX+/lIVXPO40qJF86UldnKd2Jq7ZJnIDz3Ppk0l5zc7d+2Sb0vHgm5u1E+Irun88sJFi8lncaShIAt+eEQ4zZw1R5nP5sw8fF2mTGlJ8Hlp34cEHn1JJZZsIYAACBibwGchzDlz5qRlixeQqQXvb5u2UK8+/WLcAmzc9POayD/KtoS5UtWaVpcS2arESr8lVFb8AZYDi/G0GbPpwIFD9OjxIzna6tFUmI+fOEX/a+elGULWK4B70g3q1yGPWjU1a6K9R4w2+4DQy28pTj3szcvVPFu1kYZ8LaXn+LxibXVDYQPA/1v6YDDN//jpc9OoGF/v3rWHBg4ZYpbfQ8yZ9+ndS5nnlxM8ffqUqlbXGh/K99RHFljfRQvJNW8eJXqysOZe886au3LlyrRnzx7lnukJi/u8ubN1h7pN01q7TpNSOyViLS3ugQAIxA0BwwszG2F5vpvzZETcm1loYjyVLWtW2rVts2L4JKNcvWYdDRk2Qr6M9pEtpn8T87YcbAmze5kKURZQvYqoraE3C8ck/QcPtSmopuWYCjPfPyEcnAwXO3bp9ZxN87OXtaViTbQ8p9uz7wD6feMm02RRvjZdtvb48RMhet7CQck+m2Vwu68WHt9M58T1MsamMKsttNXPKlKkCHXu6EXu76y15XtXxUiGZ/PIUQGOq1qlCrVp/T/6Mv2XdOHCRVqydBmdOXNGSs4W39u2bBRD3I7S9bARo2jr1q3SufxPl06dqKKwik/ilIQOHzlCk1Se7WqJD6exo0fJSWN0hDDHCBsygcAnJWB4YdZzydm7/yDhvet3Dagfxo3RDGPzzZ2i99NRtRSF44YOHigMw/Tn7F68DCKHRA7CcjUJJ6WMwq1nrZrVpXNbwmxqdczCYm1py8OHDymdai/n2uI57EaUlyd9U/Fb6Znqf/gjIVeuXJRWDMMnEwZaKZMnN7M21xNmuQxe07xezBkfFMt/9JZtyel4l65lwpKcw5jxk2ipn598SzoO9zbvTcoJTN+paJFCunPI3Hv+VbTf3v1/SB8OlmwG2Cr7UOBu3Tlt+Zl8jM2hbDbIOnf2HLGV/V/CW1rggQOaXv7I4cPou+/qKI+/cP4C9ejZW7quU8dD9Kq1hnE8Z9ypc1dhjHdRSuPrs0harsYX04Vlvf+qVVI8/zN2zGjxe6uhXPOJejkVCztbZcc0YCg7puSQDwQ+LYF4Kcw3b92mSsLgRh1YCPfv3i6G+iJFle/pWVrv2rbJzKGHuhxL57aEuW2HzrQvMFDJ7lG7Js2Z8aNyHdWTVQFraejwSIMgOY/a2lqO42VKbkVLanrV1oRZzsdHdjt57M/j5L96jcY6XE4jG3gtWrxU44uchfLksYNyslg58nuwBfm6X36lgLU/a96HH6C2jLf0wI9t/LVPWNz3GxBpBMhD0ju3b7H5saCu6y/i3SZMnChFdevShdq3byudr133s6ZH/OfRw+psynlLMQVw6fIl6XpdwGrKniO7ci86JzD+ig4tpAWBuCMQL4WZcenNf/br05t6dO2k0AwJeUX5CxdTrvmEHUC0bNZUEydfcC+Jtw2Ug5Nwvyg7/rAlzNNnzqFZc+fJWUVvOyPt3blFM2er3BQnXLe34j8OCcR/8gdFJ+Fha4fwtCUHtQGaHMfHk6dOU8OmzdVRYlctc49bmgQ6F3rD/etWr6LixYoIC/Vj1KJ1G00uax82vIwtTDCUA7uBjI5/Zj3Gpm0ql60+fuhyKXVZls7V4qi31tlSPo4/dfo0eXXsLCXhuerRYh04h0Ni9OL7nr2kc/7HkjCrh7z1HJwoBdg4wXIpG4BwGwQMQiDeCvODf8RSqPKVNRjZMvvAvp2UKmVKJb5H775kutb5dzFv7CaGhtWBnX808mypmYtVGy/picahQLGLVfr0UjFXr12nqjU91EUS95pnT59mtrHDxi1b6ftefTVpz58+IYlz1+97a3qx1apVpUVzZ2nS8lKoDp26m3n1UgvzD5OnSWuC5YzsheuXgFVm66H1LNdlC3HuzRYvVU6zJIsN7fTKYQtmj/qNNT1e2aCNpxR4vlodeP6YN89QB+7J5y1YVB1Fo4QXrjb/0y4t0yQQFx/iYIQ9wvXrH9kbriY8vQ3or20X+VlqYV6y2IcKFSoo3QoQdgxr10baIbDXLrZ2Nw2cZorwGMZhkPC33aRxI+n87t17VK9BQ+mce+L79+yihCbuUPlmg4aNiY0BOWzfuoVSp9a3opcSWPkHDkaswMEtEDAQgXgrzMxQbwlOuzZtxLKp92tv2fiJvVupAw/JtmjuKVlBs+OO82KecJZwGWnq6nLvjq1iZ5+sUlZbwsyJTIezOa6ScDlZW2zKUKigGz189Ig2CmceAe/+kPN9DvXr1aXpUyKHOlf6B9Dw0aMjb7z7l71o1RKOLbJmyUynhZD4LffX9aOtFmbedIJdkaoDz9d36SwMmIoVIwexNvboseM0VBggqd+bP25OieFqeceqhT5LaOKUSFGRy8otPFzx7l2lxD7ZoW9C6dCRozRvwSKNKPOIQeCeHZJBHn/0FBMCr55L5qmH4cOGUCn34sTnf4uds8b+MFnsXqUdKmd3pUWEC1Fr4UNccrIxYaUq1ZUlSut/XkdZBGd1YPFu176DFGUqoGrnI8WKFqN5c2Yqxl2cgXeM8vLqRDeEBy8O69aIoejs2aVz/kftdaxzx47UsWPkc+QEmzZtpZHvDL74o2iNGM2IaYBLzpiSQz4Q+LQE4rUwPxFLVcpWrKr5g8/4AvfupMyZMikkufdo6gZTuWnhpFvnTjSgX6RRDyeJijBzL/7b6h5m9bHwCCmaRWnDzwGKRye9+XNr+dX31MLM8aZOPdRpLZ2zcRx7GpMDOw5p3LwlnRJD59EJvj7C57b4KJFDTNqAP2qWinKiEj5kE4tJU6YpvV4W3tatWlKBd735M2fOku+SJUoV9Cyjv6vXUPFnzcua2Cr7q8xf0UVhlb3Cf5ViPJZdbN+4bq12/fqNGzeocdP3H1ANGzagasKymz+MAv84QMtUxndsse3lpb82XqmghRNsYmEBDKJBwIAE4rUwM0/TuV2Oqyc2AZgxdRKfSoHFZaL446vn4EJOoz62+V8rMYTqrY6KkjBzBjZk6tCpm9mGDJrC3l2wKPuL3ZxMHYv88utv0laNennkuN69vqeVK3/SLNEyFWa28GYL9qPHjsnZrB6nTJxAjU28WnEG/gDq3rOvxiuatYJmTJ0i2kA7rM9z6hMnT6XlQqiiElq3bEHeYocv052cLOX9kG0fg168IG+xrM7W7lIl3UvS5InjKdk7H+tyXc4IK+4+Yr08e/+yFHiNvc/CBcQbWZgGv+UraLaJIxfTNOy8hD2DsVvOmARs+xgTasgDAnFDwHDCbLoUivctXrX8fY/FFBP7jC5ZtqJZL/Xgvt1mrid5ec6Spcst7snMjjYG9utlNv/Mz9TryR47GEhp06YxrZIkZL7iOf6rVmvmZ+WEPJTepZOXmDttYdG698DBQ9JGFaY9VV6zPVD8ga5dqwZ9U6GK5gPAdEcsfh57svJd6kdr1q3XHf7mj4PChdwkETTdflKuLx/54+an1WslYbW0HWXzZp5io4yuFveG5nL2Bx4QjlNmibpcNWszHkYvkD8fdRa9QtmVJ+eJSuD58CfPg6KSVDcNe/DiNcebNm9W5nPlhCyqVcVcf1fRY9WbA+Z07IbTW1jTy2uW5bzcA3cvUVzasSpVKstzwydOnhTuOUfRP2LURR14u8cGYqpDtuRW34vOeSrhijM6hnjRKRtpQQAEYpeA4YQ5dl9PvzSe97tz+w49+u+JtElENrElY2Yx9ChbYOvnin4sW3nfuXOX7t3/RxgohVDqVCkph5hfNN2QwlrJXMbFS5eJN3hg95V6HwLW8qvvcVk3b92iu3fvizlmR7GLUh4zT1bq9JbO2Qf53Xv3RQ/xuVjz7Uw5cmSVxDi6vTnu0bNfaM7HHwXqbSItPdtafLDolYe8fmMtSZTuBQeH0JUrV6S0X+f+WuOC01YBPJ/Ou2jdE3xy5chJuUV+S2KuVxYbhF0S+VlE3YRdQto05h9+evmsxTk7JRabibxfRmgtLe6BAAjEPQG7FOa4x44afAwCPDrwVPSa5Z25PsYz4luZ7FQkpegtR/ejKb69J+oLAp8TAQjz59SaeBdpHXpQ8CuQeEcgmUuSGO/fDIggAAJxQwDCHDfc8dSPSCC2hrQ/YhU/SdEYwv4kmPEQEIh1AhDmWEeKAo1A4FN4AzPCe1qqA7x8WSKDeBAwPgEIs/HbCDWMIQF7FWeIcgx/MMgGAgYhAGE2SEOgGh+HgL0Na2P4+uP8jlAqCHxKAhDmT0kbz4oTArwxSXDI68/aWputr12cnWDoFSe/MDwUBGKXAIQ5dnmiNIMS4KVUvNlFbKxzNtorci/ZOYkTlkQZrWFQHxCIIQEIcwzBIVv8JMAewkJehwqHLW8oPCJy2834+Cbs+9rRUQiykyM8esXHBkSdQcAKAQizFTi49XkT4F2pwkLDKCwsgiIiwqWhbiM6J+Fhaun/hImEx7aEYvcqB3JMlOjzbhy8HQjYMQEIsx03Pl4dBEAABEDAeAQgzMZrE9QIBEAABEDAjglAmO248fHqIAACIAACxiMAYTZem6BGIAACIAACdkwAwmzHjY9XBwEQAAEQMB4BCLPx2gQ1AgEQAAEQsGMCEGY7bny8OgiAAAiAgPEIQJiN1yaoEQiAAAiAgB0TgDDbcePj1UEABEAABIxHAMJsvDZBjUAABEAABOyYAITZjhsfrw4CIAACIGA8AhBm47UJagQCIAACIGDHBCDMdtz4eHUQAAEQAAHjEYAwG69NUCMQAAEQAAE7JgBhtuPGx6uDAAiAAAgYjwCE2XhtghqBAAiAAAjYMQEIsx03Pl4dBEAABEDAeAQgzMZrE9QIBEAABEDAjglAmO248fHqIAACIAACxiMAYTZem6BGIAACIAACdkwAwmzHjY9XBwEQAAEQMB4BCLPx2gQ1AgEQAAEQsGMCEGY7bny8OgiAAAiAgPEIQJiN1yaoEQiAAAiAgB0TgDDbcePj1UEABEAABIxHAMJsvDZBjUAABEAABOyYAITZjhsfrw4CIAACIGA8AhBm47UJagQCIAACIGDHBCDMdtz4eHUQAAEQAAHjEYAwG69NUCMQAAEQAAE7JgBhtuPGx6uDAAiAAAgYjwCE2XhtghqBAAiAAAjYMQEIsx03Pl4dBEAABEDAeAQgzMZrE9QIBEDgMyew+85ROnb/HJ3/7zrdfv6AHgc/o+CwV/T27dvP/M31Xy9BggTk4pCE0rikoCzJM1D+1DnIPaMbfZu5pH6GzzwWwvyZNzBeDwRAwBgEjjw4R2svb6cd1w/Ty9AQY1TK4LVI6uhM1XKUpiZ5qlOpDG4Gr23sVQ/CHHssURIIgAAImBFgQZ53OoAO3D6l3HNNk41KZSpERdLloTypslFGl3SUPHFS4p6jPQYeKXj+5iXdD35Il5/cpFMPL9ORe2fo0uObCo6yWYpQt8KediHQ/wcAAP//UXW5wgAANDNJREFU7V0FeBTJEq4Hh0twPRwS3CG4u7tDcJcgCYHgARI8OMGDQ3B3dw2HB3d3Pw7udfVeT3pmZzebZBPYpeb72Gnvnn/C/F3V1dX/+5ddQBchQAgQAoSA1REYfGwGLL+0jbcb648Y0DBbJWjkWBGyJsxg9b7sscGrr2/DqqBdEHBlJ3z+5yt/xKY5qoJX0a72+LjKM/2PiFnBggKEACFACFgFgYuvbkL/A75w7eUd3l6rXDWhV95m4BAjrlXa/90aefv1A0wOXAaLLmzij+6UOD2MKe0KORNlsksoiJjt8rXSQxEChMDPQmDvg5PQe894+PjtMzglTgdDi3WBwslz/Kzh2FW/J59eguFHZ7IJz12IEy0WTCrfD8r9WdiunhEfhojZ7l4pPRAhQAj8LASQlDvtGAm4QlglYzGYWtYD/ve///2s4dhlv4htj30+sP3WUY6tX+VBdkfORMx2+adLD0UIEAKRjQCqr5tvGsAl5fpO5WFMSdfIHsJv1V//Q76w5toeLjkvreltV2ptIubf6k+ZHpYQIAQiCoHq63rwNWWUlKeVGxBR3VC7EgLd93pzyRnXnLfUnSrl2HaQiNm235/J0f/999/wzz//GPKZKi12rFgmy1IGIUAIhA8BYX2Na8qb60wl9XX44LS4Nqq1a6zHCdFdsCdr7V+SmPfdOA5jd86B07cvWvyCCmbICc4Z88GwKt0trhMRBT99/gxsgclk09GiRQP8F9FX+05dYc++/Uo31y4GQvTo0ZU4BX4dBPDjcvfuPfjr0mV49+YdZM3mCNmzOkHs2LGtMsjPn7/AwcOH4f79B/D+/QdImTIF5MyeDRwds1j1bwL7+fffH4YxWzgZDAq6DmcDz8PTZ88geowY4JQlC+TInhWSJ0sW5mf//v07fP1q2FqjNGLheJTyoQiceHIRmm82SMjLavqQoVcosLNGUTQIa7bJgze1tIY3OKfIaY1mf2obvxwxD9s+DabvWRxmULqVb/lTyTmDY/YQx57VyQny5M4NefPkgjq1akDMmDFDrBPaAu06doG9+w8o1a5eOAcx2IePrl8Hgbdv34HHoCFw4OBh+Pz5k9HA/kydGoYOGggVypc1yrM0YdLkaTBn/kLd9rENr6FDoUXzxpY2p1sOiXD8xMkwa85cVf7Zk0chYYIEqjQRuXnrNvTu5w4XLl4SSap74UKFwHf8GD6JUGVYEGnToTPsP3BQVTJWrNhw+fxpVZq1Ii47BsOR+4GAW6KGOHcMdbOXntyAH2xCE/OP6JAlafpQ16cKACNOzOZbqYqnyQv+lb1sHpJfjpirzmgXKklZ7w38THK2hJjlMefPmw8WzJ0F8ePHk5PDHSZiDjeEEdoAElPrdh3hwcOHIfbTtXMn6OvaA6JEiRJiWVHgx48fMGiYFyxfsVIkmbyXL1sGJoz1AQeH+CbLmMrA5+jeqw9cvXbNqIgpYr585So0b9UW3rx9Y1RHTkAynTjWG6pUrignmw2v37AJerv1NyoTUcQspGV0HnK46cJQ71P+9uM7pOpfjI83WfzEcGnwVqOxWzvhr0fX4BubTEX/4w/IldLR2s2Hqr2v3/6Gi2xigleSuA6QLmHqUNUXhXGfc4nlrbkTEnuQmn85Yk7q5iywhufjTijhkAJaSftnkXNoiRmfK0vmLLBs0XxIkiRxSI9pcT4Rs8VQRXpBXO4oWKSkkRSLfwfx4saFK4zktBL04IEDoG3rlhaNFVXjvfq6w6bNW4zK40RQr/1GDRvAmFEjjMqbS/BfvBSGeY0yWUSPmAPP/wXNGClrny9d2rQQi9lB6BH8gT07IW2aP032IzJev34NxctUNGob8yOKmPsdnAjrg/aFWVr+GcQsvrFxYsSCOyP3C/h+yv38o6tQYZIL77tG3rKwoLlPmMchpOY6jmVhfKk+YW7nV6hoN8SMYP4K5CwTcwKHBLB141rlPf/z/R+2zvcQNrAP5qqA1Uo6Btq3aQ2eA9xVaeGJEDGHB72Irbth81Zw7dNP6SR3rlzgN2MKpEienKehathzyAhYGRCglEHi2r97uxI3Fzh46Ai4tOugKuLWtw90aOvC7RtQmt68bQf06t1XVWbH5g183VmVaCLSsVtP2LVrt4lcQ7IeMdeu3xj+unBBqYfP5T9vNqRLl5anIbl27u4KJ0+dUspUq1oZpk+epMRNBXr2cVNNRlKmSAmPnzzmxSOKmPP4N+LbozbXnxImN5tEzNYjZnTfWWNNT7596rzLKlN/JjaRblfEjIj/bHKWiRk/DEcP7tH9Q5g2czZMmOSr5CVJnAROHTuoxOUArkXuP3QYHjx4CO/fvYNkzDDGMUsmKFa0iEn1ZmiIGQ2PTp46DfdZ+0gKqVKngry5czEjnGzyMHTD+JG/d+8+XLt+Ha7fuAVfvnyBrFkNxkvp06UzOT7RGPZ38+YtuHTlCly/fhMSJUoITo6O4OSUBZIlTSqKmbyHBRuTjYWQgc967HiwFicGsw0omD+fbq0nT57CzVu3lLyMGTIo66XadxN46riRGhml3hx5C6mkvxtXLkLUqFGUNk0Furv2gS1bg0m8W5fO0K93T6Pia9dvhL7uBqMZzCxdsiQsnOdnVE4vIV+hYooqWqic5y1cBKfPnFGKa4kZ1d4VqlRX8nHiumPrBqP3jBqFOvWbsL+n60rZdQErmE1GbiWuDRw6fBRatW2vJKP6/xrTPAgDyIggZnQm0nG7F/futaXuNKXv0ASsRczP3r+CO68fcFVw8nj6mjf8m8IrmXsRfkeJ+bbXPh425QQFx/fwzRN49uElZE+eGeLGsMwg8dPfn+HK09uQME58SJ8wFUT5n/HfLY4HJeaKvq35GKrlKQML/5OYTY2HFzTzU31dd26hPbvKYJt2OmJ3xIzv7GeSs6XEjNuZnHLmVf2JBV06b2Sx7TN2AvjNnacqJyJI/ON8RkLxYkVFknLXfvz1jL8+fPgIvZjkJhuJKQ2wAEpys6ZNVghFzsPwtWtB0Md9AFxmpKp34WRjwZyZkDOnvjvC/czoqTdTuZpaa6xerQr4jPSCuHHj6DUPYcUGG3vz9i1s3LSFk0LFCuUY4UXV7UNOREvffIWLq8jy3KljkMDBQS7GwwMGD4MVK4Nn7WO9R0HD+nV5Xt/+A/kECyPZs2UD157deLr2p1a9hopxFBLLpcBTFm3DqVSttorUjh7Yq/sOcVKUK7+z6nkunT9j0dY6QczFixVj69OjuRV1w6YtzRLzDiZhd2aStrjq16sL4330VeHTZ81hBmXBUnKHdm1hYP9gLYNoA+/4XipUqaGs16MUvnPrRujawzVCiXnMqfkw5/y6MKuxcezhIWYkP6+d7JCM45vg49fP2By/EsVxgCq5S8PYmm4QI1rwToz0g8qoyonyeK9XsDL4NR4hJ8HUQ4thGjPEffXxrZKeL312qJS9BPQu3Qai6tg8rPlrJ4zd4Qe3nj1Q6mCgUq4SMLHuQBCThguPg6DcRNNLMxMaD4RWBWur2rAkItTZHfLUhf6F2lpS5ZcsY5fEjEj/LHK2lJhxjOLjhmG8zp8+oTICG8csXWfMMi/B4Ad71VJ/I/ILiZi/ffsGrdp0hOMngyVAwyjUvxkzZoQ1K5cakY/2I6uupY7Nmz0LypUppUr0mzMffMaNV6XpRdAyef3qVZA4cUJVdniwef/+PTiXKKsQEpLLkoVzVe2bivTz8IQ1a9cp2b7jx0HtWsFSoMgoVLQUvHj5QkThwtlTJicYSiEp8PrNG8hf2GAUhMkVy5eD2TMtk8rkv6uQJEX57xX72bZpPWR1CtkgqFip8tC+bWto49JCmSyERMxLlq6EwcOHYzf8GjzQg62btxJR1X312vXg5jFQSatYsQLMnj5FicuB8ZOmwPSZs5SkFUsXgXOhgiBvGQwJB6VyKAIuOwzW2BPL9YVaGcuEomZw0bAS84evn6C0b3O49+JRcGOaEJLo+g4zIHb0WDzHHDHXzl8B5jYNniSN3zcPxmydrWkxOOpSoh6Mr90/OIGFRu+aBZN2LlClyRGcMGztPg8yJUkDaIBWfpL+u8c64xt5gEshw0RWbiOk8MZb+6HP3glg69bZNkfMYo8zviD3Sh2gbGaDWkbvhf0McpY/dOZU2c+fv4DCxYPJSvvh0H7E8PlKFi8BmTJnhLNnz6nW6VAluC5gOaRPn06BwRwxowqpB1tflNWd2EbJksUZecSFQ6g2l6yF8+bNA8v8FzADmuBtXVqpDAm8AFProiR6mKkVZeMelLw3rFmpjE1PUmvVvBnkYapKVHdu2boN7t67p5Qf4O4GHdu3UeLhxWbFqtUwgG1Tki9TUqVcBsNHjh2HFi7BM/Ea1avB1EnqCcaly1egRp36StUqlSvBzKnByxZKhk4A380ltp+5u2tfFQZLFs7T1YzoNAHlmfR4S1KjH9y7E9L8aWw8he8hc7ZcqiZmMfKrzEgwpAuXELRW3CER8+Zt26EHs+AWV906tbnVtYjLd9zmNWX6DCUJDeN2MrW39rp1+zaUrxw8MWrYoD6MHW3YLhPRxFwuoAPce/sEwrq+jM8SVmKecXgpDN1gmKhkTZURepZrBWkTpIITd/8CvwPL4dm7lxyqhW3GQvXspXn48O2zzBr7GzTyC9ZarOpkaCNlvCSQNXkmXm7Vua3QbZlhAoXq7gFVO0H+NDmZavomTNw9Hx6+esrLDa3VA7qXbMHDn//+Amk9Df1gnSlNhkDpTIXgxov7MO3gItgcuI+Xa1+6EXjX6Aso7Z+49xcEPbsNg9YZNCPoi8K9UkdeLluyTJAifhIeDs2PWGdO65AC9jacE5qqv1RZmyNmeTsVvshtXfXVvALlyCZnS4gZ12Fxi4lY/8KxylIbOlsoUqKMeAR+166xzfCbC+MmTFTK4JaXuX7BHzJzxLyJrT/2ZOuQ4kKpdNP61YpU/P37D8D6Bw4dEkVAlm5Os4lBwybNlTxUOU+dNEGRnFC1WIRJpLKK+lLgacVhxpGjx6BF63ZK/V7du6nUuWgAhMQvJE75o2wNbLTkipOiM8cPqyYeyuA0AVxndi5eRhkb1r1w9qRq7XfKDCY5+Bo+eFjdb8ZUqFShvKal4OgC/yWwbsMGtr7/A27fuaua1GApNHxCAyhLr45dusOuPXuV4qYMC/UmKNpJkNKIBYGQiPnK1WtQrVawFISTwY3rVhlNGt69ew91GzVVTS6w+9tBl41G0aJ1ezhy9ChPx/b27tqq7J2OaGIWhl9nWi4P9TYp8SBhJWa/oyvg+vO7vJk+ZdtCqvjB9hhzjgfAwDWGyaIgQtEf3kOyynYeV19RRW/uPhuc0+VRqgc9uwOVprTmKvHUiZJD4ICNPG/3tSPQdK7hm9K8WG3wZWprcX359hXG7p0Ln799gWRxE0HvMsGTbGtaZWN/uG2qwOKmNm8AZvfEjC8rMslZJmb8aLv2CF4//P7vD27AtW/fAcVaFMeH14K5s6FMqRKGMPtQjxg1mofxZ9hgT3BpGUyEIqNpizYqVbSsLjVHzFqLWj1r3E+fPkHBoqUUkpClXiSQd+/fiWFA/HjxjNZox4ybqHI4sZRJ3MWKOvM6WjVl+7ZtwNPDTWkPA9gHc6GmpIk1YCSx8GKDUml/zyEQsHoNm4wkALd+vaFZ44ZKXyEFRnmPhbkLFirFVi1bDIUKFlDisuUx/g2cP33MyHZAKcwCw0f5wEL/RXISD5uzITAqLCVs37ELuvToJaUA0zi0Y5b/LpA0aRJAaXfNug3gNdpbVQYjqLkYPnSQUbolCSERM7ah1bTgM06ZNA7yMa0M7tO+yuwW+rE1eD27Ba0x2bbtO6FrT1dlaGNHj4SGDeop8Ygm5izzavFTpK6326hMSpXOLQyElZjNNX//zWPIP6oOL1KRre0uazVBVdwcMb/78hEyDS7Hy5fJ7gwBbaao6mKk/XJP2HB2N08PGr4TEsZ2AHnNGFXWk5sMhoqOxXXXoeUGrU3M+H8b3wsaj+F7sdXL5og5NKps+aVEFjnLxCz3by6MH80B7n2VIlqrWvzgZMqUUckXAVxbO3b8uIjChrUBkPs/QytzxCyvQWLlNSuXKW3IgfqNm8lRXYlFFEBJEo3J3n14D+/Yh3+G32yVqnz+XD8oW6okL36HSYVlK1UVVfkdPT1VZ1IhEpwjc8toyvrYGtiIjtEADwlfkL5ID+l+gamaa9VtoBTrxN6fx3/v7+XL12xCU1zJa9KYqe68hilxvYApYhZl0Vrae+RwXQMuUUa+46QGcdq+Y6eczMNokCc0EZiAExNZs9HGxQWGeKrXDo0aMZFgCTGfORsILdu0VyZ8oimcwOAlL4GIPHGXJ57o/rNUuUrKs+Byy1r2dyxb89o7MSOpn71/EU7duwAXHgXBi4+v4P3njxD0+LZi5BVaYj506wzUm9lVQA550mVVwiJw/u5VEYSVHX2hXJai8J39/y8xqQnceGKQ4rEAqrSLORaAYhnyQd3cFSG1Q3KlnggQMQsk1HebI2b18EMXiwxyDg0x40dx2pSJUJxte5Kvxs1dVPs45Txz4TkzpyvuG00RM360M2fLaa4Zk3nyhxELnT5zlu0b3QrHTpxSWQHrNSATM+bLH01tefxIly1TEurWqsXupVTEaQ1stP2FJS6v4+L6+p7tm3kzWm2AMEQy1weuy7969Yq7WH/x8iUEBd2AeUwil9fZUZ2/ZcNqs5K33AeuH3fp3kul0pbzMYw4D2Tr97JBVt/ertC9i2GdT1s+pLglxIxtnGBb85o0b2W2OZzQ3GL2BvJ+ZlmVrTX42rhuNeTKkV3Vpvw3hs9qbZecP1OV/ejdc2i3xCNEL4mhJeZ5J1aDx+pxKhzNRcY27A9tChu0FC8+voYuq4bC/ssndKtUyV2KW34LYzQsZG1iJlW2LvThTxRqFmwpNJ6/LO05oslZS8wtWwSroK8wV4TyPk/cKrOZre3Ks3x8jqo16+p6QArpGWULYVPEjBbJuQsYVMohtafNP354P98Wg+Q+ka2holRs6aUlZiSOgUOGGzla0baHGC3xn6esG1oDG20fYYlPneHHMJisVBUGVl3YFh0hqaJ0evLoAaP3q1QyE8B1+nqNmqlUuqH1a42W975TpsOyFatUUjF2i0ZrQ5hV9I6de1TEPMpreKjU+vIjWErMWAcl5wnsb0jW+GA62jv069sbateoptq1gJPYc6cMa8n3Hzzg0jKWx8uU1zItMeOSAl6oIQmNe1NeSefnZxp/lZncAi49uM5HhWu9lXOWgjypnMAhVnz49O0TdF0yjOeFlpj33zwJDWf14HXRqMyzarD0zBPZz2e2ZhwrWgweRZeeWkn40dunsPXKQTh+OxAOXTul2m6lHY+1iZmMv8RbsvJdNu6KKLeaWnJe1WmyWevu0DyiTMxaq+xnz58zwyGD5aJo03fieP4REnG8o8tC+YOFH+QYMaPLRXj4y5ev/B4zpuE/CUreqVKl5GmmiBnXYDI65VC1hXts9a43b95CggQOSlbtmtX5aURaxxRYAKXGksWLcecn8ePGgy3MAlfeiqUlZtEoGvqgte6hw0fg9OmzimpS5OMd3UiuWbWUJ1kDG7ntsIbv3X8ApctXUqrjYRMtmzdV7QuWVdxKwVAEtjLvXN169VZqyBbHSqIFAZxIPX76BJ4+ecbeTxJOfmIyiP60ly5brrSCyxr586n31yuZIQRCQ8yiKXz/Dx89gm/siNLMGTMoBoJoAJjfOXhJQDaO1DNaE6pw0S7eTanFGzdsCD6jDFbHcvnQhl1+0nYpJL48I2vx4aJ/7UDPTRAtSlRl+MfunINa0zvzuJYIMVEIP6hq1rrkfPv5PWQeYrDKN7XGrHRkQeDv73/DirNboe8qb6X0/dEHIeZ/xC4TMzoY8W8xRikXlgBtlwoLahbUwTXkRn7BhisRRc7yBCCyiBkfX+sUAyWEvTu3qlSU6LRj3foNClqb2NqxKScdSiFNwBQxYzHcgyq7KrTUcYXoQrvOq7dPGSW1ydOmiypgipiVAv8F0Phn8bIVsGz5ClWW2ONtDWxUDYcjgpbDgezIQryQOLoxb1PNWrkoLertCUaL8OFewR+pbp076u6Dxkb27j/IrOMNH1iMW+qZC/dAv3n9BqvwK23aNKrlAJGO5Cf7lkZy01qYi7KW3EMiZpwUon2BuOIwxzGmvLtp96l7erjzfdNYV4+YRZuW3MM6wdG2HexgpAY7VaqTNtuieFiMv47fCYSa0w394V7lnd0WKH0hxt0ChkPAqW08TY+Y5f3MZwaug7TMM5d8FRhTV9kfva7rTCiRIb+cDRP3L4Az9y7ytBHVXPm+ZP9T6+DknQs8zcW5DhROm1tVJ4dXNWUL1w2vPeAQMy7Pl/czy1beqsqhiIw44cdOmdoM5GAkFKBZWlQr0UYEOct9WLN9cxIzPj+uJyIxyrP5IZ4DuaMGgc+6DRuhj5uHiAKqw0cM8VTiInCRHZkXeN7wHwTT6tSuoTixMEfM7gMHc4tk0c7MqZN1T/DZvWcfPGFSFl6x48SCenUMs3TZeYbexxw/DjXqNFCpYWViPnrsBLMMfsvbRcmtUsXyRqpFrWQsDNusgQ12jMZqR44e51bKljjU4IPV/CxeugKGDB+hpOK6qPD2JW/xUgqwgNY4DI8A3bx+DSPOKHIxHu7LrJPXrluvpDdt0hhGjxiqxJ88fQrn/7oApUqUUG310lrEu/bqAb26dVHqiYDWWYrenmxTfYg25HtIxIzScZ6CwcsoqJ7et3ubsk1PtKVnHLhnxxZAt6Z4/SrEbG2XnPhsncs2w5vuldohKXQu3gxQCk3tYTCkxIL4/aqWvRS8YdLu8tOblD3DmKdHzEUnNFKMtAplzA1NClaHHCkcoUAawxr9gpNrwT3AILmiVN2rggsUTZ+Pn9y0/PRmWHdmJzYNSKSn+q/j0vraC7ug0yKDNT9aZXvXd4MijJy/sH3T844FwOz9hol2qWyFYE3babw+/rz+9BYchwZrntADWYWsRaFIuryQJoFB+6cUtiBALjktACk8RWTixHasSZ7atq25lh0SMeOzTJ4+E3wnT8Ugv/ADdeTAbkWNp92qhIU83PpB61bNlTOVD7KDCnoxp/3CohYJUt6La46Y9Yxv/OfNgRLFi3KCRNXnwkWLYaR3sFoJnZssWmBYU5b3juLYRgwdAs2bNuJ10c+x+wBPlUU2lpGJWUsIWqt0VPmjr2Qh1WP9syeOQMKECcEa2GhdOIZVgtJ658JxigsPjejaKdh3s0jHe+t2nVR7xFFV7z1yGGTOnIljiHu1J0+baXRko+z8Q3aygu9+PXMw4+iYhXejt9cb31GLZo35eje+XzwZSrtdavf2LZCJqZPFZa4PUUa+h0TMWHbIiFGweIlhWQLj+OyTfcfBn6kMUtvt23fYyVhuiitSLFOzRnWYMjHYIAknt7LkjWX0rgGDhqpsNdAXAF7Jma/5lClT6FUJdZowAAurkxFZYg6pc1zzPdR7OS/msWkCzDu4SrdKjj+zKOvPesQ8cscMmLzbX1VX6/krJC9eSNhrOs1QyByfo+qMtiBbbKs6YBGss7z9JE7ycp6svRTpYfH8JdaX40SLBXSIhUAyAu5aArUGOUdEm/KjW0LMSF7FmdQsSBXrd2cHDfSVDhrQI08shxIW7kOVSQvT3d36QpcOwU47zBEzlp89dwF4jw3+2GEafuDTMbXnXXYohSzRY17A8iVQsIBBpWWurt6xfVhfJmaU9GvWU+8bRkMpZ+eC8Pe3f4w8h5UrUxrmzZ6JzfArvNhs2LgFXPup902fPnbEyO2n6M/cvU2HzrD/wEGjIkf271HW+7WZqIno0KWbNpnH8R1osccM3E62YslCxZCsZNmKKu9sLi1bsP3uA5U2tb66MQPbRkJ6/PiJUR+tW7WEoYMGKPUxEFIfqsIsYgkxY9/FSpfTVuXr3pgoe5zDOI4ZLd7DQqTyPn9sx9pW2Tg+ax77iO2Zu5Bw9/daohQZx5x2zGXkLPuybl2yPnQq1gSKjjH8/0If1Us1+5jxDORph5fA4uPrFS9eer6yJx1YCLP2LVO1j53XzFcOBlTsBFmSplfGggEk53F75sDS4xsVtTWmIyEXzZIPxtfxMDIUw/yHbM3c94A/BJzcqmzzCouvbOEnm459RFQj+LImkVqzLVOPbQkxY915C/xVEimmnTxykKtWMYyXuQ+4oYThV2+vbEjEjDW92QEZs00ckCG3P2Gsj6LGxnSUFF3adlBJNXJ5DKOUI58HLBMz5k9ge7CnSf6NMU3vwnXVSRPGKFbZokx4sNHz8613wpPoy9xde4Qjli1YoACbyCw2Vw32MjLv3rOPEUHqVUKr45HDBqvsELSOOrSGZjj568+WLDZv2arXpCqtTu1a7DCJ0Ubq9JD6UDXCIpYQM9bRanu07Yg4kimeU27uVClRVu8eGcR84slFaL55AMT8IwYcabowzB7A9MZvaRoS2xdGtmkSJofoUY2NRM21g64xf7ClpzjMn7YwCJTL4/7kR++ewsuPbyBejLiQNlEqlaGZXFYOoxHZ3dePmPOR+BarpH8wB0zoJQzHY+kpVqJP3CZVfHlr+PLPV1hawxucU4RtS6ho72fff7l9zHqAWINQrdGG3ti0aTIxo2HXoX27tEV4HNWpJdih7rKzB+3HFQviB3z6dD84G3jOqJ1czJlIH9deiscwuYDWLaPeyVW4FrzAfzH/p5VUsC08OKA/27oiqzdFH/jh92TbnfYzAyVZ8kcPYYM9PfhRjh6eg0VxWLxgLlOVF1PiGMAtMyN9xigGVHImrtE2alAX2jFvVXofDCwbVmxwq1aTFq2VrWt4RKBbn2CDQ3kcIYXR0UWBIiVUBGvptibUTIwYORrOnjuvwlD0iVg2btRAd/sSWrK7ewzi/eLf2dJFCyBtmj9FVeWO6+C4tU1+RyITtRQ9unVmKu4mRmv8WMbSPkR7MhFimqmTtzAPj8VEQz559wGmiwv9i/fr3Uv3b0+UCekuL7lElMSMY2jNrLMP3w9kp0yF3QgspGehfPMICKOvEmnywsLKXuYL20CuTRAz4hgeYg1P3V/lHaLR0MPHj+DD+w+QJHEiQEvbmOw8YGtcSNCoYnz0+DH34JMieXKuWtQzSNLrDwkG135TpUxpdLCBXnltGvb/kPX98OEjiMcO0cjC1lqjRYumLWYyHlZscNxx48QNkwrb5GDCmIHr6hcvX4GvjOhxIpQpUyYjCVbbNE4K0AmJE1tbNjV5EXUePXrMDj65CDfZGm7yZEkhfbq03A1mSF7PQtOH6Cs0d/Qbf5nt77/Aljf+YVum8MjG7NmymlwGCE3bkVVWSM3Y37KaPlA4uXo7YmSN43ft5+TTS9Bsk8FY1h6kZXyPNkPMONiwEGxY6mBfdBEChAAhYCkCQ47NgGWXtoFT4nSwqc5UiMJ2G9AV8Qig2rvm+h5w7eVdaJajKowoauwQJeJHYf0ebIqY8fFDQ7ShKWt9aKlFQoAQ+J0QqL4OCeIOVM5YDKaXUxvS/U44ROazdtvrDTtuHWUTovSwpW7wTpfIHENE9GVzxIwgWEK4lpSJCECpTUKAEPg9Ebj46iY03zQAPn77DPWcysPYkq6/JxCR9NTuh3xh7bU9/IjHpTW9IWeiTJHUc8R3Y5PEjLCYI15zeREPKfVACBACvysC+x6cgk47vLhlMUrOU8v2Z2ptY+cxvys+1nhutN7usW8Ml5RxycCv8mAo+2chazT9y7Rhs8SMCOoR8Ilb51Qnrlhj7/Mv87ZoIIQAIfDLI4Dk7LpnHJeccc15aLHOzCDMtrfv/Cqgn3x6EYYfncXXlNGRiG95N7sjZcTapokZH0BLzpgmLiJlgQTdCQFCIDIRQLW2xwFfuMrWnPFqybZSueZt/lP2OfMB2PgP7lP2DVwKi5kfbLyysjVln9KudqW+ll+RzRMzPoweORMpy6+ZwoQAIfAzEBDW2tg3OiFpmK0iNMxSCbInCnZ9+jPGZSt9Xn51GwKu74SAK7u48xActz1ZX5t6D3ZBzOLhkKBLZy7Io2UzFxHJdCcECAFC4KchgOrXGYEruRMSMQhHpuJ2TpUL8iR1BMcE6SF1nKQQL3rsEPeji/r2dkdfBu///gQPPz6HoDd34PzzIDjx6AIEsW1Q4kLnIV3zNv4tlgXsipjFC6Q7IUAIEAK/GgJI0Kuu7YRdt4/z9edfbXy/4nhwHblihiLQyKnSb0HI4h0QMQsk6E4IEAKEQCQhgAZi6DHs6stbcJ/5on7x6Q0/VhElx9/xQs91sZiqP0nsBJAmfnK2hpyR+7u2N2trS98tEbOlSFE5QoAQIAQIAUIgEhAgYo4EkKkLQoAQIAQIAULAUgSImC1FisoRAoQAIUAIEAKRgAARcySATF0QAoQAIUAIEAKWIkDEbClSVI4QIAQIAUKAEIgEBIiYIwFk6oIQIAQIAUKAELAUASJmS5GicoQAIUAIEAKEQCQgQMQcCSBTF4QAIUAIEAKEgKUIEDFbihSVIwQIAUKAECAEIgEBIuZIABm7ePb8Bbx59573FitGTEjzZ0qr9nzj9l3oN3AYb3PutImQJHFCq7ZPjREChAAhQAhEDgJEzJGA89t376BNlz7w7Z9vvLfEiRLBwpmTrNrzlWvXwX3ISN7m3KnjIXmypFZtnxojBAgBQoAQiBwEiJgjAecho8bDub8uKD0RMStQUIAQIAQIAUJAgwARswYQa0cPHj0B4ybP4M06ODjA27dvgYjZ2ihTe4QAIUAI2A8CRMwR+C4/ffoMLp17wZevXyFPzhyQOnVK2Lpjd7iJGU+gefHyFcSNGwdixYzJn8BSVbaomyhRQogaJUqEPf3rN28hZswYyvjC09G3b9/gzdt3kDRJ4lA18+Lla3CIHxeiRYsWqnpYGOsmTpTgtz0fN9SAUQVCgBCwGgJEzFaD0rihcVNmwsEjxzkBLpjpCyvWbgwXMSPZzZjrD8dPnVE6Qym8VeP6zJgsldk15j0HDsPy1evh6bPnSl0kujIli0OrJvWVtGUB62H1+s0QNWoUWDR7ii6xrtmwDZauWsPLLJ4zFWLGiMHrP3n6DHxnzoOg6zeV9fS4ceJAkUIFoEu7lhA9enSln5AC379/h/lLVsGBI8e4lgHL40QidaqU0LRBHShRtLBuEzhB2bRtF1s6uAgfPn7kZdKkTgW9unSAy9eCYPHy1ZCYGcbNmTLOqD5idPDoSbh85SqfTGF/To5ZoEDe3NCgdjWIEoETGaPBUAIhQAj8tggQMUfQq79w+RoMHD6at96lnQtUq1QOZs5fHGZiRqmxh/tgePjose6IC+bPC6fPBvI8rfHXeDZBOMAmCKauwgXyw2D3Xjz7FrPu7uUxhIeRzCqUKWFUrXNvDz4Ox8wZYcKooTwfn3ewlw98//GDx5HURBgTcAIxl5EhStEhXX+zZ+3s2h+ev3hpsmh7l+ZQu1olVf6de/fBtf8QVb9ygXy5c/G1fpwsLJ9vWF4Q+TjZWLhshYga3YsXKQwevbsZpVMCIUAIEALWRoCI2dqIsvaQkNp06Q2v37yBjOnTweQxI3gv4SHm0ROmwrGTp3k7xZ0LQ42qFSFN6hRw8ux5WLBkJbx/b9iKhQVkYkay6uE2iNdzypIZ2rVsAunTpYELl65CAJOMrwZd53lTxnpBhnRpebhttz6cFHPlyA6jh/TnaeIHyRLz8ZKJ22OYN1xikmasmLFg+MC+kM0pCxvTB9i2ez8sXhHAy7dt2RTq1qjCw+Z+1m3eDvMXL+dFqlUqD9XZPweH+HCKPevCZau4BB3tj2iwdulcpZm3bCsakrmQkl2aNoSizoWYlP0/OHbqLPgvXakQtpaY9x8+BhOmzuJtpUubBpo1qAu5cmSDW3fuwPrNO+D0OcOEp17NatCmRWOlTwoQAoQAIRARCBAxRwCqS1auhZVrN/CWZ/mOhdQpk/NwWIkZt1u16NCDt5EjW1bwGTZANeo7d5mkyKRcIaHKxPzXpStwiKln//gjKiBZyRIrqrXb9+jH22rdrAnUr12Vh1es2chV1RhZ5e+nUmeLPJSIMQ/V07huXatJa163fu0a0LpZQx4WPxu27IAHj56AY5aMULFMSZFs8r511z64feceJE+aGBrUqaEqt2PPAZg2ez5Pmzp2JJ9kYATrzJy7kKd379gWKpcvzcPi5+iJM+A9cQqPaokZMUAsMH32lPEQL25sUY0/m6vHUEbSd3naxhULad1ZQYcChAAhEBEIEDFbGVWZ7LQkFVZiPs0kxeFjJvKR4tpoiuTJjEY91W8B7Ny7n6fLxGxUUJMgSKlCmVJMAm7Hc9+wteyWnXrysCwVY4JQYxctXBAG9jVMFjC9kUtn+PzlMzdsGzXEQ5mMYJ41ry9fvkJDl468SbdeXaFUMWcenjjND/YdOgoJEySARX6TdbvsyZYCbt+9xwlYqLJxLbtOs7a8fGe25FCdLTlor6Cbt6HvwGE82XeMF2RKb9AsaMtRnBAgBAgBayBAxGwNFKU2hEoX11T9mRORqFGjKrlhJeYlq9bByjXrufHT+uULlPbkgCwx6hEzWhlfZKrmK0E34NWr1/CRWYx/+PCBExW2IxMzxt0Gj+RqblmdLauxRw7uzyzNs2NRfs3xXw4bt24XUUiZIjnky5MLnNnad748OUMtZaIUfu/+Q7h4NQhuMGJ8x9TiqKZGlf39h494PzIxd+zlDo+fPIWC+fLCUI/eyjjkwPQ5/rB9914VMV+7fgv6DRrOi40fORScmFSvvXDNu36L9jy5U9tWUKNyeW0RihMChAAhYDUEiJitBiWArC4dNqAvt+aVmw8rMftMnA5HTpw0u83qr8tXwXO4N+9OJmYkuFlodLZzjzwUo7CWmPcePAqTpvvxcgH+s7kKXKixtapg0Riq8Dds2c4tmkUa3nHduWnDOhatL2N5XJse6j0erjNCNnfJxNyqUy++pm/OSGv+ohWwbss2FTHLqvGVC2ZB7NixdLsUGoEqFcpBtw4uumUokRAgBAgBayBAxGwNFP9rozszsrrLjK3wypMr53+pwTdcp0SJD9dns7O1Yry6dWgdotrXn23xWb1+k1mJeSdbe53639qrTMyyJItqXueC+SGrU2ZwiBsX4sSJDZ4jxvCtTVpiRivwhq068nVroc4Wauxa1SpDB5dmwQ8mhXAicPb8BWYwdYEZa51Tbc+S17GlKkZBGce0f6bm261wO5hDvLiMOOMoEq5MzF5jJ8PJM2e5ml9vKxR2IrQA8sTiMpPI+w8dxccwyWcEZM6Qzmg8srpbzxrcqAIlEAKEACEQDgSImMMBnraqIC5turm49zBPyJnN0VwRtm/5LIwab1g3nT99oq6jDdzfvG3XXt6OTMzCwhrXpbWEhSRav0UHXWLGhsQ+bFRn9+7aXrHGlg3azA6cZeK+4iGjxnEpWm8M2vrv2MSlefvuPFlPOr177wF0d/Pk+TIxr9mwhVtsY4aeShrV4j3dB/GJhkzMsppaz2gM27vJDNFc+w/GIEwcPQyyZMrAw/RDCBAChEBEIEDEbEVUN+/Yw9Y5n5lsESVIXAfFrT5V2RYgvOqx7UPo8MLchY5FWv1njIXOOjz7GQyzRB107IFbhfSssus0bcPTSxZ1BnfXrqIKv59jku2Q0eN5WCsxY+KlK9fAY9hont+gTk0utaODj1mTfHia+EGy3LH3APwRJSrUrVWVGWA5iCx+95nEVPHHT3KV9ip/w7YkVQEpIq/5CkldyoY5/svYWvYOniQT8/0Hj6FrXw+ejg5PRni6QVbHzDx+/dYdGMomB2IrlUzMWEBMXtBV6ixfH8VhCq/MfgYM82Hr81d4FNf4UeNBFyFACBACEYUAEXNEIavTrjA+Couv7IFM5Xzh0mXeavXKFaEWc66B24kCL1yC6XMWqpxxyBJzX8/hEHTjFq83fEA/yJM7B6Ca+tjJMzB5xhyFzPWIGSs1Y9KrvEe6XatmUKd6Zd6e+EHDsjZdXXkUvWzh+nqypEl4/PzFyzDceyKXysuWLAZ9uncS1XTvOLmo37wdHxd6JvN0c+VW0LhlbO3GbbB201alnkzMmIhOVNCZiriQQKOwyYI41QtP3BLbooRVNpbdsnMvzJrnz6tlz+rEt3shqd9/8Ij1tw32HDjE8yqVKwM9OrXhYfohBAgBQiCiECBijihkddoNDzF//vIFuvQeAC9fvdJpGZg6PJsi1cnELDvPwIpIVkKyRsn9jz/+4NucTBHzwmUBsGbDZqXPZfNmqvb5igyxXUnE0eDr339/KIZgKMWO8xqs7DsW5fTuU2bNh137DihZ8piR+PWsskXhTdt3s/FuUeGE9V2aN4Z/2IRk0YrVKuMvUQ+dtMikL9LFHW0GvDz7hdq6XNSnOyFACBACliJAxGwpUlYoN3PeIm4djZIgrhWH9kJpb9yUWXDt+g2lKpJOs0b1+dYlse1Huw6Nnq+mzJyrqHKxMhpV9evZmZ18NZMTnSlpUN6XjeQ0cpCb0rc2gJLnEkZ8QmWM+Uj+2bM5gVvPTuxAifjaKibjOCHYyByTCGkXC6Iav3vH1oqzFY/ePaB4kYK6bbx8/QYuMkv1RAkTQuaM6biTFOH4RavKFg0goeNpYMKZCKbjtq8CefNA2xaNwnQYhmib7oQAIUAIWIoAEbOlSP1C5XA7Ee4pjsFOlkqVIpnFUhy6rXzOTqVKmjgRI8l4Fj2RvOY7oE9PKOZcIMR66ATkIVtLj89Ov8JJSHgunBh8/vwFUrDnFIdl6LWH6vTrtwzbq/LkzAaxYxlvexrkNRbOX7wEet7T5DbRCvsOMxZDbMXpXXI+hQkBQoAQiEgEiJgjEl07aFtsXcKtVv6zfC2eBET2oz98/JQZwLnzbtFq2me4J0T/77hH9GS2fc9+5mZ0Lc/XWyeP7PFSf4QAIUAImEKAiNkUMr9xOm4PWsMOuAhkhlvC8EvPQvpXg2goMzI7G3heGRYae+GFUre4UIKf5D3cYo2BqEd3QoAQIAQiCwEi5shC2ob60RqM1a1RFdqyU6l+9QuN2vzZGc7o3UvvwmMfB/brYVYlrleP0ggBQoAQiEwEiJgjE20b6QslzKNsO1UCdtRiFnbm8p8pU9jIyA3D/MT8gONhFbfZqVv/siQ8zhINwMytUdvUA9JgCQFCwK4RIGK269dLD0cIEAKEACFgawgQMdvaG6PxEgKEACFACNg1AkTMdv166eEIAUKAECAEbA0BImZbe2M0XkKAECAECAG7RoCI2a5fLz0cIUAIEAKEgK0hQMRsa2+MxksIEAKEACFg1wgQMdv166WHIwQIAUKAELA1BIiYbe2N0XgJAUKAECAE7BoBIma7fr30cIQAIUAIEAK2hgARs629MRovIUAIEAKEgF0jQMRs16+XHo4QIAQIAULA1hAgYra1N0bjJQQIAUKAELBrBIiY7fr10sMRAoQAIUAI2BoCRMy29sZovIQAIUAIEAJ2jQARs12/Xno4QoAQIAQIAVtDgIjZ1t4YjZcQIAQIAULArhEgYrbr10sPRwgQAoQAIWBrCBAx29obo/ESAoQAIUAI2DUCRMx2/Xrp4QgBQoAQIARsDQEiZlt7YzReQoAQIAQIAbtGgIjZrl8vPRwhQAgQAoSArSFAxGxrb4zGSwgQAoQAIWDXCBAx2/XrpYcjBAgBQoAQsDUEiJht7Y3ReAkBQoAQIATsGgEiZrt+vfRwhAAhQAgQAraGABGzrb0xGi8hQAgQAoSAXSNAxGzXr5cejhAgBAgBQsDWECBitrU3RuMlBAgBQoAQsGsEiJjt+vXSwxEChAAhQAjYGgJEzLb2xmi8hAAhQAgQAnaNwP8BESvzsDL23HEAAAAASUVORK5CYII=;" vertex="1" parent="1">
          <mxGeometry x="940" y="640" width="83.46" height="34.69" as="geometry" />
        </mxCell>
        <mxCell id="sqnoS2JNhmN8ingZOf4Z-162" style="edgeStyle=orthogonalEdgeStyle;curved=1;rounded=0;html=1;exitX=1;exitY=0.5;exitPerimeter=0;entryX=0;entryY=0.5;entryPerimeter=0;endArrow=none;endFill=0;jettySize=auto;orthogonalLoop=1;strokeWidth=4;fontSize=15;exitDx=0;exitDy=0;entryDx=0;entryDy=0;" edge="1" parent="1" source="sqnoS2JNhmN8ingZOf4Z-153" target="sqnoS2JNhmN8ingZOf4Z-107">
          <mxGeometry relative="1" as="geometry">
            <mxPoint x="880" y="875" as="sourcePoint" />
            <mxPoint x="834.5" y="990" as="targetPoint" />
            <Array as="points">
              <mxPoint x="1010" y="705" />
              <mxPoint x="1010" y="820" />
            </Array>
          </mxGeometry>
        </mxCell>
        <mxCell id="sqnoS2JNhmN8ingZOf4Z-163" value="Merge back" style="edgeLabel;html=1;align=center;verticalAlign=middle;resizable=0;points=[];fontSize=14;" vertex="1" connectable="0" parent="sqnoS2JNhmN8ingZOf4Z-162">
          <mxGeometry x="-0.0359" y="1" relative="1" as="geometry">
            <mxPoint x="-1" y="16" as="offset" />
          </mxGeometry>
        </mxCell>
        <mxCell id="sqnoS2JNhmN8ingZOf4Z-164" value="" style="verticalLabelPosition=bottom;verticalAlign=top;html=1;strokeWidth=4;shape=mxgraph.flowchart.on-page_reference;plain-blue;gradientColor=#EA6B66;strokeColor=#B85450;fillColor=#F8CECC;" vertex="1" parent="1">
          <mxGeometry x="1145" y="500" width="30" height="30" as="geometry" />
        </mxCell>
        <mxCell id="sqnoS2JNhmN8ingZOf4Z-165" value="Hotfix Commit" style="text;html=1;strokeColor=none;fillColor=none;align=center;verticalAlign=middle;whiteSpace=wrap;overflow=hidden;" vertex="1" parent="1">
          <mxGeometry x="1120" y="460" width="80" height="40" as="geometry" />
        </mxCell>
        <mxCell id="sqnoS2JNhmN8ingZOf4Z-166" value="" style="verticalLabelPosition=bottom;verticalAlign=top;html=1;strokeWidth=4;shape=mxgraph.flowchart.on-page_reference;plain-blue;gradientColor=none;strokeColor=#000000;" vertex="1" parent="1">
          <mxGeometry x="1315" y="585" width="30" height="30" as="geometry" />
        </mxCell>
        <mxCell id="sqnoS2JNhmN8ingZOf4Z-168" style="edgeStyle=orthogonalEdgeStyle;curved=1;rounded=0;html=1;exitX=0;exitY=0.5;exitPerimeter=0;entryX=1;entryY=0.5;entryPerimeter=0;endArrow=none;endFill=0;jettySize=auto;orthogonalLoop=1;strokeWidth=4;fontSize=15;exitDx=0;exitDy=0;entryDx=0;entryDy=0;" edge="1" parent="1" source="sqnoS2JNhmN8ingZOf4Z-164" target="sqnoS2JNhmN8ingZOf4Z-73">
          <mxGeometry relative="1" as="geometry">
            <mxPoint x="1103.46" y="385" as="sourcePoint" />
            <mxPoint x="1023.46" y="500" as="targetPoint" />
            <Array as="points">
              <mxPoint x="1100" y="515" />
              <mxPoint x="1100" y="600" />
            </Array>
          </mxGeometry>
        </mxCell>
        <mxCell id="sqnoS2JNhmN8ingZOf4Z-170" style="edgeStyle=orthogonalEdgeStyle;curved=1;rounded=0;html=1;exitX=1;exitY=0.5;exitPerimeter=0;entryX=0;entryY=0.5;entryPerimeter=0;endArrow=none;endFill=0;jettySize=auto;orthogonalLoop=1;strokeWidth=4;fontSize=15;exitDx=0;exitDy=0;entryDx=0;entryDy=0;" edge="1" parent="1" source="sqnoS2JNhmN8ingZOf4Z-164" target="sqnoS2JNhmN8ingZOf4Z-166">
          <mxGeometry relative="1" as="geometry">
            <mxPoint x="1300" y="435" as="sourcePoint" />
            <mxPoint x="1230" y="520" as="targetPoint" />
            <Array as="points">
              <mxPoint x="1210" y="515" />
              <mxPoint x="1210" y="600" />
            </Array>
          </mxGeometry>
        </mxCell>
        <mxCell id="sqnoS2JNhmN8ingZOf4Z-171" value="Tag: 1.1.0&lt;br&gt;(hotfix won&#39;t trigger new release)" style="text;html=1;strokeColor=none;fillColor=none;align=center;verticalAlign=middle;whiteSpace=wrap;overflow=hidden;fontSize=14;" vertex="1" parent="1">
          <mxGeometry x="1230" y="530" width="210" height="50" as="geometry" />
        </mxCell>
      </root>
    </mxGraphModel>
  </diagram>
</mxfile>
